STARTFONT 2.1
FONT -FontForge-Good Times Rg-Book-R-Normal--153-1470-75-75-P-1136-ISO10646-1
SIZE 147 75 75
FONTBOUNDINGBOX 305 180 -43 -31
COMMENT "Generated by fontforge, http://fontforge.sourceforge.net"
COMMENT "(c) 1998-2012 Typodermic Fonts Inc. See attached license agreement. If agreement is missing visit typodermicfonts.com for more info. Languages by Chikako Larabie"
STARTPROPERTIES 39
FOUNDRY "FontForge"
FAMILY_NAME "Good Times Rg"
WEIGHT_NAME "Book"
SLANT "R"
SETWIDTH_NAME "Normal"
ADD_STYLE_NAME ""
PIXEL_SIZE 153
POINT_SIZE 1470
RESOLUTION_X 75
RESOLUTION_Y 75
SPACING "P"
AVERAGE_WIDTH 1136
CHARSET_REGISTRY "ISO10646"
CHARSET_ENCODING "1"
FONTNAME_REGISTRY ""
CHARSET_COLLECTIONS "ISO8859-2 ISO8859-9 ISO8859-4 ISO10646-1"
FONT_NAME "GoodTimesRg-Regular"
FACE_NAME "GoodTimesRg-Regular"
COPYRIGHT "(c) 1998-2012 Typodermic Fonts Inc. See attached license agreement. If agreement is missing visit typodermicfonts.com for more info. Languages by Chikako Larabie"
FONT_VERSION "4.001"
FONT_ASCENT 122
FONT_DESCENT 31
UNDERLINE_POSITION -22
UNDERLINE_THICKNESS 4
X_HEIGHT 110
CAP_HEIGHT 110
RAW_ASCENT 799
RAW_DESCENT 201
NORM_SPACE 45
RELATIVE_WEIGHT 40
RELATIVE_SETWIDTH 50
SUPERSCRIPT_X 0
SUPERSCRIPT_Y 45
SUPERSCRIPT_SIZE 45
SUBSCRIPT_X 0
SUBSCRIPT_Y 0
SUBSCRIPT_SIZE 45
AVG_LOWERCASE_WIDTH 1304
AVG_UPPERCASE_WIDTH 1299
ENDPROPERTIES
CHARS 372
STARTCHAR space
ENCODING 32
SWIDTH 294 0
DWIDTH 45 0
BBX 1 1 0 0
BITMAP
00
ENDCHAR
STARTCHAR exclam
ENCODING 33
SWIDTH 298 0
DWIDTH 46 0
BBX 21 111 13 0
BITMAP
7FFFE0
7FFFE0
7FFFE0
7FFFE0
7FFFE0
7FFFE0
7FFFE0
7FFFE0
7FFFE0
7FFFE0
7FFFE0
7FFFE0
7FFFE0
7FFFE0
7FFFE0
7FFFE0
7FFFE0
7FFFE0
7FFFE0
7FFFE0
7FFFE0
7FFFE0
7FFFE0
7FFFE0
7FFFE0
7FFFE0
7FFFE0
7FFFE0
7FFFE0
7FFFE0
7FFFE0
7FFFE0
7FFFE0
7FFFE0
7FFFE0
7FFFE0
7FFFE0
7FFFE0
7FFFE0
7FFFE0
7FFFE0
7FFFE0
7FFFE0
7FFFE0
7FFFE0
7FFFE0
7FFFE0
7FFFE0
7FFFE0
7FFFE0
7FFFE0
7FFFE0
7FFFE0
7FFFE0
7FFFE0
7FFFE0
7FFFE0
7FFFE0
7FFFE0
7FFFE0
7FFFE0
7FFFE0
7FFFE0
7FFFE0
7FFFE0
7FFFE0
7FFFE0
7FFFE0
7FFFE0
7FFFE0
7FFFE0
7FFFE0
7FFFE0
7FFFE0
7FFFE0
000000
000000
000000
000000
000000
000000
000000
000000
000000
000000
000000
000000
000000
000000
000000
01FC00
07FF00
1FFF80
3FFFC0
7FFFE0
7FFFE0
FFFFF0
FFFFF0
FFFFF0
FFFFF0
FFFFF8
FFFFF0
FFFFF0
FFFFF0
FFFFF0
7FFFE0
7FFFE0
3FFFC0
1FFF80
0FFF00
01FC00
ENDCHAR
STARTCHAR quotedbl
ENCODING 34
SWIDTH 452 0
DWIDTH 69 0
BBX 49 40 10 71
BITMAP
FFFFF007FFFF80
7FFFF007FFFF80
7FFFF007FFFF80
7FFFF007FFFF00
7FFFF007FFFF00
7FFFF003FFFF00
7FFFF003FFFF00
7FFFE003FFFF00
7FFFE003FFFF00
7FFFE003FFFF00
7FFFE003FFFF00
7FFFE003FFFF00
3FFFE003FFFF00
3FFFE003FFFF00
3FFFE003FFFE00
3FFFE003FFFE00
3FFFE001FFFE00
3FFFE001FFFE00
3FFFE001FFFE00
3FFFC001FFFE00
3FFFC001FFFE00
3FFFC001FFFE00
3FFFC001FFFE00
3FFFC001FFFE00
1FFFC001FFFE00
1FFFC001FFFE00
1FFFC001FFFC00
1FFFC000FFFC00
1FFFC000FFFC00
1FFFC000FFFC00
1FFF8000FFFC00
1FFF8000FFFC00
1FFF8000FFFC00
1FFF8000FFFC00
1FFF8000FFFC00
0FFF8000FFFC00
0FFF8000FFFC00
0FFF8000FFF800
0FFF80007FF800
0FFF80007FF800
ENDCHAR
STARTCHAR numbersign
ENCODING 35
SWIDTH 697 0
DWIDTH 107 0
BBX 94 111 7 0
BITMAP
0000000003FFF000003FFF00
0000000003FFE000003FFF00
0000000007FFE000003FFF00
0000000007FFE000007FFE00
0000000007FFE000007FFE00
000000000FFFC000007FFE00
000000000FFFC000007FFC00
000000000FFFC00000FFFC00
000000001FFF800000FFFC00
000000001FFF800000FFF800
000000001FFF800001FFF800
000000003FFF000001FFF800
000000003FFF000001FFF800
000000003FFF000003FFF000
000000003FFE000003FFF000
000000007FFE000003FFF000
000000007FFE000007FFE000
000000007FFE000007FFE000
00000000FFFC000007FFE000
00000000FFFC000007FFC000
00000000FFFC00000FFFC000
00000001FFF800000FFFC000
00000001FFF800000FFF8000
00000001FFF800001FFF8000
00000003FFF000001FFF8000
00000003FFF000001FFF8000
00000003FFF000003FFF0000
00000003FFF000003FFF0000
000FFFFFFFFFFFFFFFFFFFFC
000FFFFFFFFFFFFFFFFFFFFC
000FFFFFFFFFFFFFFFFFFFFC
000FFFFFFFFFFFFFFFFFFFFC
000FFFFFFFFFFFFFFFFFFFFC
000FFFFFFFFFFFFFFFFFFFFC
000FFFFFFFFFFFFFFFFFFFFC
000FFFFFFFFFFFFFFFFFFFFC
000FFFFFFFFFFFFFFFFFFFFC
000FFFFFFFFFFFFFFFFFFFFC
000FFFFFFFFFFFFFFFFFFFFC
000FFFFFFFFFFFFFFFFFFFFC
000FFFFFFFFFFFFFFFFFFFFC
0000007FFE000003FFF00000
0000007FFE000003FFE00000
0000007FFC000007FFE00000
000000FFFC000007FFE00000
000000FFFC000007FFC00000
000000FFFC00000FFFC00000
000000FFF800000FFFC00000
000001FFF800000FFFC00000
000001FFF800001FFF800000
000001FFF000001FFF800000
000003FFF000001FFF800000
000003FFF000001FFF000000
000003FFF000003FFF000000
000007FFE000003FFF000000
000007FFE000003FFF000000
000007FFE000007FFE000000
000007FFC000007FFE000000
00000FFFC000007FFE000000
00000FFFC000007FFC000000
00000FFF800000FFFC000000
00001FFF800000FFFC000000
00001FFF800000FFF8000000
00001FFF800001FFF8000000
00003FFF000001FFF8000000
00003FFF000001FFF8000000
00003FFF000003FFF0000000
00003FFE000003FFF0000000
FFFFFFFFFFFFFFFFFFFFC000
FFFFFFFFFFFFFFFFFFFFC000
FFFFFFFFFFFFFFFFFFFFC000
FFFFFFFFFFFFFFFFFFFFC000
FFFFFFFFFFFFFFFFFFFFC000
FFFFFFFFFFFFFFFFFFFFC000
FFFFFFFFFFFFFFFFFFFFC000
FFFFFFFFFFFFFFFFFFFFC000
FFFFFFFFFFFFFFFFFFFFC000
FFFFFFFFFFFFFFFFFFFFC000
FFFFFFFFFFFFFFFFFFFFC000
FFFFFFFFFFFFFFFFFFFFC000
FFFFFFFFFFFFFFFFFFFFC000
0007FFE000003FFF00000000
0007FFE000003FFE00000000
0007FFE000007FFE00000000
000FFFC000007FFE00000000
000FFFC000007FFC00000000
000FFFC00000FFFC00000000
000FFF800000FFFC00000000
001FFF800000FFFC00000000
001FFF800001FFF800000000
001FFF000001FFF800000000
003FFF000001FFF800000000
003FFF000001FFF000000000
003FFF000003FFF000000000
007FFE000003FFF000000000
007FFE000003FFE000000000
007FFE000007FFE000000000
007FFC000007FFE000000000
00FFFC000007FFE000000000
00FFFC00000FFFC000000000
00FFF800000FFFC000000000
01FFF800000FFFC000000000
01FFF800000FFF8000000000
01FFF800001FFF8000000000
01FFF000001FFF8000000000
03FFF000001FFF0000000000
03FFF000003FFF0000000000
03FFE000003FFF0000000000
07FFE000003FFF0000000000
07FFE000007FFE0000000000
07FFC000007FFE0000000000
ENDCHAR
STARTCHAR dollar
ENCODING 36
SWIDTH 744 0
DWIDTH 114 0
BBX 96 111 9 0
BITMAP
00000000000FF80000000000
00000000000FF80000000000
00000000000FF80000000000
00000000000FF80000000000
00000000000FF80000000000
00000000000FF80000000000
00000000000FF80000000000
00000000000FF80000000000
00000000000FF80000000000
00000000000FF80000000000
00000000000FF80000000000
000007FFFFFFFFFFFFFFFFF0
00007FFFFFFFFFFFFFFFFFF0
0003FFFFFFFFFFFFFFFFFFF0
000FFFFFFFFFFFFFFFFFFFF0
003FFFFFFFFFFFFFFFFFFFF0
007FFFFFFFFFFFFFFFFFFFF0
01FFFFFFFFFFFFFFFFFFFFF0
03FFFFFFFFFFFFFFFFFFFFF0
07FFFFFFFFFFFFFFFFFFFFF0
0FFFFFFFFFFFFFFFFFFFFFF0
0FFFFFFFFFFFFFFFFFFFFFF0
1FFFFFFFFFFFFFFFFFFFFFF0
1FFFFFFFFFFFFFFFFFFFFFF0
3FFFFFFFFFFFFFFFFFFFFFF0
3FFFFFFFFFFFFFFFFFFFFFF0
7FFFFFFFFFFFFFFFFFFFFFF0
7FFFFE00000FF80000000000
7FFFF800000FF80000000000
FFFFE000000FF80000000000
FFFFC000000FF80000000000
FFFFC000000FF80000000000
FFFF8000000FF80000000000
FFFF8000000FF80000000000
FFFF0000000FF80000000000
FFFF0000000FF80000000000
FFFF0000000FF80000000000
FFFF0000000FF80000000000
FFFF0000000FF80000000000
FFFF0000000FF80000000000
FFFF0000000FF80000000000
FFFF8000000FF80000000000
FFFF8000000FF80000000000
7FFFC000000FF80000000000
7FFFC000000FF80000000000
7FFFE000000FF80000000000
3FFFF800000FF80000000000
3FFFFE00000FF80000000000
1FFFFFFFFFFFFFFFFFE00000
1FFFFFFFFFFFFFFFFFFF0000
0FFFFFFFFFFFFFFFFFFFE000
07FFFFFFFFFFFFFFFFFFF800
03FFFFFFFFFFFFFFFFFFFC00
01FFFFFFFFFFFFFFFFFFFF00
00FFFFFFFFFFFFFFFFFFFF80
007FFFFFFFFFFFFFFFFFFFC0
003FFFFFFFFFFFFFFFFFFFE0
000FFFFFFFFFFFFFFFFFFFF0
0003FFFFFFFFFFFFFFFFFFF0
00007FFFFFFFFFFFFFFFFFF8
000007FFFFFFFFFFFFFFFFF8
00000000000FF800007FFFFC
00000000000FF800000FFFFC
00000000000FF8000007FFFC
00000000000FF8000003FFFE
00000000000FF8000001FFFE
00000000000FF8000000FFFE
00000000000FF8000000FFFE
00000000000FF8000000FFFE
00000000000FF80000007FFF
00000000000FF80000007FFF
00000000000FF80000007FFF
00000000000FF80000007FFF
00000000000FF80000007FFF
00000000000FF80000007FFF
00000000000FF80000007FFF
00000000000FF8000000FFFF
00000000000FF8000000FFFF
00000000000FF8000000FFFE
00000000000FF8000001FFFE
00000000000FF8000003FFFE
00000000000FF8000007FFFE
00000000000FF800000FFFFE
00000000000FF800007FFFFC
7FFFFFFFFFFFFFFFFFFFFFFC
7FFFFFFFFFFFFFFFFFFFFFFC
7FFFFFFFFFFFFFFFFFFFFFF8
7FFFFFFFFFFFFFFFFFFFFFF8
7FFFFFFFFFFFFFFFFFFFFFF0
7FFFFFFFFFFFFFFFFFFFFFE0
7FFFFFFFFFFFFFFFFFFFFFE0
7FFFFFFFFFFFFFFFFFFFFFC0
7FFFFFFFFFFFFFFFFFFFFF80
7FFFFFFFFFFFFFFFFFFFFF00
7FFFFFFFFFFFFFFFFFFFFE00
7FFFFFFFFFFFFFFFFFFFF800
7FFFFFFFFFFFFFFFFFFFF000
7FFFFFFFFFFFFFFFFFFFC000
7FFFFFFFFFFFFFFFFFFE0000
7FFFFFFFFFFFFFFFFFE00000
00000000000FF80000000000
00000000000FF80000000000
00000000000FF80000000000
00000000000FF80000000000
00000000000FF80000000000
00000000000FF80000000000
00000000000FF80000000000
00000000000FF80000000000
00000000000FF80000000000
00000000000FF80000000000
00000000000FF80000000000
ENDCHAR
STARTCHAR percent
ENCODING 37
SWIDTH 965 0
DWIDTH 148 0
BBX 135 128 6 -10
BITMAP
0000000000000000000000000007FFC000
000000000000000000000000000FFF8000
000000000000000000000000001FFF0000
000000000000000000000000001FFF0000
000001FFE000000000000000003FFE0000
00001FFFFE00000000000000007FFC0000
00007FFFFFC000000000000000FFF80000
0001FFFFFFF000000000000001FFF80000
0007FFFFFFF800000000000001FFF00000
001FFFFFFFFE00000000000003FFE00000
003FFFFFFFFF00000000000007FFC00000
007FFFFFFFFF8000000000000FFF800000
00FFFFFFFFFFC000000000000FFF800000
01FFFFFFFFFFE000000000001FFF000000
03FFFF003FFFF000000000003FFE000000
03FFF80003FFF800000000007FFC000000
07FFC00000FFFC0000000000FFF8000000
0FFF8000007FFC0000000000FFF8000000
0FFF0000001FFE0000000001FFF0000000
1FFE0000000FFE0000000003FFE0000000
1FFC0000000FFF0000000007FFC0000000
3FF800000007FF000000000FFFC0000000
3FF800000003FF800000000FFF80000000
3FF000000003FF800000001FFF00000000
7FF000000001FF800000003FFE00000000
7FE000000001FF800000007FFC00000000
7FE000000001FFC00000007FFC00000000
7FE000000000FFC0000000FFF800000000
7FC000000000FFC0000001FFF000000000
7FC000000000FFC0000003FFE000000000
FFC000000000FFC0000007FFC000000000
FFC000000000FFC0000007FFC000000000
FFC000000000FFC000000FFF8000000000
FFC000000000FFC000001FFF0000000000
7FC000000000FFC000003FFE0000000000
7FC000000000FFC000007FFE0000000000
7FC000000000FFC000007FFC0000000000
7FE000000000FFC00000FFF80000000000
7FE000000001FF800001FFF00000000000
7FE000000001FF800003FFE00000000000
3FF000000001FF800003FFE00000000000
3FF000000003FF800007FFC00000000000
3FF800000003FF00000FFF800000000000
1FF800000007FF00001FFF000000000000
1FFC0000000FFE00003FFF000000000000
0FFE0000000FFE00003FFE000000000000
0FFF0000001FFC00007FFC000000000000
07FF8000007FFC0000FFF8000000000000
07FFE00000FFF80001FFF0000000000000
03FFF80003FFF00003FFF0000000000000
01FFFF003FFFF00003FFE0000000000000
00FFFFFFFFFFE00007FFC0000000000000
007FFFFFFFFFC0000FFF80000000000000
003FFFFFFFFF80001FFF00000000000000
001FFFFFFFFF00001FFF00000000000000
000FFFFFFFFC00003FFE00000000000000
0003FFFFFFF800007FFC00000000000000
0001FFFFFFE00000FFF800000000000000
00007FFFFF800001FFF800000000000000
00000FFFFC000001FFF000000000000000
000000FFE0000003FFE000000000000000
0000000000000007FFC000000000000000
000000000000000FFF8000000000000000
000000000000001FFF8000000FFF000000
000000000000001FFF0000007FFFF00000
000000000000003FFE000003FFFFFE0000
000000000000007FFC00000FFFFFFF8000
00000000000000FFFC00003FFFFFFFE000
00000000000000FFF800007FFFFFFFF000
00000000000001FFF00001FFFFFFFFF800
00000000000003FFE00003FFFFFFFFFC00
00000000000007FFC00007FFFFFFFFFF00
0000000000000FFFC0000FFFFFFFFFFF00
0000000000000FFF80001FFFF801FFFF80
0000000000001FFF00001FFFC0001FFFC0
0000000000003FFE00003FFF000007FFE0
0000000000007FFC00007FFC000003FFE0
000000000000FFFC00007FF8000000FFF0
000000000000FFF80000FFF00000007FF0
000000000001FFF00000FFE00000003FF8
000000000003FFE00001FFC00000003FF8
000000000007FFE00001FFC00000001FFC
000000000007FFC00001FF800000001FFC
00000000000FFF800003FF800000000FFC
00000000001FFF000003FF000000000FFE
00000000003FFE000003FF0000000007FE
00000000007FFE000003FF0000000007FE
00000000007FFC000003FE0000000007FE
0000000000FFF8000003FE0000000007FE
0000000001FFF0000003FE0000000007FE
0000000003FFF0000003FE0000000007FE
0000000007FFE0000003FE0000000007FE
0000000007FFC0000003FE0000000007FE
000000000FFF80000003FE0000000007FE
000000001FFF00000003FE0000000007FE
000000003FFF00000003FF0000000007FE
000000003FFE00000003FF0000000007FE
000000007FFC00000003FF0000000007FE
00000000FFF800000003FF000000000FFC
00000001FFF000000001FF800000000FFC
00000003FFF000000001FF800000001FFC
00000003FFE000000001FFC00000001FF8
00000007FFC000000000FFC00000003FF8
0000000FFF8000000000FFE00000007FF0
0000001FFF80000000007FF00000007FF0
0000003FFF00000000007FF8000000FFE0
0000003FFE00000000003FFC000003FFE0
0000007FFC00000000001FFF000007FFC0
000000FFF800000000001FFFC0001FFFC0
000001FFF800000000000FFFF801FFFF80
000001FFF0000000000007FFFFFFFFFF00
000003FFE0000000000003FFFFFFFFFE00
000007FFC0000000000001FFFFFFFFFC00
00000FFFC0000000000000FFFFFFFFF800
00001FFF800000000000007FFFFFFFE000
00001FFF000000000000001FFFFFFFC000
00003FFE000000000000000FFFFFFF0000
00007FFC0000000000000003FFFFFC0000
0000FFFC00000000000000007FFFF00000
0000FFF8000000000000000007FF000000
0001FFF000000000000000000000000000
0003FFE000000000000000000000000000
0007FFC000000000000000000000000000
000FFFC000000000000000000000000000
000FFF8000000000000000000000000000
001FFF0000000000000000000000000000
003FFE0000000000000000000000000000
007FFE0000000000000000000000000000
ENDCHAR
STARTCHAR ampersand
ENCODING 38
SWIDTH 759 0
DWIDTH 116 0
BBX 105 111 7 0
BITMAP
00000001FFFFFFF0000000000000
0000007FFFFFFFF0000000000000
000003FFFFFFFFF0000000000000
00001FFFFFFFFFF0000000000000
00007FFFFFFFFFF0000000000000
0001FFFFFFFFFFF0000000000000
0007FFFFFFFFFFF0000000000000
000FFFFFFFFFFFF0000000000000
001FFFFFFFFFFFF0000000000000
003FFFFFFFFFFFF0000000000000
007FFFFFFFFFFFF0000000000000
00FFFFFFFFFFFFF0000000000000
01FFFFFFFFFFFFF0000000000000
01FFFFFFFFFFFFF0000000000000
03FFFFFFFFFFFFF0000000000000
07FFFFFFFFFFFFF0000000000000
07FFFFFFFFFFFFF0000000000000
07FFFFFFFFFFFFF0000000000000
0FFFFFFFFFFFFFF0000000000000
0FFFFFFFF0000000000000000000
0FFFFFFC00000000000000000000
1FFFFFF000000000000000000000
1FFFFFC000000000000000000000
1FFFFF8000000000000000000000
1FFFFF8000000000000000000000
1FFFFF0000000000000000000000
1FFFFE0000000000000000000000
1FFFFE0000000000000000000000
1FFFFE0000000000000000000000
1FFFFC0000000000000000000000
1FFFFC0000000000000000000000
1FFFFC0000000000000000000000
1FFFFC0000000000000000000000
1FFFFC0000000000000000000000
1FFFFC0000000000000000000000
1FFFFC0000000000000000000000
1FFFFE0000000000000000000000
0FFFFE0000000000000000000000
0FFFFE0000000000000000000000
0FFFFF0000000000000000000000
07FFFF0000000000000000000000
07FFFF8000000000000000000000
03FFFFC000000000000000000000
03FFFFE000000000000000000000
01FFFFF800000000000000000000
00FFFFFF80000000000000000000
007FFFFFFFFFFFFFFFFFFFFFC000
003FFFFFFFFFFFFFFFFFFFFFC000
001FFFFFFFFFFFFFFFFFFFFFC000
0007FFFFFFFFFFFFFFFFFFFFC000
0003FFFFFFFFFFFFFFFFFFFFC000
00007FFFFFFFFFFFFFFFFFFFC000
0000FFFFFFFFFFFFFFFFFFFFC000
0003FFFFFFFFFFFFFFFFFFFFC000
000FFFFFFFFFFFFFFFFFFFFFC000
001FFFFFFFFFFFFFFFFFFFFFC000
003FFFFFFFFFFFFFFFFFFFFFC000
00FFFFFFFFFFFFFFFFFFFFFFC000
01FFFFFFFFFFFFFFFFFFFFFFC000
01FFFFFFFFFFFFFFFFFFFFFFC000
03FFFFFFFFFFFFFFFFFFFFFFC000
07FFFFFFFFFFFFFFFFFFFFFFC000
0FFFFFFF800000007FFFF8000000
0FFFFFF8000000007FFFF8000000
1FFFFFC0000000007FFFF8000000
1FFFFF80000000007FFFF8000000
3FFFFE00000000007FFFF8000000
3FFFFE00000000007FFFF8000000
3FFFFC00000000007FFFF8000000
7FFFF800000000007FFFF8000000
7FFFF800000000007FFFF8000000
7FFFF800000000007FFFF8000000
7FFFF000000000007FFFF8000000
7FFFF000000000007FFFF8000000
7FFFF000000000007FFFF8000000
7FFFF000000000007FFFF8000000
FFFFF000000000007FFFF8000000
FFFFF000000000007FFFF8000000
7FFFF000000000007FFFF8000000
7FFFF000000000007FFFF8000000
7FFFF800000000007FFFF8000000
7FFFF800000000007FFFF8000000
7FFFF800000000007FFFF8000000
7FFFFC00000000007FFFF8000000
7FFFFC00000000007FFFF8000000
7FFFFE00000000007FFFF8000000
3FFFFF00000000007FFFF8000000
3FFFFF80000000007FFFF8000000
3FFFFFC0000000007FFFF8000000
3FFFFFF0000000007FFFF8000000
1FFFFFFE000000007FFFF8000000
1FFFFFFFFC0000007FFFF8000000
0FFFFFFFFFFFFFFFFFFFFFFFFF80
0FFFFFFFFFFFFFFFFFFFFFFFFF80
07FFFFFFFFFFFFFFFFFFFFFFFF80
07FFFFFFFFFFFFFFFFFFFFFFFF80
03FFFFFFFFFFFFFFFFFFFFFFFF80
03FFFFFFFFFFFFFFFFFFFFFFFF80
01FFFFFFFFFFFFFFFFFFFFFFFF80
00FFFFFFFFFFFFFFFFFFFFFFFF80
007FFFFFFFFFFFFFFFFFFFFFFF80
003FFFFFFFFFFFFFFFFFFFFFFF80
001FFFFFFFFFFFFFFFFFFFFFFF80
000FFFFFFFFFFFFFFFFFFFFFFF80
0007FFFFFFFFFFFFFFFFFFFFFF80
0001FFFFFFFFFFFFFFFFFFFFFF80
00007FFFFFFFFFFFFFFFFFFFFF80
00001FFFFFFFFFFFFFFFFFFFFF80
000007FFFFFFFFFFFFFFFFFFFF80
000000FFFFFFFFFFFFFFFFFFFF80
00000007FFFFFFFFFFFFFFFFFF80
ENDCHAR
STARTCHAR quotesingle
ENCODING 39
SWIDTH 255 0
DWIDTH 39 0
BBX 19 40 10 71
BITMAP
FFFFE0
FFFFE0
FFFFE0
FFFFE0
FFFFE0
FFFFE0
FFFFE0
FFFFE0
FFFFE0
7FFFE0
7FFFC0
7FFFC0
7FFFC0
7FFFC0
7FFFC0
7FFFC0
7FFFC0
7FFFC0
7FFFC0
7FFFC0
3FFFC0
3FFF80
3FFF80
3FFF80
3FFF80
3FFF80
3FFF80
3FFF80
3FFF80
3FFF80
3FFF80
1FFF00
1FFF00
1FFF00
1FFF00
1FFF00
1FFF00
1FFF00
1FFF00
1FFF00
ENDCHAR
STARTCHAR parenleft
ENCODING 40
SWIDTH 356 0
DWIDTH 54 0
BBX 31 140 14 -14
BITMAP
0000FFFE
0000FFFC
0000FFFC
0001FFF8
0001FFF8
0003FFF0
0003FFF0
0007FFF0
0007FFE0
0007FFE0
000FFFC0
000FFFC0
000FFF80
001FFF80
001FFF80
003FFF00
003FFF00
003FFF00
007FFE00
007FFE00
007FFE00
00FFFC00
00FFFC00
00FFF800
01FFF800
01FFF800
01FFF000
01FFF000
03FFF000
03FFE000
03FFE000
07FFE000
07FFE000
07FFC000
07FFC000
0FFFC000
0FFF8000
0FFF8000
0FFF8000
0FFF8000
1FFF0000
1FFF0000
1FFF0000
1FFF0000
1FFF0000
3FFE0000
3FFE0000
3FFE0000
3FFE0000
3FFE0000
3FFC0000
7FFC0000
7FFC0000
7FFC0000
7FFC0000
7FFC0000
7FFC0000
7FF80000
7FF80000
7FF80000
7FF80000
7FF80000
7FF80000
FFF80000
FFF80000
FFF80000
FFF80000
FFF80000
FFF80000
FFF80000
FFF80000
FFF80000
FFF80000
FFF80000
FFF80000
FFF80000
7FF80000
7FF80000
7FF80000
7FF80000
7FF80000
7FF80000
7FF80000
7FFC0000
7FFC0000
7FFC0000
7FFC0000
7FFC0000
3FFC0000
3FFC0000
3FFC0000
3FFE0000
3FFE0000
3FFE0000
3FFE0000
1FFE0000
1FFF0000
1FFF0000
1FFF0000
1FFF0000
0FFF0000
0FFF8000
0FFF8000
0FFF8000
0FFF8000
07FFC000
07FFC000
07FFC000
07FFE000
03FFE000
03FFE000
03FFE000
01FFF000
01FFF000
01FFF000
01FFF800
00FFF800
00FFF800
00FFFC00
007FFC00
007FFC00
007FFE00
003FFE00
003FFF00
001FFF00
001FFF00
001FFF80
000FFF80
000FFFC0
000FFFC0
0007FFC0
0007FFE0
0003FFE0
0003FFF0
0001FFF0
0001FFF8
0001FFF8
0000FFFC
0000FFFC
00007FFE
ENDCHAR
STARTCHAR parenright
ENCODING 41
SWIDTH 355 0
DWIDTH 54 0
BBX 30 140 10 -14
BITMAP
FFFC0000
7FFC0000
7FFE0000
7FFE0000
3FFF0000
3FFF0000
1FFF0000
1FFF8000
1FFF8000
0FFFC000
0FFFC000
07FFC000
07FFE000
07FFE000
03FFE000
03FFF000
01FFF000
01FFF800
01FFF800
00FFF800
00FFFC00
00FFFC00
007FFC00
007FFE00
007FFE00
003FFE00
003FFE00
003FFF00
001FFF00
001FFF00
001FFF80
000FFF80
000FFF80
000FFF80
000FFFC0
0007FFC0
0007FFC0
0007FFC0
0003FFE0
0003FFE0
0003FFE0
0003FFE0
0003FFE0
0001FFF0
0001FFF0
0001FFF0
0001FFF0
0001FFF0
0000FFF8
0000FFF8
0000FFF8
0000FFF8
0000FFF8
0000FFF8
00007FF8
00007FF8
00007FF8
00007FFC
00007FFC
00007FFC
00007FFC
00007FFC
00007FFC
00007FFC
00007FFC
00007FFC
00007FFC
00003FFC
00003FFC
00003FFC
00003FFC
00003FFC
00007FFC
00007FFC
00007FFC
00007FFC
00007FFC
00007FFC
00007FFC
00007FFC
00007FFC
00007FFC
00007FFC
00007FF8
00007FF8
00007FF8
0000FFF8
0000FFF8
0000FFF8
0000FFF8
0000FFF8
0000FFF0
0001FFF0
0001FFF0
0001FFF0
0001FFF0
0001FFF0
0003FFE0
0003FFE0
0003FFE0
0003FFE0
0003FFE0
0007FFC0
0007FFC0
0007FFC0
0007FFC0
000FFF80
000FFF80
000FFF80
001FFF80
001FFF00
001FFF00
001FFF00
003FFF00
003FFE00
003FFE00
007FFE00
007FFC00
007FFC00
00FFFC00
00FFF800
01FFF800
01FFF800
01FFF000
03FFF000
03FFE000
03FFE000
07FFE000
07FFC000
0FFFC000
0FFFC000
1FFF8000
1FFF8000
1FFF0000
3FFF0000
3FFE0000
7FFE0000
7FFE0000
FFFC0000
FFFC0000
ENDCHAR
STARTCHAR asterisk
ENCODING 42
SWIDTH 469 0
DWIDTH 72 0
BBX 52 50 10 61
BITMAP
000007FC000000
000007FC000000
000007FC000000
000007FC000000
000007FC000000
000007FC000000
000007FC000000
000007FC000000
000007FC000000
000007FC000000
000007FC000000
000007FC000000
000007FC000000
000007FC000000
380007FC0001C0
3F0007FC000FC0
7FE007FC00FFC0
7FFE07FC07FFE0
7FFFC7FC3FFFE0
7FFFFFFDFFFFE0
FFFFFFFFFFFFF0
FFFFFFFFFFFFF0
FFFFFFFFFFFFE0
1FFFFFFFFFFF00
01FFFFFFFFF800
003FFFFFFFC000
0007FFFFFC0000
0000FFFFE00000
00003FFF800000
00007FFFC00000
00007FFFE00000
0000FFFFF00000
0001FFFFF00000
0001FFFFF80000
0003FF9FFC0000
0007FF1FFC0000
0007FF0FFE0000
000FFE07FF0000
001FFC07FF8000
003FFC03FF8000
003FF801FFC000
007FF000FFE000
00FFE000FFE000
00FFE0007FF000
01FFC0003FF800
00FF80003FF000
007F80001FE000
001F00000F8000
000E0000070000
00040000060000
ENDCHAR
STARTCHAR plus
ENCODING 43
SWIDTH 690 0
DWIDTH 106 0
BBX 86 86 10 13
BITMAP
000000000FFF8000000000
000000000FFF8000000000
000000000FFF8000000000
000000000FFF8000000000
000000000FFF8000000000
000000000FFF8000000000
000000000FFF8000000000
000000000FFF8000000000
000000000FFF8000000000
000000000FFF8000000000
000000000FFF8000000000
000000000FFF8000000000
000000000FFF8000000000
000000000FFF8000000000
000000000FFF8000000000
000000000FFF8000000000
000000000FFF8000000000
000000000FFF8000000000
000000000FFF8000000000
000000000FFF8000000000
000000000FFF8000000000
000000000FFF8000000000
000000000FFF8000000000
000000000FFF8000000000
000000000FFF8000000000
000000000FFF8000000000
000000000FFF8000000000
000000000FFF8000000000
000000000FFF8000000000
000000000FFF8000000000
000000000FFF8000000000
000000000FFF8000000000
000000000FFF8000000000
000000000FFF8000000000
000000000FFF8000000000
000000000FFF8000000000
FFFFFFFFFFFFFFFFFFFFFC
FFFFFFFFFFFFFFFFFFFFFC
FFFFFFFFFFFFFFFFFFFFFC
FFFFFFFFFFFFFFFFFFFFFC
FFFFFFFFFFFFFFFFFFFFFC
FFFFFFFFFFFFFFFFFFFFFC
FFFFFFFFFFFFFFFFFFFFFC
FFFFFFFFFFFFFFFFFFFFFC
FFFFFFFFFFFFFFFFFFFFFC
FFFFFFFFFFFFFFFFFFFFFC
FFFFFFFFFFFFFFFFFFFFFC
FFFFFFFFFFFFFFFFFFFFFC
FFFFFFFFFFFFFFFFFFFFFC
000000000FFF8000000000
000000000FFF8000000000
000000000FFF8000000000
000000000FFF8000000000
000000000FFF8000000000
000000000FFF8000000000
000000000FFF8000000000
000000000FFF8000000000
000000000FFF8000000000
000000000FFF8000000000
000000000FFF8000000000
000000000FFF8000000000
000000000FFF8000000000
000000000FFF8000000000
000000000FFF8000000000
000000000FFF8000000000
000000000FFF8000000000
000000000FFF8000000000
000000000FFF8000000000
000000000FFF8000000000
000000000FFF8000000000
000000000FFF8000000000
000000000FFF8000000000
000000000FFF8000000000
000000000FFF8000000000
000000000FFF8000000000
000000000FFF8000000000
000000000FFF8000000000
000000000FFF8000000000
000000000FFF8000000000
000000000FFF8000000000
000000000FFF8000000000
000000000FFF8000000000
000000000FFF8000000000
000000000FFF8000000000
000000000FFF8000000000
000000000FFF8000000000
ENDCHAR
STARTCHAR comma
ENCODING 44
SWIDTH 259 0
DWIDTH 40 0
BBX 20 40 10 -18
BITMAP
FFFFF0
FFFFF0
FFFFF0
FFFFE0
FFFFE0
FFFFE0
FFFFE0
FFFFE0
FFFFC0
FFFFC0
FFFFC0
FFFFC0
FFFFC0
FFFF80
FFFF80
FFFF80
FFFF80
FFFF80
FFFF00
FFFF00
FFFF00
FFFF00
FFFF00
FFFF00
FFFE00
FFFE00
FFFE00
FFFE00
FFFE00
FFFC00
FFFC00
FFFC00
FFFC00
FFFC00
FFF800
FFF800
FFF800
FFF800
FFF800
FFF000
ENDCHAR
STARTCHAR hyphen
ENCODING 45
SWIDTH 296 0
DWIDTH 45 0
BBX 37 13 4 50
BITMAP
FFFFFFFFF8
FFFFFFFFF8
FFFFFFFFF8
FFFFFFFFF8
FFFFFFFFF8
FFFFFFFFF8
FFFFFFFFF8
FFFFFFFFF8
FFFFFFFFF8
FFFFFFFFF8
FFFFFFFFF8
FFFFFFFFF8
FFFFFFFFF8
ENDCHAR
STARTCHAR period
ENCODING 46
SWIDTH 262 0
DWIDTH 40 0
BBX 20 21 10 0
BITMAP
01F800
0FFE00
1FFF80
3FFFC0
7FFFE0
7FFFE0
FFFFF0
FFFFF0
FFFFF0
FFFFF0
FFFFF0
FFFFF0
FFFFF0
FFFFF0
FFFFF0
7FFFE0
7FFFE0
3FFFC0
1FFF80
0FFF00
03F800
ENDCHAR
STARTCHAR slash
ENCODING 47
SWIDTH 444 0
DWIDTH 68 0
BBX 65 111 1 0
BITMAP
0000000000000FFF80
0000000000000FFF80
0000000000000FFF00
0000000000001FFF00
0000000000001FFE00
0000000000003FFE00
0000000000003FFC00
0000000000007FFC00
0000000000007FF800
000000000000FFF800
000000000000FFF800
000000000001FFF000
000000000001FFF000
000000000003FFE000
000000000003FFE000
000000000007FFC000
000000000007FFC000
00000000000FFF8000
00000000000FFF8000
00000000001FFF0000
00000000001FFF0000
00000000001FFE0000
00000000003FFE0000
00000000003FFE0000
00000000007FFC0000
00000000007FFC0000
0000000000FFF80000
0000000000FFF80000
0000000001FFF00000
0000000001FFF00000
0000000003FFE00000
0000000003FFE00000
0000000007FFC00000
0000000007FFC00000
000000000FFF800000
000000000FFF800000
000000001FFF000000
000000001FFF000000
000000001FFF000000
000000003FFE000000
000000003FFE000000
000000007FFC000000
000000007FFC000000
00000000FFF8000000
00000000FFF8000000
00000001FFF0000000
00000001FFF0000000
00000003FFE0000000
00000003FFE0000000
00000007FFC0000000
00000007FFC0000000
0000000FFF80000000
0000000FFF80000000
0000001FFF80000000
0000001FFF00000000
0000001FFF00000000
0000003FFE00000000
0000003FFE00000000
0000007FFC00000000
0000007FFC00000000
000000FFF800000000
000000FFF800000000
000001FFF000000000
000001FFF000000000
000003FFE000000000
000003FFE000000000
000007FFE000000000
000007FFC000000000
00000FFFC000000000
00000FFF8000000000
00001FFF8000000000
00001FFF0000000000
00001FFF0000000000
00003FFE0000000000
00003FFE0000000000
00007FFC0000000000
00007FFC0000000000
0000FFF80000000000
0000FFF80000000000
0001FFF00000000000
0001FFF00000000000
0003FFF00000000000
0003FFE00000000000
0007FFE00000000000
0007FFC00000000000
000FFFC00000000000
000FFF800000000000
001FFF800000000000
001FFF000000000000
003FFF000000000000
003FFE000000000000
003FFE000000000000
007FFC000000000000
007FFC000000000000
00FFFC000000000000
00FFF8000000000000
01FFF8000000000000
01FFF0000000000000
03FFF0000000000000
03FFE0000000000000
07FFE0000000000000
07FFC0000000000000
0FFFC0000000000000
0FFF80000000000000
1FFF80000000000000
1FFF00000000000000
3FFF00000000000000
3FFE00000000000000
3FFE00000000000000
7FFE00000000000000
FFFC00000000000000
ENDCHAR
STARTCHAR zero
ENCODING 48
SWIDTH 838 0
DWIDTH 128 0
BBX 116 111 6 0
BITMAP
0000000000003FFFC0000000000000
00000000000FFFFFFF000000000000
0000000000FFFFFFFFF00000000000
0000000007FFFFFFFFFE0000000000
000000003FFFFFFFFFFFC000000000
00000000FFFFFFFFFFFFF000000000
00000003FFFFFFFFFFFFFC00000000
0000000FFFFFFFFFFFFFFF00000000
0000003FFFFFFFFFFFFFFFC0000000
000000FFFFFFFFFFFFFFFFF0000000
000001FFFFFFFFFFFFFFFFF8000000
000003FFFFFFFFFFFFFFFFFE000000
00000FFFFFFFFFFFFFFFFFFF000000
00001FFFFFFFFFFFFFFFFFFF800000
00003FFFFFFFFFFFFFFFFFFFC00000
00007FFFFFFFFFFFFFFFFFFFE00000
0000FFFFFFFFFFFFFFFFFFFFF00000
0001FFFFFFFFFFFFFFFFFFFFF80000
0003FFFFFFFFFFFFFFFFFFFFFC0000
0007FFFFFFFFFE07FFFFFFFFFE0000
000FFFFFFFFE000007FFFFFFFF0000
001FFFFFFFF0000000FFFFFFFF8000
001FFFFFFF800000001FFFFFFFC000
003FFFFFFE0000000007FFFFFFC000
007FFFFFF80000000001FFFFFFE000
007FFFFFE000000000007FFFFFF000
00FFFFFFC000000000003FFFFFF000
01FFFFFF0000000000000FFFFFF800
01FFFFFE00000000000007FFFFF800
03FFFFFC00000000000003FFFFFC00
03FFFFF800000000000001FFFFFC00
07FFFFF000000000000000FFFFFE00
07FFFFE0000000000000007FFFFE00
0FFFFFC0000000000000003FFFFF00
0FFFFFC0000000000000003FFFFF00
0FFFFF80000000000000001FFFFF80
1FFFFF00000000000000000FFFFF80
1FFFFF00000000000000000FFFFF80
1FFFFE000000000000000007FFFFC0
3FFFFE000000000000000007FFFFC0
3FFFFE000000000000000007FFFFC0
3FFFFC000000000000000003FFFFC0
3FFFFC000000000000000003FFFFE0
7FFFF8000000000000000001FFFFE0
7FFFF8000000000000000001FFFFE0
7FFFF8000000000000000001FFFFE0
7FFFF8000000000000000001FFFFE0
7FFFF8000000000000000001FFFFE0
7FFFF0000000000000000000FFFFE0
7FFFF0000000000000000000FFFFF0
7FFFF0000000000000000000FFFFF0
FFFFF0000000000000000000FFFFF0
FFFFF0000000000000000000FFFFF0
FFFFF0000000000000000000FFFFF0
FFFFF0000000000000000000FFFFF0
FFFFF0000000000000000000FFFFF0
FFFFF0000000000000000000FFFFF0
FFFFF0000000000000000000FFFFF0
7FFFF0000000000000000000FFFFF0
7FFFF0000000000000000000FFFFF0
7FFFF0000000000000000000FFFFE0
7FFFF0000000000000000000FFFFE0
7FFFF0000000000000000000FFFFE0
7FFFF8000000000000000001FFFFE0
7FFFF8000000000000000001FFFFE0
7FFFF8000000000000000001FFFFE0
3FFFF8000000000000000001FFFFE0
3FFFFC000000000000000003FFFFC0
3FFFFC000000000000000003FFFFC0
3FFFFC000000000000000003FFFFC0
1FFFFE000000000000000007FFFFC0
1FFFFE000000000000000007FFFF80
1FFFFF00000000000000000FFFFF80
0FFFFF00000000000000000FFFFF80
0FFFFF80000000000000001FFFFF00
0FFFFF80000000000000001FFFFF00
07FFFFC0000000000000003FFFFE00
07FFFFE0000000000000007FFFFE00
03FFFFE0000000000000007FFFFE00
03FFFFF000000000000000FFFFFC00
01FFFFF800000000000001FFFFF800
01FFFFFC00000000000003FFFFF800
00FFFFFE00000000000007FFFFF000
00FFFFFF0000000000000FFFFFF000
007FFFFFC000000000003FFFFFE000
003FFFFFE000000000007FFFFFE000
003FFFFFF80000000001FFFFFFC000
001FFFFFFE0000000007FFFFFF8000
000FFFFFFF800000001FFFFFFF0000
000FFFFFFFF0000000FFFFFFFF0000
0007FFFFFFFE000007FFFFFFFE0000
0003FFFFFFFFFF0FFFFFFFFFFC0000
0001FFFFFFFFFFFFFFFFFFFFF80000
0000FFFFFFFFFFFFFFFFFFFFF00000
00007FFFFFFFFFFFFFFFFFFFE00000
00003FFFFFFFFFFFFFFFFFFFC00000
00001FFFFFFFFFFFFFFFFFFF800000
00000FFFFFFFFFFFFFFFFFFF000000
000007FFFFFFFFFFFFFFFFFE000000
000001FFFFFFFFFFFFFFFFF8000000
000000FFFFFFFFFFFFFFFFF0000000
0000003FFFFFFFFFFFFFFFC0000000
0000001FFFFFFFFFFFFFFF80000000
00000007FFFFFFFFFFFFFE00000000
00000001FFFFFFFFFFFFF800000000
000000007FFFFFFFFFFFE000000000
000000001FFFFFFFFFFF8000000000
0000000007FFFFFFFFFC0000000000
0000000000FFFFFFFFF00000000000
00000000000FFFFFFF000000000000
0000000000003FFFC0000000000000
ENDCHAR
STARTCHAR one
ENCODING 49
SWIDTH 385 0
DWIDTH 59 0
BBX 45 111 4 0
BITMAP
FFFFC0000000
FFFFFC000000
FFFFFFC00000
FFFFFFF00000
FFFFFFFC0000
FFFFFFFE0000
FFFFFFFF8000
FFFFFFFFC000
FFFFFFFFE000
FFFFFFFFF000
FFFFFFFFF800
FFFFFFFFFC00
FFFFFFFFFE00
FFFFFFFFFE00
FFFFFFFFFF00
FFFFFFFFFF80
FFFFFFFFFF80
FFFFFFFFFFC0
FFFFFFFFFFC0
000FFFFFFFC0
00007FFFFFE0
00001FFFFFE0
000007FFFFE0
000003FFFFF0
000001FFFFF0
000001FFFFF0
000000FFFFF0
000000FFFFF8
0000007FFFF8
0000007FFFF8
0000007FFFF8
0000003FFFF8
0000003FFFF8
0000003FFFF8
0000003FFFF8
0000003FFFF8
0000003FFFF8
0000003FFFF8
0000003FFFF8
0000003FFFF8
0000003FFFF8
0000003FFFF8
0000003FFFF8
0000003FFFF8
0000003FFFF8
0000003FFFF8
0000003FFFF8
0000003FFFF8
0000003FFFF8
0000003FFFF8
0000003FFFF8
0000003FFFF8
0000003FFFF8
0000003FFFF8
0000003FFFF8
0000003FFFF8
0000003FFFF8
0000003FFFF8
0000003FFFF8
0000003FFFF8
0000003FFFF8
0000003FFFF8
0000003FFFF8
0000003FFFF8
0000003FFFF8
0000003FFFF8
0000003FFFF8
0000003FFFF8
0000003FFFF8
0000003FFFF8
0000003FFFF8
0000003FFFF8
0000003FFFF8
0000003FFFF8
0000003FFFF8
0000003FFFF8
0000003FFFF8
0000003FFFF8
0000003FFFF8
0000003FFFF8
0000003FFFF8
0000003FFFF8
0000003FFFF8
0000003FFFF8
0000003FFFF8
0000003FFFF8
0000003FFFF8
0000003FFFF8
0000003FFFF8
0000003FFFF8
0000003FFFF8
0000003FFFF8
0000003FFFF8
0000003FFFF8
0000003FFFF8
0000003FFFF8
0000003FFFF8
0000003FFFF8
0000003FFFF8
0000003FFFF8
0000003FFFF8
0000003FFFF8
0000003FFFF8
0000003FFFF8
0000003FFFF8
0000003FFFF8
0000003FFFF8
0000003FFFF8
0000003FFFF8
0000003FFFF8
0000003FFFF8
ENDCHAR
STARTCHAR two
ENCODING 50
SWIDTH 825 0
DWIDTH 126 0
BBX 108 111 10 0
BITMAP
7FFFFFFFFFFFFFFFFFFF80000000
7FFFFFFFFFFFFFFFFFFFFC000000
7FFFFFFFFFFFFFFFFFFFFF800000
7FFFFFFFFFFFFFFFFFFFFFE00000
7FFFFFFFFFFFFFFFFFFFFFF80000
7FFFFFFFFFFFFFFFFFFFFFFE0000
7FFFFFFFFFFFFFFFFFFFFFFF8000
7FFFFFFFFFFFFFFFFFFFFFFFC000
7FFFFFFFFFFFFFFFFFFFFFFFE000
7FFFFFFFFFFFFFFFFFFFFFFFF000
7FFFFFFFFFFFFFFFFFFFFFFFF800
7FFFFFFFFFFFFFFFFFFFFFFFFC00
7FFFFFFFFFFFFFFFFFFFFFFFFE00
7FFFFFFFFFFFFFFFFFFFFFFFFE00
7FFFFFFFFFFFFFFFFFFFFFFFFF00
7FFFFFFFFFFFFFFFFFFFFFFFFF80
7FFFFFFFFFFFFFFFFFFFFFFFFF80
7FFFFFFFFFFFFFFFFFFFFFFFFFC0
7FFFFFFFFFFFFFFFFFFFFFFFFFC0
0000000000000000001FFFFFFFC0
00000000000000000000FFFFFFE0
000000000000000000003FFFFFE0
000000000000000000000FFFFFE0
0000000000000000000007FFFFE0
0000000000000000000003FFFFF0
0000000000000000000003FFFFF0
0000000000000000000001FFFFF0
0000000000000000000001FFFFF0
0000000000000000000000FFFFF0
0000000000000000000000FFFFF0
0000000000000000000000FFFFF0
0000000000000000000000FFFFF0
0000000000000000000000FFFFF0
0000000000000000000000FFFFF0
0000000000000000000000FFFFF0
0000000000000000000000FFFFF0
0000000000000000000000FFFFF0
0000000000000000000000FFFFF0
0000000000000000000001FFFFF0
0000000000000000000001FFFFE0
0000000000000000000001FFFFE0
0000000000000000000003FFFFE0
0000000000000000000007FFFFC0
000000000000000000000FFFFFC0
000000000000000000001FFFFFC0
000000000000000000007FFFFF80
00000000000000000001FFFFFF80
0000003FFFFFFFFFFFFFFFFFFF00
000007FFFFFFFFFFFFFFFFFFFF00
00003FFFFFFFFFFFFFFFFFFFFE00
0001FFFFFFFFFFFFFFFFFFFFFC00
0007FFFFFFFFFFFFFFFFFFFFFC00
001FFFFFFFFFFFFFFFFFFFFFF800
003FFFFFFFFFFFFFFFFFFFFFF000
007FFFFFFFFFFFFFFFFFFFFFE000
00FFFFFFFFFFFFFFFFFFFFFFC000
01FFFFFFFFFFFFFFFFFFFFFF0000
03FFFFFFFFFFFFFFFFFFFFFE0000
07FFFFFFFFFFFFFFFFFFFFF80000
0FFFFFFFFFFFFFFFFFFFFFE00000
0FFFFFFFFFFFFFFFFFFFFF800000
1FFFFFFFFFFFFFFFFFFFFC000000
1FFFFFFFFFFFFFFFFFFF80000000
3FFFFFF000000000000000000000
3FFFFF8000000000000000000000
3FFFFE0000000000000000000000
7FFFFC0000000000000000000000
7FFFF80000000000000000000000
7FFFF00000000000000000000000
FFFFF00000000000000000000000
FFFFE00000000000000000000000
FFFFE00000000000000000000000
FFFFE00000000000000000000000
FFFFC00000000000000000000000
FFFFC00000000000000000000000
FFFFC00000000000000000000000
FFFFC00000000000000000000000
FFFFC00000000000000000000000
FFFFC00000000000000000000000
FFFFC00000000000000000000000
FFFFC00000000000000000000000
FFFFC00000000000000000000000
FFFFC00000000000000000000000
FFFFC00000000000000000000000
FFFFC00000000000000000000000
FFFFC00000000000000000000000
FFFFC00000000000000000000000
FFFFC00000000000000000000000
FFFFC00000000000000000000000
FFFFC00000000000000000000000
FFFFC00000000000000000000000
FFFFC00000000000000000000000
FFFFFFFFFFFFFFFFFFFFFFFFFFC0
FFFFFFFFFFFFFFFFFFFFFFFFFFC0
FFFFFFFFFFFFFFFFFFFFFFFFFFC0
FFFFFFFFFFFFFFFFFFFFFFFFFFC0
FFFFFFFFFFFFFFFFFFFFFFFFFFC0
FFFFFFFFFFFFFFFFFFFFFFFFFFC0
FFFFFFFFFFFFFFFFFFFFFFFFFFC0
FFFFFFFFFFFFFFFFFFFFFFFFFFC0
FFFFFFFFFFFFFFFFFFFFFFFFFFC0
FFFFFFFFFFFFFFFFFFFFFFFFFFC0
FFFFFFFFFFFFFFFFFFFFFFFFFFC0
FFFFFFFFFFFFFFFFFFFFFFFFFFC0
FFFFFFFFFFFFFFFFFFFFFFFFFFC0
FFFFFFFFFFFFFFFFFFFFFFFFFFC0
FFFFFFFFFFFFFFFFFFFFFFFFFFC0
FFFFFFFFFFFFFFFFFFFFFFFFFFC0
FFFFFFFFFFFFFFFFFFFFFFFFFFC0
FFFFFFFFFFFFFFFFFFFFFFFFFFC0
FFFFFFFFFFFFFFFFFFFFFFFFFFC0
ENDCHAR
STARTCHAR three
ENCODING 51
SWIDTH 827 0
DWIDTH 127 0
BBX 112 111 7 0
BITMAP
FFFFFFFFFFFFFFFFFFFFC0000000
FFFFFFFFFFFFFFFFFFFFFE000000
FFFFFFFFFFFFFFFFFFFFFFE00000
FFFFFFFFFFFFFFFFFFFFFFF80000
FFFFFFFFFFFFFFFFFFFFFFFF0000
FFFFFFFFFFFFFFFFFFFFFFFF8000
FFFFFFFFFFFFFFFFFFFFFFFFE000
FFFFFFFFFFFFFFFFFFFFFFFFF000
FFFFFFFFFFFFFFFFFFFFFFFFFC00
FFFFFFFFFFFFFFFFFFFFFFFFFE00
FFFFFFFFFFFFFFFFFFFFFFFFFF00
FFFFFFFFFFFFFFFFFFFFFFFFFF00
FFFFFFFFFFFFFFFFFFFFFFFFFF80
FFFFFFFFFFFFFFFFFFFFFFFFFFC0
FFFFFFFFFFFFFFFFFFFFFFFFFFC0
FFFFFFFFFFFFFFFFFFFFFFFFFFE0
FFFFFFFFFFFFFFFFFFFFFFFFFFE0
FFFFFFFFFFFFFFFFFFFFFFFFFFF0
FFFFFFFFFFFFFFFFFFFFFFFFFFF0
000000000000000000FFFFFFFFF8
00000000000000000000FFFFFFF8
000000000000000000001FFFFFF8
0000000000000000000007FFFFF8
0000000000000000000001FFFFF8
0000000000000000000000FFFFFC
0000000000000000000000FFFFFC
00000000000000000000007FFFFC
00000000000000000000007FFFFC
00000000000000000000003FFFFC
00000000000000000000003FFFFC
00000000000000000000003FFFFC
00000000000000000000003FFFFC
00000000000000000000003FFFFC
00000000000000000000003FFFFC
00000000000000000000003FFFFC
00000000000000000000003FFFF8
00000000000000000000003FFFF8
00000000000000000000003FFFF8
00000000000000000000003FFFF8
00000000000000000000007FFFF0
00000000000000000000007FFFF0
0000000000000000000000FFFFF0
0000000000000000000000FFFFE0
0000000000000000000001FFFFE0
0000000000000000000007FFFFC0
000000000000000000000FFFFF80
00000000000000000000FFFFFF00
0000003FFFFFFFFFFFFFFFFFFE00
0000003FFFFFFFFFFFFFFFFFFC00
0000003FFFFFFFFFFFFFFFFFF800
0000003FFFFFFFFFFFFFFFFFF000
0000003FFFFFFFFFFFFFFFFFC000
0000003FFFFFFFFFFFFFFFFF0000
0000003FFFFFFFFFFFFFFFFF0000
0000003FFFFFFFFFFFFFFFFFC000
0000003FFFFFFFFFFFFFFFFFF000
0000003FFFFFFFFFFFFFFFFFFC00
0000003FFFFFFFFFFFFFFFFFFE00
0000003FFFFFFFFFFFFFFFFFFF00
0000003FFFFFFFFFFFFFFFFFFF80
0000003FFFFFFFFFFFFFFFFFFFC0
0000003FFFFFFFFFFFFFFFFFFFE0
0000003FFFFFFFFFFFFFFFFFFFF0
000000000000000000007FFFFFF0
000000000000000000000FFFFFF8
0000000000000000000003FFFFF8
0000000000000000000000FFFFFC
00000000000000000000007FFFFC
00000000000000000000003FFFFE
00000000000000000000003FFFFE
00000000000000000000001FFFFE
00000000000000000000001FFFFE
00000000000000000000000FFFFF
00000000000000000000000FFFFF
00000000000000000000000FFFFF
00000000000000000000000FFFFF
00000000000000000000000FFFFF
00000000000000000000000FFFFF
00000000000000000000000FFFFF
00000000000000000000000FFFFF
00000000000000000000000FFFFF
00000000000000000000000FFFFF
00000000000000000000001FFFFF
00000000000000000000001FFFFF
00000000000000000000003FFFFE
00000000000000000000007FFFFE
0000000000000000000000FFFFFE
0000000000000000000001FFFFFE
0000000000000000000003FFFFFE
000000000000000000001FFFFFFC
000000000000000000007FFFFFFC
0000000000000000007FFFFFFFF8
FFFFFFFFFFFFFFFFFFFFFFFFFFF8
FFFFFFFFFFFFFFFFFFFFFFFFFFF8
FFFFFFFFFFFFFFFFFFFFFFFFFFF0
FFFFFFFFFFFFFFFFFFFFFFFFFFE0
FFFFFFFFFFFFFFFFFFFFFFFFFFE0
FFFFFFFFFFFFFFFFFFFFFFFFFFC0
FFFFFFFFFFFFFFFFFFFFFFFFFF80
FFFFFFFFFFFFFFFFFFFFFFFFFF80
FFFFFFFFFFFFFFFFFFFFFFFFFF00
FFFFFFFFFFFFFFFFFFFFFFFFFE00
FFFFFFFFFFFFFFFFFFFFFFFFFC00
FFFFFFFFFFFFFFFFFFFFFFFFF000
FFFFFFFFFFFFFFFFFFFFFFFFE000
FFFFFFFFFFFFFFFFFFFFFFFF8000
FFFFFFFFFFFFFFFFFFFFFFFF0000
FFFFFFFFFFFFFFFFFFFFFFFC0000
FFFFFFFFFFFFFFFFFFFFFFE00000
FFFFFFFFFFFFFFFFFFFFFF000000
FFFFFFFFFFFFFFFFFFFFE0000000
ENDCHAR
STARTCHAR four
ENCODING 52
SWIDTH 845 0
DWIDTH 129 0
BBX 118 111 7 0
BITMAP
FFFFF0000000000000001FFFFC0000
FFFFF0000000000000001FFFFC0000
FFFFF0000000000000001FFFFC0000
FFFFF0000000000000001FFFFC0000
FFFFF0000000000000001FFFFC0000
FFFFF0000000000000001FFFFC0000
FFFFF0000000000000001FFFFC0000
FFFFF0000000000000001FFFFC0000
FFFFF0000000000000001FFFFC0000
FFFFF0000000000000001FFFFC0000
FFFFF0000000000000001FFFFC0000
FFFFF0000000000000001FFFFC0000
FFFFF0000000000000001FFFFC0000
FFFFF0000000000000001FFFFC0000
FFFFF0000000000000001FFFFC0000
FFFFF0000000000000001FFFFC0000
FFFFF0000000000000001FFFFC0000
FFFFF0000000000000001FFFFC0000
FFFFF0000000000000001FFFFC0000
FFFFF0000000000000001FFFFC0000
FFFFF0000000000000001FFFFC0000
FFFFF0000000000000001FFFFC0000
FFFFF0000000000000001FFFFC0000
FFFFF0000000000000001FFFFC0000
FFFFF0000000000000001FFFFC0000
FFFFF0000000000000001FFFFC0000
FFFFF0000000000000001FFFFC0000
FFFFF0000000000000001FFFFC0000
FFFFF0000000000000001FFFFC0000
FFFFF0000000000000001FFFFC0000
FFFFF0000000000000001FFFFC0000
FFFFF0000000000000001FFFFC0000
FFFFF0000000000000001FFFFC0000
FFFFF0000000000000001FFFFC0000
FFFFF0000000000000001FFFFC0000
FFFFF0000000000000001FFFFC0000
FFFFF0000000000000001FFFFC0000
FFFFF0000000000000001FFFFC0000
FFFFF0000000000000001FFFFC0000
FFFFF0000000000000001FFFFC0000
FFFFF0000000000000001FFFFC0000
FFFFF0000000000000001FFFFC0000
FFFFF0000000000000001FFFFC0000
FFFFF0000000000000001FFFFC0000
FFFFF0000000000000001FFFFC0000
FFFFF0000000000000001FFFFC0000
FFFFF0000000000000001FFFFC0000
FFFFF0000000000000001FFFFC0000
FFFFF0000000000000001FFFFC0000
FFFFF0000000000000001FFFFC0000
FFFFF0000000000000001FFFFC0000
7FFFF0000000000000001FFFFC0000
7FFFF0000000000000001FFFFC0000
7FFFF8000000000000001FFFFC0000
7FFFF8000000000000001FFFFC0000
7FFFF8000000000000001FFFFC0000
7FFFFC000000000000001FFFFC0000
7FFFFC000000000000001FFFFC0000
3FFFFE000000000000001FFFFC0000
3FFFFF000000000000001FFFFC0000
3FFFFFC00000000000001FFFFC0000
3FFFFFF00000000000001FFFFC0000
1FFFFFFE0000000000001FFFFC0000
1FFFFFFFFFFFFFFFFFFFFFFFFFFFFC
0FFFFFFFFFFFFFFFFFFFFFFFFFFFFC
0FFFFFFFFFFFFFFFFFFFFFFFFFFFFC
07FFFFFFFFFFFFFFFFFFFFFFFFFFFC
07FFFFFFFFFFFFFFFFFFFFFFFFFFFC
03FFFFFFFFFFFFFFFFFFFFFFFFFFFC
03FFFFFFFFFFFFFFFFFFFFFFFFFFFC
01FFFFFFFFFFFFFFFFFFFFFFFFFFFC
00FFFFFFFFFFFFFFFFFFFFFFFFFFFC
007FFFFFFFFFFFFFFFFFFFFFFFFFFC
003FFFFFFFFFFFFFFFFFFFFFFFFFFC
001FFFFFFFFFFFFFFFFFFFFFFFFFFC
000FFFFFFFFFFFFFFFFFFFFFFFFFFC
0003FFFFFFFFFFFFFFFFFFFFFFFFFC
0000FFFFFFFFFFFFFFFFFFFFFFFFFC
00003FFFFFFFFFFFFFFFFFFFFFFFFC
00000FFFFFFFFFFFFFFFFFFFFFFFFC
000001FFFFFFFFFFFFFFFFFFFFFFFC
00000007FFFFFFFFFFFFFFFFFFFFFC
000000000000000000001FFFFC0000
000000000000000000001FFFFC0000
000000000000000000001FFFFC0000
000000000000000000001FFFFC0000
000000000000000000001FFFFC0000
000000000000000000001FFFFC0000
000000000000000000001FFFFC0000
000000000000000000001FFFFC0000
000000000000000000001FFFFC0000
000000000000000000001FFFFC0000
000000000000000000001FFFFC0000
000000000000000000001FFFFC0000
000000000000000000001FFFFC0000
000000000000000000001FFFFC0000
000000000000000000001FFFFC0000
000000000000000000001FFFFC0000
000000000000000000001FFFFC0000
000000000000000000001FFFFC0000
000000000000000000001FFFFC0000
000000000000000000001FFFFC0000
000000000000000000001FFFFC0000
000000000000000000001FFFFC0000
000000000000000000001FFFFC0000
000000000000000000001FFFFC0000
000000000000000000001FFFFC0000
000000000000000000001FFFFC0000
000000000000000000001FFFFC0000
000000000000000000001FFFFC0000
000000000000000000001FFFFC0000
ENDCHAR
STARTCHAR five
ENCODING 53
SWIDTH 885 0
DWIDTH 135 0
BBX 117 111 10 0
BITMAP
FFFFFFFFFFFFFFFFFFFFFFFFFFFF00
FFFFFFFFFFFFFFFFFFFFFFFFFFFF00
FFFFFFFFFFFFFFFFFFFFFFFFFFFF00
FFFFFFFFFFFFFFFFFFFFFFFFFFFF00
FFFFFFFFFFFFFFFFFFFFFFFFFFFF00
FFFFFFFFFFFFFFFFFFFFFFFFFFFF00
FFFFFFFFFFFFFFFFFFFFFFFFFFFF00
FFFFFFFFFFFFFFFFFFFFFFFFFFFF00
FFFFFFFFFFFFFFFFFFFFFFFFFFFF00
FFFFFFFFFFFFFFFFFFFFFFFFFFFF00
FFFFFFFFFFFFFFFFFFFFFFFFFFFF00
FFFFFFFFFFFFFFFFFFFFFFFFFFFF00
FFFFFFFFFFFFFFFFFFFFFFFFFFFF00
FFFFFFFFFFFFFFFFFFFFFFFFFFFF00
FFFFFFFFFFFFFFFFFFFFFFFFFFFF00
FFFFFFFFFFFFFFFFFFFFFFFFFFFF00
FFFFFFFFFFFFFFFFFFFFFFFFFFFF00
FFFFFFFFFFFFFFFFFFFFFFFFFFFF00
FFFFFFFFFFFFFFFFFFFFFFFFFFFF00
FFFFF0000000000000000000000000
FFFFF0000000000000000000000000
FFFFF0000000000000000000000000
FFFFF0000000000000000000000000
FFFFF0000000000000000000000000
FFFFF0000000000000000000000000
FFFFF0000000000000000000000000
FFFFF0000000000000000000000000
FFFFF0000000000000000000000000
FFFFF0000000000000000000000000
FFFFF0000000000000000000000000
FFFFF0000000000000000000000000
FFFFF0000000000000000000000000
FFFFF0000000000000000000000000
FFFFF0000000000000000000000000
FFFFF0000000000000000000000000
FFFFF0000000000000000000000000
FFFFF0000000000000000000000000
FFFFF0000000000000000000000000
FFFFF0000000000000000000000000
FFFFF0000000000000000000000000
FFFFF0000000000000000000000000
FFFFF0000000000000000000000000
FFFFF0000000000000000000000000
FFFFF0000000000000000000000000
FFFFF0000000000000000000000000
FFFFF0000000000000000000000000
FFFFF0000000000000000000000000
FFFFFFFFFFFFFFFFFFFFFFE0000000
FFFFFFFFFFFFFFFFFFFFFFFF000000
FFFFFFFFFFFFFFFFFFFFFFFFE00000
FFFFFFFFFFFFFFFFFFFFFFFFFC0000
FFFFFFFFFFFFFFFFFFFFFFFFFF0000
FFFFFFFFFFFFFFFFFFFFFFFFFFC000
FFFFFFFFFFFFFFFFFFFFFFFFFFE000
FFFFFFFFFFFFFFFFFFFFFFFFFFF000
FFFFFFFFFFFFFFFFFFFFFFFFFFF800
FFFFFFFFFFFFFFFFFFFFFFFFFFFC00
FFFFFFFFFFFFFFFFFFFFFFFFFFFE00
FFFFFFFFFFFFFFFFFFFFFFFFFFFF00
FFFFFFFFFFFFFFFFFFFFFFFFFFFF80
FFFFFFFFFFFFFFFFFFFFFFFFFFFF80
FFFFFFFFFFFFFFFFFFFFFFFFFFFFC0
FFFFFFFFFFFFFFFFFFFFFFFFFFFFC0
0000000000000000000000FFFFFFE0
00000000000000000000000FFFFFE0
000000000000000000000007FFFFF0
000000000000000000000001FFFFF0
000000000000000000000000FFFFF0
0000000000000000000000007FFFF0
0000000000000000000000007FFFF8
0000000000000000000000003FFFF8
0000000000000000000000003FFFF8
0000000000000000000000001FFFF8
0000000000000000000000001FFFF8
0000000000000000000000001FFFF8
0000000000000000000000001FFFF8
0000000000000000000000001FFFF8
0000000000000000000000001FFFF8
0000000000000000000000001FFFF8
0000000000000000000000001FFFF8
0000000000000000000000001FFFF8
0000000000000000000000001FFFF8
0000000000000000000000003FFFF8
0000000000000000000000003FFFF8
0000000000000000000000007FFFF8
0000000000000000000000007FFFF8
000000000000000000000000FFFFF8
000000000000000000000001FFFFF8
000000000000000000000003FFFFF0
00000000000000000000000FFFFFF0
00000000000000000000003FFFFFF0
000000000000000000000FFFFFFFE0
FFFFFFFFFFFFFFFFFFFFFFFFFFFFE0
FFFFFFFFFFFFFFFFFFFFFFFFFFFFE0
FFFFFFFFFFFFFFFFFFFFFFFFFFFFC0
FFFFFFFFFFFFFFFFFFFFFFFFFFFFC0
FFFFFFFFFFFFFFFFFFFFFFFFFFFF80
FFFFFFFFFFFFFFFFFFFFFFFFFFFF00
FFFFFFFFFFFFFFFFFFFFFFFFFFFF00
FFFFFFFFFFFFFFFFFFFFFFFFFFFE00
FFFFFFFFFFFFFFFFFFFFFFFFFFFC00
FFFFFFFFFFFFFFFFFFFFFFFFFFF800
FFFFFFFFFFFFFFFFFFFFFFFFFFF000
FFFFFFFFFFFFFFFFFFFFFFFFFFE000
FFFFFFFFFFFFFFFFFFFFFFFFFFC000
FFFFFFFFFFFFFFFFFFFFFFFFFF0000
FFFFFFFFFFFFFFFFFFFFFFFFFE0000
FFFFFFFFFFFFFFFFFFFFFFFFF80000
FFFFFFFFFFFFFFFFFFFFFFFFC00000
FFFFFFFFFFFFFFFFFFFFFFFE000000
FFFFFFFFFFFFFFFFFFFFFFC0000000
ENDCHAR
STARTCHAR six
ENCODING 54
SWIDTH 872 0
DWIDTH 133 0
BBX 119 111 6 0
BITMAP
00000000003FFFFFFFFFFFFFFFFFE0
000000000FFFFFFFFFFFFFFFFFFFE0
00000000FFFFFFFFFFFFFFFFFFFFE0
00000007FFFFFFFFFFFFFFFFFFFFE0
0000003FFFFFFFFFFFFFFFFFFFFFE0
000000FFFFFFFFFFFFFFFFFFFFFFE0
000003FFFFFFFFFFFFFFFFFFFFFFE0
000007FFFFFFFFFFFFFFFFFFFFFFE0
00001FFFFFFFFFFFFFFFFFFFFFFFE0
00003FFFFFFFFFFFFFFFFFFFFFFFE0
00007FFFFFFFFFFFFFFFFFFFFFFFE0
0000FFFFFFFFFFFFFFFFFFFFFFFFE0
0003FFFFFFFFFFFFFFFFFFFFFFFFE0
0007FFFFFFFFFFFFFFFFFFFFFFFFE0
0007FFFFFFFFFFFFFFFFFFFFFFFFE0
000FFFFFFFFFFFFFFFFFFFFFFFFFE0
001FFFFFFFFFFFFFFFFFFFFFFFFFE0
003FFFFFFFFFFFFFFFFFFFFFFFFFE0
007FFFFFFFFFFFFFFFFFFFFFFFFFE0
007FFFFFFFFF800000000000000000
00FFFFFFFF80000000000000000000
00FFFFFFFC00000000000000000000
01FFFFFFE000000000000000000000
03FFFFFF8000000000000000000000
03FFFFFE0000000000000000000000
03FFFFFC0000000000000000000000
07FFFFF80000000000000000000000
07FFFFF00000000000000000000000
0FFFFFE00000000000000000000000
0FFFFFC00000000000000000000000
0FFFFFC00000000000000000000000
1FFFFF800000000000000000000000
1FFFFF000000000000000000000000
1FFFFF000000000000000000000000
1FFFFE000000000000000000000000
3FFFFE000000000000000000000000
3FFFFE000000000000000000000000
3FFFFC000000000000000000000000
3FFFFC000000000000000000000000
3FFFFC000000000000000000000000
7FFFF8000000000000000000000000
7FFFF8000000000000000000000000
7FFFF8000000000000000000000000
7FFFF8000000000000000000000000
7FFFF8000000000000000000000000
7FFFF0000000000000000000000000
7FFFFFFFFFFFFFFFFFFFFFF8000000
7FFFFFFFFFFFFFFFFFFFFFFFC00000
7FFFFFFFFFFFFFFFFFFFFFFFFC0000
FFFFFFFFFFFFFFFFFFFFFFFFFF0000
FFFFFFFFFFFFFFFFFFFFFFFFFFC000
FFFFFFFFFFFFFFFFFFFFFFFFFFF000
FFFFFFFFFFFFFFFFFFFFFFFFFFF800
FFFFFFFFFFFFFFFFFFFFFFFFFFFC00
FFFFFFFFFFFFFFFFFFFFFFFFFFFE00
FFFFFFFFFFFFFFFFFFFFFFFFFFFF00
FFFFFFFFFFFFFFFFFFFFFFFFFFFF80
FFFFFFFFFFFFFFFFFFFFFFFFFFFFC0
FFFFFFFFFFFFFFFFFFFFFFFFFFFFE0
7FFFFFFFFFFFFFFFFFFFFFFFFFFFE0
7FFFFFFFFFFFFFFFFFFFFFFFFFFFF0
7FFFFFFFFFFFFFFFFFFFFFFFFFFFF0
7FFFFFFFFFFFFFFFFFFFFFFFFFFFF8
7FFFF000000000000000007FFFFFF8
7FFFF0000000000000000007FFFFFC
7FFFF0000000000000000001FFFFFC
7FFFF8000000000000000000FFFFFC
7FFFF80000000000000000003FFFFC
7FFFF80000000000000000003FFFFE
3FFFF80000000000000000001FFFFE
3FFFF80000000000000000001FFFFE
3FFFFC0000000000000000000FFFFE
3FFFFC0000000000000000000FFFFE
3FFFFC0000000000000000000FFFFE
1FFFFE00000000000000000007FFFE
1FFFFE00000000000000000007FFFE
1FFFFE00000000000000000007FFFE
1FFFFF00000000000000000007FFFE
0FFFFF00000000000000000007FFFE
0FFFFF8000000000000000000FFFFE
0FFFFFC000000000000000000FFFFE
07FFFFC000000000000000000FFFFE
07FFFFE000000000000000000FFFFE
07FFFFF000000000000000001FFFFE
03FFFFF800000000000000001FFFFE
03FFFFFC00000000000000003FFFFE
01FFFFFF00000000000000007FFFFC
01FFFFFF80000000000000007FFFFC
00FFFFFFE000000000000001FFFFFC
00FFFFFFFC00000000000003FFFFFC
007FFFFFFF8000000000001FFFFFF8
003FFFFFFFFFC000000007FFFFFFF8
003FFFFFFFFFFFFFFFFFFFFFFFFFF8
001FFFFFFFFFFFFFFFFFFFFFFFFFF0
000FFFFFFFFFFFFFFFFFFFFFFFFFF0
0007FFFFFFFFFFFFFFFFFFFFFFFFE0
0007FFFFFFFFFFFFFFFFFFFFFFFFE0
0003FFFFFFFFFFFFFFFFFFFFFFFFC0
0001FFFFFFFFFFFFFFFFFFFFFFFF80
0000FFFFFFFFFFFFFFFFFFFFFFFF80
00003FFFFFFFFFFFFFFFFFFFFFFF00
00001FFFFFFFFFFFFFFFFFFFFFFE00
00000FFFFFFFFFFFFFFFFFFFFFFC00
000003FFFFFFFFFFFFFFFFFFFFF800
000001FFFFFFFFFFFFFFFFFFFFF000
0000007FFFFFFFFFFFFFFFFFFFC000
0000001FFFFFFFFFFFFFFFFFFF8000
00000003FFFFFFFFFFFFFFFFFE0000
000000007FFFFFFFFFFFFFFFF00000
000000000FFFFFFFFFFFFFFF800000
00000000003FFFFFFFFFFFF0000000
ENDCHAR
STARTCHAR seven
ENCODING 55
SWIDTH 756 0
DWIDTH 116 0
BBX 105 111 7 0
BITMAP
FFFFFFFFFFFFFFFFFFFFFFFFC000
FFFFFFFFFFFFFFFFFFFFFFFFF800
FFFFFFFFFFFFFFFFFFFFFFFFFC00
FFFFFFFFFFFFFFFFFFFFFFFFFE00
FFFFFFFFFFFFFFFFFFFFFFFFFF00
FFFFFFFFFFFFFFFFFFFFFFFFFF80
FFFFFFFFFFFFFFFFFFFFFFFFFF80
FFFFFFFFFFFFFFFFFFFFFFFFFF80
FFFFFFFFFFFFFFFFFFFFFFFFFF80
FFFFFFFFFFFFFFFFFFFFFFFFFF80
FFFFFFFFFFFFFFFFFFFFFFFFFF80
FFFFFFFFFFFFFFFFFFFFFFFFFF80
FFFFFFFFFFFFFFFFFFFFFFFFFF80
FFFFFFFFFFFFFFFFFFFFFFFFFF80
FFFFFFFFFFFFFFFFFFFFFFFFFF00
FFFFFFFFFFFFFFFFFFFFFFFFFF00
FFFFFFFFFFFFFFFFFFFFFFFFFE00
FFFFFFFFFFFFFFFFFFFFFFFFFC00
FFFFFFFFFFFFFFFFFFFFFFFFFC00
00000000000000000007FFFFF800
0000000000000000000FFFFFF000
0000000000000000001FFFFFE000
0000000000000000003FFFFFC000
0000000000000000007FFFFFC000
000000000000000000FFFFFF8000
000000000000000000FFFFFF0000
000000000000000001FFFFFE0000
000000000000000003FFFFFC0000
000000000000000007FFFFF80000
00000000000000000FFFFFF80000
00000000000000001FFFFFF00000
00000000000000001FFFFFE00000
00000000000000003FFFFFC00000
00000000000000007FFFFF800000
0000000000000000FFFFFF800000
0000000000000001FFFFFF000000
0000000000000003FFFFFE000000
0000000000000003FFFFFC000000
0000000000000007FFFFF8000000
000000000000000FFFFFF0000000
000000000000001FFFFFF0000000
000000000000003FFFFFE0000000
000000000000003FFFFFC0000000
000000000000007FFFFF80000000
00000000000000FFFFFF00000000
00000000000001FFFFFF00000000
00000000000003FFFFFE00000000
00000000000007FFFFFC00000000
00000000000007FFFFF800000000
0000000000000FFFFFF000000000
0000000000001FFFFFE000000000
0000000000003FFFFFE000000000
0000000000007FFFFFC000000000
000000000000FFFFFF8000000000
000000000000FFFFFF0000000000
000000000001FFFFFE0000000000
000000000003FFFFFE0000000000
000000000007FFFFFC0000000000
00000000000FFFFFF80000000000
00000000001FFFFFF00000000000
00000000001FFFFFE00000000000
00000000003FFFFFC00000000000
00000000007FFFFFC00000000000
0000000000FFFFFF800000000000
0000000001FFFFFF000000000000
0000000003FFFFFE000000000000
0000000003FFFFFC000000000000
0000000007FFFFFC000000000000
000000000FFFFFF8000000000000
000000001FFFFFF0000000000000
000000003FFFFFE0000000000000
000000007FFFFFC0000000000000
000000007FFFFF80000000000000
00000000FFFFFF80000000000000
00000001FFFFFF00000000000000
00000003FFFFFE00000000000000
00000007FFFFFC00000000000000
0000000FFFFFF800000000000000
0000000FFFFFF800000000000000
0000001FFFFFF000000000000000
0000003FFFFFE000000000000000
0000007FFFFFC000000000000000
000000FFFFFF8000000000000000
000001FFFFFF0000000000000000
000001FFFFFF0000000000000000
000003FFFFFE0000000000000000
000007FFFFFC0000000000000000
00000FFFFFF80000000000000000
00001FFFFFF00000000000000000
00003FFFFFF00000000000000000
00003FFFFFE00000000000000000
00007FFFFFC00000000000000000
0000FFFFFF800000000000000000
0001FFFFFF000000000000000000
0003FFFFFE000000000000000000
0003FFFFFE000000000000000000
0007FFFFFC000000000000000000
000FFFFFF8000000000000000000
001FFFFFF0000000000000000000
003FFFFFE0000000000000000000
007FFFFFE0000000000000000000
007FFFFFC0000000000000000000
00FFFFFF80000000000000000000
01FFFFFF00000000000000000000
03FFFFFE00000000000000000000
07FFFFFC00000000000000000000
0FFFFFFC00000000000000000000
0FFFFFF800000000000000000000
1FFFFFF000000000000000000000
3FFFFFE000000000000000000000
7FFFFFC000000000000000000000
ENDCHAR
STARTCHAR eight
ENCODING 56
SWIDTH 898 0
DWIDTH 137 0
BBX 122 111 8 0
BITMAP
00000003FFFFFFFFFFFFFFF000000000
000000FFFFFFFFFFFFFFFFFF80000000
000007FFFFFFFFFFFFFFFFFFF8000000
00003FFFFFFFFFFFFFFFFFFFFE000000
0000FFFFFFFFFFFFFFFFFFFFFF800000
0003FFFFFFFFFFFFFFFFFFFFFFE00000
0007FFFFFFFFFFFFFFFFFFFFFFF80000
000FFFFFFFFFFFFFFFFFFFFFFFFC0000
003FFFFFFFFFFFFFFFFFFFFFFFFE0000
007FFFFFFFFFFFFFFFFFFFFFFFFF0000
00FFFFFFFFFFFFFFFFFFFFFFFFFF8000
01FFFFFFFFFFFFFFFFFFFFFFFFFFC000
01FFFFFFFFFFFFFFFFFFFFFFFFFFE000
03FFFFFFFFFFFFFFFFFFFFFFFFFFE000
07FFFFFFFFFFFFFFFFFFFFFFFFFFF000
07FFFFFFFFFFFFFFFFFFFFFFFFFFF800
0FFFFFFFFFFFFFFFFFFFFFFFFFFFF800
0FFFFFFFFFFFFFFFFFFFFFFFFFFFF800
0FFFFFFFFFFFFFFFFFFFFFFFFFFFFC00
1FFFFFFFFE00000000003FFFFFFFFC00
1FFFFFFE000000000000003FFFFFFE00
1FFFFFF80000000000000007FFFFFE00
1FFFFFE00000000000000001FFFFFE00
3FFFFF800000000000000000FFFFFE00
3FFFFF0000000000000000007FFFFE00
3FFFFE0000000000000000003FFFFE00
3FFFFE0000000000000000003FFFFF00
3FFFFC0000000000000000001FFFFF00
3FFFFC0000000000000000001FFFFF00
3FFFFC0000000000000000001FFFFF00
3FFFFC0000000000000000000FFFFF00
3FFFFC0000000000000000000FFFFF00
3FFFFC0000000000000000000FFFFE00
3FFFFC0000000000000000000FFFFE00
3FFFFC0000000000000000000FFFFE00
3FFFFC0000000000000000000FFFFE00
1FFFFC0000000000000000000FFFFE00
1FFFFC0000000000000000001FFFFE00
1FFFFC0000000000000000001FFFFC00
1FFFFC0000000000000000001FFFFC00
0FFFFE0000000000000000001FFFFC00
0FFFFE0000000000000000003FFFF800
07FFFF0000000000000000007FFFF800
07FFFF800000000000000000FFFFF000
03FFFFC00000000000000001FFFFF000
01FFFFF00000000000000007FFFFE000
01FFFFFF000000000000003FFFFFC000
00FFFFFFFFFFFFFFFFFFFFFFFFFF8000
007FFFFFFFFFFFFFFFFFFFFFFFFF0000
001FFFFFFFFFFFFFFFFFFFFFFFFE0000
000FFFFFFFFFFFFFFFFFFFFFFFF80000
0003FFFFFFFFFFFFFFFFFFFFFFF00000
0000FFFFFFFFFFFFFFFFFFFFFF800000
0000FFFFFFFFFFFFFFFFFFFFFFC00000
0007FFFFFFFFFFFFFFFFFFFFFFF00000
000FFFFFFFFFFFFFFFFFFFFFFFFC0000
003FFFFFFFFFFFFFFFFFFFFFFFFE0000
007FFFFFFFFFFFFFFFFFFFFFFFFF8000
00FFFFFFFFFFFFFFFFFFFFFFFFFFC000
01FFFFFFFFFFFFFFFFFFFFFFFFFFE000
03FFFFFFFFFFFFFFFFFFFFFFFFFFF000
07FFFFFFFFFFFFFFFFFFFFFFFFFFF800
0FFFFFFFFFFFFFFFFFFFFFFFFFFFF800
1FFFFFFE000000000000003FFFFFFC00
1FFFFFF00000000000000003FFFFFE00
3FFFFF800000000000000000FFFFFE00
3FFFFF0000000000000000007FFFFE00
7FFFFE0000000000000000003FFFFF00
7FFFFC0000000000000000001FFFFF00
7FFFF80000000000000000000FFFFF80
7FFFF800000000000000000007FFFF80
FFFFF000000000000000000007FFFF80
FFFFF000000000000000000007FFFF80
FFFFF000000000000000000003FFFF80
FFFFF000000000000000000003FFFF80
FFFFE000000000000000000003FFFFC0
FFFFE000000000000000000003FFFFC0
FFFFE000000000000000000003FFFFC0
FFFFE000000000000000000003FFFFC0
FFFFF000000000000000000003FFFFC0
FFFFF000000000000000000003FFFF80
FFFFF000000000000000000007FFFF80
FFFFF000000000000000000007FFFF80
FFFFF800000000000000000007FFFF80
FFFFF80000000000000000000FFFFF80
7FFFFC0000000000000000001FFFFF80
7FFFFE0000000000000000003FFFFF80
7FFFFF0000000000000000007FFFFF00
7FFFFFC00000000000000001FFFFFF00
3FFFFFF00000000000000007FFFFFF00
3FFFFFFE000000000000003FFFFFFE00
3FFFFFFFFE00000000001FFFFFFFFE00
1FFFFFFFFFFFFFFFFFFFFFFFFFFFFE00
1FFFFFFFFFFFFFFFFFFFFFFFFFFFFC00
0FFFFFFFFFFFFFFFFFFFFFFFFFFFFC00
0FFFFFFFFFFFFFFFFFFFFFFFFFFFF800
07FFFFFFFFFFFFFFFFFFFFFFFFFFF000
03FFFFFFFFFFFFFFFFFFFFFFFFFFF000
03FFFFFFFFFFFFFFFFFFFFFFFFFFE000
01FFFFFFFFFFFFFFFFFFFFFFFFFFC000
00FFFFFFFFFFFFFFFFFFFFFFFFFF8000
007FFFFFFFFFFFFFFFFFFFFFFFFF0000
003FFFFFFFFFFFFFFFFFFFFFFFFE0000
001FFFFFFFFFFFFFFFFFFFFFFFFC0000
0007FFFFFFFFFFFFFFFFFFFFFFF80000
0003FFFFFFFFFFFFFFFFFFFFFFE00000
0000FFFFFFFFFFFFFFFFFFFFFF800000
00003FFFFFFFFFFFFFFFFFFFFE000000
00000FFFFFFFFFFFFFFFFFFFF8000000
000001FFFFFFFFFFFFFFFFFFC0000000
00000007FFFFFFFFFFFFFFF800000000
ENDCHAR
STARTCHAR nine
ENCODING 57
SWIDTH 861 0
DWIDTH 132 0
BBX 119 111 6 0
BITMAP
0000001FFFFFFFFFFFF80000000000
000003FFFFFFFFFFFFFFE000000000
00000FFFFFFFFFFFFFFFFE00000000
00007FFFFFFFFFFFFFFFFFC0000000
0000FFFFFFFFFFFFFFFFFFF0000000
0003FFFFFFFFFFFFFFFFFFFC000000
0007FFFFFFFFFFFFFFFFFFFF000000
000FFFFFFFFFFFFFFFFFFFFFC00000
003FFFFFFFFFFFFFFFFFFFFFE00000
007FFFFFFFFFFFFFFFFFFFFFF80000
007FFFFFFFFFFFFFFFFFFFFFFC0000
00FFFFFFFFFFFFFFFFFFFFFFFE0000
01FFFFFFFFFFFFFFFFFFFFFFFF0000
03FFFFFFFFFFFFFFFFFFFFFFFF8000
03FFFFFFFFFFFFFFFFFFFFFFFFC000
07FFFFFFFFFFFFFFFFFFFFFFFFE000
0FFFFFFFFFFFFFFFFFFFFFFFFFF000
0FFFFFFFFFFFFFFFFFFFFFFFFFF800
0FFFFFFFFFFFFFFFFFFFFFFFFFF800
1FFFFFFFC000000003FFFFFFFFFC00
1FFFFFF8000000000001FFFFFFFE00
3FFFFFE00000000000003FFFFFFE00
3FFFFFC00000000000000FFFFFFF00
3FFFFF0000000000000003FFFFFF00
3FFFFF0000000000000000FFFFFF80
7FFFFE00000000000000007FFFFF80
7FFFFC00000000000000003FFFFFC0
7FFFFC00000000000000001FFFFFC0
7FFFF800000000000000000FFFFFE0
7FFFF8000000000000000007FFFFE0
7FFFF8000000000000000003FFFFE0
FFFFF0000000000000000003FFFFF0
FFFFF0000000000000000001FFFFF0
FFFFF0000000000000000000FFFFF0
FFFFF0000000000000000000FFFFF8
FFFFF0000000000000000000FFFFF8
FFFFF00000000000000000007FFFF8
FFFFF00000000000000000007FFFF8
7FFFF00000000000000000003FFFFC
7FFFF00000000000000000003FFFFC
7FFFF80000000000000000003FFFFC
7FFFF80000000000000000003FFFFC
7FFFF80000000000000000001FFFFC
7FFFFC0000000000000000001FFFFC
7FFFFC0000000000000000001FFFFE
7FFFFE0000000000000000001FFFFE
3FFFFF0000000000000000001FFFFE
3FFFFF8000000000000000001FFFFE
3FFFFFC000000000000000001FFFFE
1FFFFFF000000000000000000FFFFE
1FFFFFFE00000000000000000FFFFE
1FFFFFFFFFFFFFFFFFFFFFFFFFFFFE
0FFFFFFFFFFFFFFFFFFFFFFFFFFFFE
0FFFFFFFFFFFFFFFFFFFFFFFFFFFFE
07FFFFFFFFFFFFFFFFFFFFFFFFFFFE
03FFFFFFFFFFFFFFFFFFFFFFFFFFFE
03FFFFFFFFFFFFFFFFFFFFFFFFFFFE
01FFFFFFFFFFFFFFFFFFFFFFFFFFFE
00FFFFFFFFFFFFFFFFFFFFFFFFFFFE
007FFFFFFFFFFFFFFFFFFFFFFFFFFE
003FFFFFFFFFFFFFFFFFFFFFFFFFFE
000FFFFFFFFFFFFFFFFFFFFFFFFFFE
0007FFFFFFFFFFFFFFFFFFFFFFFFFE
0001FFFFFFFFFFFFFFFFFFFFFFFFFE
00007FFFFFFFFFFFFFFFFFFFFFFFFE
00000FFFFFFFFFFFFFFFFFFFFFFFFE
0000007FFFFFFFFFFFFFFFFFFFFFFE
0000000000000000000000001FFFFE
0000000000000000000000001FFFFE
0000000000000000000000003FFFFC
0000000000000000000000003FFFFC
0000000000000000000000003FFFFC
0000000000000000000000003FFFFC
0000000000000000000000007FFFFC
0000000000000000000000007FFFFC
0000000000000000000000007FFFF8
000000000000000000000000FFFFF8
000000000000000000000000FFFFF8
000000000000000000000001FFFFF8
000000000000000000000001FFFFF0
000000000000000000000003FFFFF0
000000000000000000000007FFFFF0
000000000000000000000007FFFFE0
00000000000000000000000FFFFFE0
00000000000000000000001FFFFFE0
00000000000000000000007FFFFFC0
0000000000000000000000FFFFFFC0
0000000000000000000001FFFFFF80
0000000000000000000007FFFFFF80
000000000000000000003FFFFFFF00
00000000000000000001FFFFFFFF00
000000000000000003FFFFFFFFFE00
0007FFFFFFFFFFFFFFFFFFFFFFFC00
0007FFFFFFFFFFFFFFFFFFFFFFFC00
0007FFFFFFFFFFFFFFFFFFFFFFF800
0007FFFFFFFFFFFFFFFFFFFFFFF000
0007FFFFFFFFFFFFFFFFFFFFFFE000
0007FFFFFFFFFFFFFFFFFFFFFFC000
0007FFFFFFFFFFFFFFFFFFFFFF8000
0007FFFFFFFFFFFFFFFFFFFFFF0000
0007FFFFFFFFFFFFFFFFFFFFFE0000
0007FFFFFFFFFFFFFFFFFFFFFC0000
0007FFFFFFFFFFFFFFFFFFFFF80000
0007FFFFFFFFFFFFFFFFFFFFE00000
0007FFFFFFFFFFFFFFFFFFFF800000
0007FFFFFFFFFFFFFFFFFFFF000000
0007FFFFFFFFFFFFFFFFFFFC000000
0007FFFFFFFFFFFFFFFFFFE0000000
0007FFFFFFFFFFFFFFFFFF00000000
0007FFFFFFFFFFFFFFFFF000000000
0007FFFFFFFFFFFFFFFC0000000000
ENDCHAR
STARTCHAR colon
ENCODING 58
SWIDTH 262 0
DWIDTH 40 0
BBX 20 71 10 0
BITMAP
01F800
0FFE00
1FFF80
3FFFC0
7FFFE0
7FFFE0
FFFFF0
FFFFF0
FFFFF0
FFFFF0
FFFFF0
FFFFF0
FFFFF0
FFFFF0
FFFFF0
7FFFE0
7FFFE0
3FFFC0
1FFF80
0FFF00
03F800
000000
000000
000000
000000
000000
000000
000000
000000
000000
000000
000000
000000
000000
000000
000000
000000
000000
000000
000000
000000
000000
000000
000000
000000
000000
000000
000000
000000
000000
01F800
0FFE00
1FFF80
3FFFC0
7FFFE0
7FFFE0
FFFFF0
FFFFF0
FFFFF0
FFFFF0
FFFFF0
FFFFF0
FFFFF0
FFFFF0
FFFFF0
7FFFE0
7FFFE0
3FFFC0
1FFF80
0FFF00
03F800
ENDCHAR
STARTCHAR semicolon
ENCODING 59
SWIDTH 262 0
DWIDTH 40 0
BBX 20 88 10 -18
BITMAP
01FC00
0FFF00
1FFF80
3FFFC0
7FFFE0
7FFFE0
FFFFF0
FFFFF0
FFFFF0
FFFFF0
FFFFF0
FFFFF0
FFFFF0
FFFFF0
FFFFF0
7FFFE0
7FFFE0
3FFFC0
1FFF80
07FF00
01FC00
000000
000000
000000
000000
000000
000000
000000
000000
000000
000000
000000
000000
000000
000000
000000
000000
000000
000000
000000
000000
000000
000000
000000
000000
000000
000000
000000
FFFFF0
FFFFF0
FFFFF0
FFFFE0
FFFFE0
FFFFE0
FFFFE0
FFFFE0
FFFFC0
FFFFC0
FFFFC0
FFFFC0
FFFFC0
FFFF80
FFFF80
FFFF80
FFFF80
FFFF80
FFFF00
FFFF00
FFFF00
FFFF00
FFFF00
FFFF00
FFFE00
FFFE00
FFFE00
FFFE00
FFFE00
FFFC00
FFFC00
FFFC00
FFFC00
FFFC00
FFF800
FFF800
FFF800
FFF800
FFF800
FFF000
ENDCHAR
STARTCHAR less
ENCODING 60
SWIDTH 690 0
DWIDTH 106 0
BBX 86 83 10 15
BITMAP
0000000000000000000004
000000000000000000001C
000000000000000000007C
00000000000000000001FC
0000000000000000000FFC
0000000000000000003FFC
000000000000000001FFFC
000000000000000007FFFC
00000000000000001FFFFC
0000000000000000FFFFFC
0000000000000003FFFFFC
000000000000001FFFFFFC
000000000000007FFFFFFC
00000000000001FFFFFFFC
0000000000000FFFFFFFFC
0000000000003FFFFFFFE0
000000000001FFFFFFFF00
000000000007FFFFFFFC00
00000000001FFFFFFFE000
0000000000FFFFFFFF8000
0000000003FFFFFFFC0000
000000000FFFFFFFF00000
000000007FFFFFFF800000
00000001FFFFFFFC000000
0000000FFFFFFFF0000000
0000003FFFFFFF80000000
000000FFFFFFFE00000000
000007FFFFFFF000000000
00001FFFFFFFC000000000
0000FFFFFFFE0000000000
0003FFFFFFF00000000000
000FFFFFFFC00000000000
007FFFFFFE000000000000
01FFFFFFF8000000000000
0FFFFFFFC0000000000000
1FFFFFFF00000000000000
3FFFFFF800000000000000
7FFFFFC000000000000000
FFFFFF0000000000000000
FFFFF80000000000000000
FFFFE00000000000000000
FFFF000000000000000000
FFFFE00000000000000000
FFFFF80000000000000000
FFFFFF0000000000000000
7FFFFFC000000000000000
3FFFFFF800000000000000
1FFFFFFE00000000000000
0FFFFFFFC0000000000000
01FFFFFFF0000000000000
007FFFFFFE000000000000
000FFFFFFFC00000000000
0003FFFFFFF00000000000
0000FFFFFFFE0000000000
00001FFFFFFF8000000000
000007FFFFFFF000000000
000001FFFFFFFC00000000
0000003FFFFFFF80000000
0000000FFFFFFFE0000000
00000001FFFFFFFC000000
000000007FFFFFFF000000
000000001FFFFFFFE00000
0000000003FFFFFFF80000
0000000000FFFFFFFF0000
00000000003FFFFFFFE000
000000000007FFFFFFF800
000000000001FFFFFFFF00
0000000000003FFFFFFFC0
0000000000000FFFFFFFF8
00000000000003FFFFFFFC
000000000000007FFFFFFC
000000000000001FFFFFFC
0000000000000003FFFFFC
0000000000000000FFFFFC
00000000000000003FFFFC
000000000000000007FFFC
000000000000000001FFFC
0000000000000000007FFC
0000000000000000000FFC
00000000000000000003FC
000000000000000000007C
000000000000000000001C
0000000000000000000004
ENDCHAR
STARTCHAR equal
ENCODING 61
SWIDTH 690 0
DWIDTH 106 0
BBX 86 54 10 29
BITMAP
FFFFFFFFFFFFFFFFFFFFFC
FFFFFFFFFFFFFFFFFFFFFC
FFFFFFFFFFFFFFFFFFFFFC
FFFFFFFFFFFFFFFFFFFFFC
FFFFFFFFFFFFFFFFFFFFFC
FFFFFFFFFFFFFFFFFFFFFC
FFFFFFFFFFFFFFFFFFFFFC
FFFFFFFFFFFFFFFFFFFFFC
FFFFFFFFFFFFFFFFFFFFFC
FFFFFFFFFFFFFFFFFFFFFC
FFFFFFFFFFFFFFFFFFFFFC
FFFFFFFFFFFFFFFFFFFFFC
FFFFFFFFFFFFFFFFFFFFFC
0000000000000000000000
0000000000000000000000
0000000000000000000000
0000000000000000000000
0000000000000000000000
0000000000000000000000
0000000000000000000000
0000000000000000000000
0000000000000000000000
0000000000000000000000
0000000000000000000000
0000000000000000000000
0000000000000000000000
0000000000000000000000
0000000000000000000000
0000000000000000000000
0000000000000000000000
0000000000000000000000
0000000000000000000000
0000000000000000000000
0000000000000000000000
0000000000000000000000
0000000000000000000000
0000000000000000000000
0000000000000000000000
0000000000000000000000
0000000000000000000000
0000000000000000000000
FFFFFFFFFFFFFFFFFFFFFC
FFFFFFFFFFFFFFFFFFFFFC
FFFFFFFFFFFFFFFFFFFFFC
FFFFFFFFFFFFFFFFFFFFFC
FFFFFFFFFFFFFFFFFFFFFC
FFFFFFFFFFFFFFFFFFFFFC
FFFFFFFFFFFFFFFFFFFFFC
FFFFFFFFFFFFFFFFFFFFFC
FFFFFFFFFFFFFFFFFFFFFC
FFFFFFFFFFFFFFFFFFFFFC
FFFFFFFFFFFFFFFFFFFFFC
FFFFFFFFFFFFFFFFFFFFFC
FFFFFFFFFFFFFFFFFFFFFC
ENDCHAR
STARTCHAR greater
ENCODING 62
SWIDTH 690 0
DWIDTH 106 0
BBX 86 83 10 15
BITMAP
8000000000000000000000
C000000000000000000000
F800000000000000000000
FE00000000000000000000
FF80000000000000000000
FFF0000000000000000000
FFFC000000000000000000
FFFF800000000000000000
FFFFE00000000000000000
FFFFF80000000000000000
FFFFFF0000000000000000
FFFFFFC000000000000000
FFFFFFF800000000000000
FFFFFFFE00000000000000
FFFFFFFF80000000000000
1FFFFFFFF0000000000000
07FFFFFFFC000000000000
00FFFFFFFF800000000000
003FFFFFFFE00000000000
0007FFFFFFF80000000000
0001FFFFFFFF0000000000
00003FFFFFFFC000000000
000007FFFFFFF000000000
000001FFFFFFFE00000000
0000003FFFFFFF80000000
0000000FFFFFFFF0000000
00000001FFFFFFFC000000
000000007FFFFFFF000000
000000000FFFFFFFE00000
0000000001FFFFFFF80000
00000000007FFFFFFF0000
00000000000FFFFFFFC000
000000000003FFFFFFF000
0000000000007FFFFFFE00
0000000000001FFFFFFF80
00000000000003FFFFFFE0
000000000000007FFFFFF0
000000000000001FFFFFF8
0000000000000003FFFFF8
0000000000000000FFFFFC
00000000000000001FFFFC
000000000000000007FFFC
00000000000000001FFFFC
0000000000000000FFFFFC
0000000000000003FFFFF8
000000000000001FFFFFF8
000000000000007FFFFFF0
00000000000003FFFFFFE0
0000000000000FFFFFFF80
0000000000007FFFFFFE00
000000000001FFFFFFF000
00000000000FFFFFFFC000
00000000003FFFFFFF0000
0000000001FFFFFFF80000
000000000FFFFFFFE00000
000000003FFFFFFF800000
00000001FFFFFFFC000000
00000007FFFFFFF0000000
0000003FFFFFFF80000000
000000FFFFFFFE00000000
000007FFFFFFF800000000
00001FFFFFFFC000000000
0000FFFFFFFF0000000000
0003FFFFFFF80000000000
001FFFFFFFE00000000000
007FFFFFFF800000000000
03FFFFFFFC000000000000
1FFFFFFFF0000000000000
7FFFFFFFC0000000000000
FFFFFFFE00000000000000
FFFFFFF800000000000000
FFFFFFC000000000000000
FFFFFF0000000000000000
FFFFFC0000000000000000
FFFFE00000000000000000
FFFF800000000000000000
FFFE000000000000000000
FFF0000000000000000000
FFC0000000000000000000
FE00000000000000000000
F800000000000000000000
E000000000000000000000
8000000000000000000000
ENDCHAR
STARTCHAR question
ENCODING 63
SWIDTH 776 0
DWIDTH 119 0
BBX 107 111 7 0
BITMAP
FFFFFFFFFFFFFFFFFFFF00000000
FFFFFFFFFFFFFFFFFFFFF8000000
FFFFFFFFFFFFFFFFFFFFFF000000
FFFFFFFFFFFFFFFFFFFFFFE00000
FFFFFFFFFFFFFFFFFFFFFFF80000
FFFFFFFFFFFFFFFFFFFFFFFC0000
FFFFFFFFFFFFFFFFFFFFFFFF0000
FFFFFFFFFFFFFFFFFFFFFFFF8000
FFFFFFFFFFFFFFFFFFFFFFFFC000
FFFFFFFFFFFFFFFFFFFFFFFFE000
FFFFFFFFFFFFFFFFFFFFFFFFF000
FFFFFFFFFFFFFFFFFFFFFFFFF800
FFFFFFFFFFFFFFFFFFFFFFFFFC00
FFFFFFFFFFFFFFFFFFFFFFFFFE00
FFFFFFFFFFFFFFFFFFFFFFFFFE00
FFFFFFFFFFFFFFFFFFFFFFFFFF00
FFFFFFFFFFFFFFFFFFFFFFFFFF00
FFFFFFFFFFFFFFFFFFFFFFFFFF80
FFFFFFFFFFFFFFFFFFFFFFFFFF80
0000000000000000003FFFFFFF80
00000000000000000000FFFFFFC0
000000000000000000003FFFFFC0
000000000000000000001FFFFFC0
000000000000000000000FFFFFC0
0000000000000000000007FFFFE0
0000000000000000000003FFFFE0
0000000000000000000003FFFFE0
0000000000000000000001FFFFE0
0000000000000000000001FFFFE0
0000000000000000000001FFFFE0
0000000000000000000001FFFFE0
0000000000000000000001FFFFE0
0000000000000000000001FFFFE0
0000000000000000000001FFFFE0
0000000000000000000001FFFFE0
0000000000000000000001FFFFE0
0000000000000000000001FFFFE0
0000000000000000000003FFFFC0
0000000000000000000003FFFFC0
0000000000000000000007FFFFC0
0000000000000000000007FFFFC0
000000000000000000000FFFFF80
000000000000000000003FFFFF80
000000000000000000007FFFFF00
00000000000000000003FFFFFF00
00000007FFFFFFFFFFFFFFFFFE00
000000FFFFFFFFFFFFFFFFFFFE00
000003FFFFFFFFFFFFFFFFFFFC00
00000FFFFFFFFFFFFFFFFFFFFC00
00003FFFFFFFFFFFFFFFFFFFF800
00007FFFFFFFFFFFFFFFFFFFF000
0000FFFFFFFFFFFFFFFFFFFFE000
0001FFFFFFFFFFFFFFFFFFFFC000
0003FFFFFFFFFFFFFFFFFFFF8000
0007FFFFFFFFFFFFFFFFFFFF0000
0007FFFFFFFFFFFFFFFFFFFC0000
000FFFFFFFFFFFFFFFFFFFF00000
000FFFFFFFFFFFFFFFFFFFC00000
000FFFFFFFFFFFFFFFFFFF000000
001FFFFFFFFFFFFFFFFFF8000000
001FFFFFFFFFFFFFFFFF80000000
001FFFFF00000000000000000000
003FFFFC00000000000000000000
003FFFFC00000000000000000000
003FFFF800000000000000000000
003FFFF800000000000000000000
003FFFF800000000000000000000
003FFFF800000000000000000000
003FFFF800000000000000000000
003FFFF800000000000000000000
003FFFF800000000000000000000
003FFFF800000000000000000000
003FFFF800000000000000000000
003FFFF800000000000000000000
0000000000000000000000000000
0000000000000000000000000000
0000000000000000000000000000
0000000000000000000000000000
0000000000000000000000000000
0000000000000000000000000000
0000000000000000000000000000
0000000000000000000000000000
0000000000000000000000000000
0000000000000000000000000000
0000000000000000000000000000
0000000000000000000000000000
0000000000000000000000000000
0000000000000000000000000000
0000000000000000000000000000
0000000000000000000000000000
0000FE0000000000000000000000
0003FF8000000000000000000000
0007FFE000000000000000000000
000FFFF000000000000000000000
001FFFF000000000000000000000
003FFFF800000000000000000000
003FFFF800000000000000000000
003FFFFC00000000000000000000
007FFFFC00000000000000000000
007FFFFC00000000000000000000
007FFFFC00000000000000000000
007FFFFC00000000000000000000
007FFFFC00000000000000000000
003FFFFC00000000000000000000
003FFFF800000000000000000000
003FFFF800000000000000000000
001FFFF000000000000000000000
000FFFF000000000000000000000
0007FFE000000000000000000000
0003FF8000000000000000000000
0000FE0000000000000000000000
ENDCHAR
STARTCHAR at
ENCODING 64
SWIDTH 833 0
DWIDTH 127 0
BBX 112 111 6 0
BITMAP
0000000000007FFFFFFFFFFFFFFF
00000000001FFFFFFFFFFFFFFFFF
0000000001FFFFFFFFFFFFFFFFFF
000000000FFFFFFFFFFFFFFFFFFF
000000003FFFFFFFFFFFFFFFFFFF
00000000FFFFFFFFFFFFFFFFFFFF
00000003FFFFFFFFFFFFFFFFFFFF
0000000FFFFFFFFFFFFFFFFFFFFF
0000003FFFFFFFFFFFFFFFFFFFFF
0000007FFFFFFFFFFFFFFFFFFFFF
000001FFFFFFFFFFFFFFFFFFFFFF
000003FFFFFFFFFFFFFFFFFFFFFF
000007FFFFFFFFFFFFFFFFFFFFFF
00001FFFFFFFFFFFFFFFFFFFFFFF
00003FFFFFFF8000000000007FFF
00007FFFFFF00000000000007FFF
0000FFFFFF800000000000007FFF
0001FFFFFC000000000000007FFF
0003FFFFF0000000000000007FFF
0003FFFFC0000000000000007FFF
0007FFFF00000000000000007FFF
000FFFFE00000000000000007FFF
001FFFFC00000000000000007FFF
003FFFF000000000000000007FFF
003FFFE000000000000000007FFF
007FFFC000000000000000007FFF
007FFF8000000000000000007FFF
00FFFF0000000000000000007FFF
01FFFE0000000000000000007FFF
01FFFE0000000000000000007FFF
03FFFC0000000000000000007FFF
03FFF80000007FFFFFFFF0007FFF
07FFF8000003FFFFFFFFF0007FFF
07FFF000000FFFFFFFFFF0007FFF
07FFF000003FFFFFFFFFF0007FFF
0FFFE000007FFFFFFFFFF0007FFF
0FFFE00000FFFFFFFFFFF0007FFF
1FFFC00001FFFFFFFFFFF0007FFF
1FFFC00003FFFFFFFFFFF0007FFF
1FFFC00007FFFFFFFFFFF0007FFF
1FFF80000FFFFFFFFFFFF0007FFF
3FFF80000FFFFFFFFFFFF0007FFF
3FFF80001FFFF80001FFF0007FFF
3FFF00001FFFE00001FFF0007FFF
3FFF00003FFFC00001FFF0007FFF
7FFF00003FFF800001FFF0007FFF
7FFF00007FFF000001FFF0007FFF
7FFF00007FFE000001FFF0007FFF
7FFE00007FFC000001FFF0007FFF
7FFE00007FFC000001FFF0007FFF
7FFE00007FFC000001FFF0007FFF
7FFE0000FFFC000001FFF0007FFF
7FFE0000FFF8000001FFF0007FFF
FFFE0000FFF8000001FFF0007FFF
FFFE0000FFF8000001FFF0007FFF
FFFE0000FFF8000001FFF0007FFF
FFFE0000FFF8000001FFF0007FFF
FFFE0000FFF8000001FFF0007FFF
FFFE0000FFF8000001FFF0007FFF
FFFE0000FFFC000001FFF0007FFF
7FFE0000FFFC000001FFF0007FFF
7FFE00007FFC000001FFF0007FFF
7FFE00007FFE000001FFF0007FFF
7FFF00007FFE000001FFF0007FFF
7FFF00007FFF000001FFF0007FFF
7FFF00003FFF800001FFF0007FFF
7FFF00003FFFC00001FFF0007FFF
7FFF00003FFFE00001FFF0007FFF
7FFF80001FFFFC0001FFF0007FFF
3FFF80001FFFFFFFFFFFFFFFFFFF
3FFF80000FFFFFFFFFFFFFFFFFFF
3FFFC00007FFFFFFFFFFFFFFFFFF
3FFFC00007FFFFFFFFFFFFFFFFFF
1FFFC00003FFFFFFFFFFFFFFFFFF
1FFFE00001FFFFFFFFFFFFFFFFFF
1FFFE00000FFFFFFFFFFFFFFFFFF
0FFFF000007FFFFFFFFFFFFFFFFF
0FFFF000003FFFFFFFFFFFFFFFFF
0FFFF800000FFFFFFFFFFFFFFFFF
07FFF8000003FFFFFFFFFFFFFFFF
07FFFC0000007FFFFFFFFFFFFFFF
03FFFE0000000000000000000000
03FFFF0000000000000000000000
01FFFF0000000000000000000000
01FFFF8000000000000000000000
00FFFFC000000000000000000000
00FFFFE000000000000000000000
007FFFF000000000000000000000
003FFFF800000000000000000000
003FFFFE00000000000000000000
001FFFFF00000000000000000000
000FFFFFC0000000000000000000
0007FFFFF0000000000000000000
0003FFFFFC000000000000000000
0001FFFFFF800000000000000000
0000FFFFFFF00000000000000000
00007FFFFFFF8000000000000000
00003FFFFFFFFFFFFFFFFFFFFFFF
00001FFFFFFFFFFFFFFFFFFFFFFF
00000FFFFFFFFFFFFFFFFFFFFFFF
000003FFFFFFFFFFFFFFFFFFFFFF
000001FFFFFFFFFFFFFFFFFFFFFF
0000007FFFFFFFFFFFFFFFFFFFFF
0000003FFFFFFFFFFFFFFFFFFFFF
0000000FFFFFFFFFFFFFFFFFFFFF
00000003FFFFFFFFFFFFFFFFFFFF
00000000FFFFFFFFFFFFFFFFFFFF
000000001FFFFFFFFFFFFFFFFFFF
0000000003FFFFFFFFFFFFFFFFFF
00000000003FFFFFFFFFFFFFFFFF
000000000000FFFFFFFFFFFFFFFF
ENDCHAR
STARTCHAR A
ENCODING 65
SWIDTH 989 0
DWIDTH 151 0
BBX 147 113 2 0
BITMAP
00000000000000000040000000000000000000
000000000000000007FC000000000000000000
00000000000000000FFE000000000000000000
00000000000000001FFF800000000000000000
00000000000000003FFF800000000000000000
00000000000000007FFFC00000000000000000
0000000000000000FFFFE00000000000000000
0000000000000000FFFFE00000000000000000
0000000000000001FFFFF00000000000000000
0000000000000003FFFFF80000000000000000
0000000000000003FFFFF80000000000000000
0000000000000007FFFFFC0000000000000000
0000000000000007FFFFFC0000000000000000
000000000000000FFFFFFE0000000000000000
000000000000001FFFFFFF0000000000000000
000000000000001FFFFFFF0000000000000000
000000000000003FFFFFFF8000000000000000
000000000000003FFFFFFF8000000000000000
000000000000007FFFFFFFC000000000000000
00000000000000FFFFFFFFE000000000000000
00000000000000FFFFFFFFE000000000000000
00000000000001FFFFFFFFF000000000000000
00000000000001FFFFFFFFF000000000000000
00000000000003FFFFFFFFF800000000000000
00000000000007FFFFFFFFFC00000000000000
00000000000007FFFFFFFFFC00000000000000
0000000000000FFFFFFFFFFE00000000000000
0000000000000FFFFFFFFFFE00000000000000
0000000000001FFFFFFFFFFF00000000000000
0000000000003FFFFF3FFFFF80000000000000
0000000000003FFFFE3FFFFF80000000000000
0000000000007FFFFE1FFFFFC0000000000000
0000000000007FFFFC1FFFFFC0000000000000
000000000000FFFFFC0FFFFFE0000000000000
000000000001FFFFF807FFFFF0000000000000
000000000001FFFFF007FFFFF0000000000000
000000000003FFFFF003FFFFF8000000000000
000000000003FFFFE003FFFFF8000000000000
000000000007FFFFE001FFFFFC000000000000
00000000000FFFFFC000FFFFFE000000000000
00000000000FFFFF8000FFFFFE000000000000
00000000001FFFFF80007FFFFF000000000000
00000000001FFFFF00003FFFFF000000000000
00000000003FFFFF00003FFFFF800000000000
00000000007FFFFE00001FFFFFC00000000000
00000000007FFFFC00001FFFFFC00000000000
0000000000FFFFFC00000FFFFFE00000000000
0000000000FFFFF8000007FFFFE00000000000
0000000001FFFFF8000007FFFFF00000000000
0000000003FFFFF0000003FFFFF80000000000
0000000003FFFFF0000003FFFFF80000000000
0000000007FFFFE0000001FFFFFC0000000000
0000000007FFFFC0000000FFFFFE0000000000
000000000FFFFFC0000000FFFFFE0000000000
000000001FFFFF800000007FFFFF0000000000
000000001FFFFF800000007FFFFF0000000000
000000003FFFFF000000003FFFFF8000000000
000000003FFFFE000000001FFFFFC000000000
000000007FFFFE000000001FFFFFC000000000
00000000FFFFFC000000000FFFFFE000000000
00000000FFFFFC000000000FFFFFE000000000
00000001FFFFF80000000007FFFFF000000000
00000001FFFFF00000000003FFFFF800000000
00000003FFFFF00000000003FFFFF800000000
00000007FFFFE00000000001FFFFFC00000000
00000007FFFFE00000000001FFFFFC00000000
0000000FFFFFC00000000000FFFFFE00000000
0000000FFFFF8000000000007FFFFF00000000
0000001FFFFF8000000000007FFFFF00000000
0000003FFFFF0001FFFFFFFFFFFFFF80000000
0000003FFFFF0001FFFFFFFFFFFFFF80000000
0000007FFFFE0003FFFFFFFFFFFFFFC0000000
0000007FFFFC0007FFFFFFFFFFFFFFE0000000
000000FFFFFC0007FFFFFFFFFFFFFFE0000000
000001FFFFF8000FFFFFFFFFFFFFFFF0000000
000001FFFFF8000FFFFFFFFFFFFFFFF0000000
000003FFFFF0001FFFFFFFFFFFFFFFF8000000
000007FFFFE0001FFFFFFFFFFFFFFFFC000000
000007FFFFE0003FFFFFFFFFFFFFFFFC000000
00000FFFFFC0007FFFFFFFFFFFFFFFFE000000
00000FFFFFC0007FFFFFFFFFFFFFFFFE000000
00001FFFFF8000FFFFFFFFFFFFFFFFFF000000
00003FFFFF0000FFFFFFFFFFFFFFFFFF800000
00003FFFFF0001FFFFFFFFFFFFFFFFFF800000
00007FFFFE0003FFFFFFFFFFFFFFFFFFC00000
00007FFFFE00000000000000001FFFFFC00000
0000FFFFFC00000000000000000FFFFFE00000
0001FFFFFC00000000000000000FFFFFF00000
0001FFFFF8000000000000000007FFFFF00000
0003FFFFF0000000000000000003FFFFF80000
0003FFFFF0000000000000000003FFFFF80000
0007FFFFE0000000000000000001FFFFFC0000
000FFFFFE0000000000000000001FFFFFE0000
000FFFFFC0000000000000000000FFFFFE0000
001FFFFF800000000000000000007FFFFF0000
001FFFFF800000000000000000007FFFFF0000
003FFFFF000000000000000000003FFFFF8000
007FFFFF000000000000000000003FFFFFC000
007FFFFE000000000000000000001FFFFFC000
00FFFFFC000000000000000000000FFFFFE000
00FFFFFC000000000000000000000FFFFFE000
01FFFFF80000000000000000000007FFFFF000
03FFFFF80000000000000000000007FFFFF800
03FFFFF00000000000000000000003FFFFF800
07FFFFE00000000000000000000001FFFFFC00
07FFFFE00000000000000000000001FFFFFE00
0FFFFFC00000000000000000000000FFFFFE00
1FFFFFC00000000000000000000000FFFFFF00
1FFFFF8000000000000000000000007FFFFF00
3FFFFF0000000000000000000000003FFFFF80
3FFFFF0000000000000000000000003FFFFFC0
7FFFFE0000000000000000000000001FFFFFC0
FFFFFE0000000000000000000000001FFFFFE0
ENDCHAR
STARTCHAR B
ENCODING 66
SWIDTH 891 0
DWIDTH 136 0
BBX 120 111 9 0
BITMAP
FFFFFFFFFFFFFFFFFFFFFFC0000000
FFFFFFFFFFFFFFFFFFFFFFFE000000
FFFFFFFFFFFFFFFFFFFFFFFFE00000
FFFFFFFFFFFFFFFFFFFFFFFFF80000
FFFFFFFFFFFFFFFFFFFFFFFFFF0000
FFFFFFFFFFFFFFFFFFFFFFFFFF8000
FFFFFFFFFFFFFFFFFFFFFFFFFFE000
FFFFFFFFFFFFFFFFFFFFFFFFFFF000
FFFFFFFFFFFFFFFFFFFFFFFFFFF800
FFFFFFFFFFFFFFFFFFFFFFFFFFFE00
FFFFFFFFFFFFFFFFFFFFFFFFFFFE00
FFFFFFFFFFFFFFFFFFFFFFFFFFFF00
FFFFFFFFFFFFFFFFFFFFFFFFFFFF80
FFFFFFFFFFFFFFFFFFFFFFFFFFFFC0
FFFFFFFFFFFFFFFFFFFFFFFFFFFFC0
FFFFFFFFFFFFFFFFFFFFFFFFFFFFE0
FFFFFFFFFFFFFFFFFFFFFFFFFFFFE0
FFFFFFFFFFFFFFFFFFFFFFFFFFFFF0
FFFFFFFFFFFFFFFFFFFFFFFFFFFFF0
FFFFF00000000000000FFFFFFFFFF8
FFFFF00000000000000000FFFFFFF8
FFFFF000000000000000001FFFFFF8
FFFFF0000000000000000007FFFFF8
FFFFF0000000000000000003FFFFFC
FFFFF0000000000000000001FFFFFC
FFFFF0000000000000000000FFFFFC
FFFFF00000000000000000007FFFFC
FFFFF00000000000000000007FFFFC
FFFFF00000000000000000003FFFFC
FFFFF00000000000000000003FFFFC
FFFFF00000000000000000003FFFFC
FFFFF00000000000000000003FFFFC
FFFFF00000000000000000003FFFFC
FFFFF00000000000000000003FFFFC
FFFFF00000000000000000003FFFFC
FFFFF00000000000000000003FFFF8
FFFFF00000000000000000003FFFF8
FFFFF00000000000000000003FFFF8
FFFFF00000000000000000003FFFF8
FFFFF00000000000000000007FFFF0
FFFFF00000000000000000007FFFF0
FFFFF0000000000000000000FFFFF0
FFFFF0000000000000000000FFFFE0
FFFFF0000000000000000001FFFFE0
FFFFF0000000000000000007FFFFC0
FFFFF000000000000000001FFFFF80
FFFFF00000000000000000FFFFFF00
FFFFF0003FFFFFFFFFFFFFFFFFFE00
FFFFF0003FFFFFFFFFFFFFFFFFFE00
FFFFF0003FFFFFFFFFFFFFFFFFF800
FFFFF0003FFFFFFFFFFFFFFFFFF000
FFFFF0003FFFFFFFFFFFFFFFFFC000
FFFFF0003FFFFFFFFFFFFFFFFF0000
FFFFF0003FFFFFFFFFFFFFFFFF0000
FFFFF0003FFFFFFFFFFFFFFFFFC000
FFFFF0003FFFFFFFFFFFFFFFFFF000
FFFFF0003FFFFFFFFFFFFFFFFFFC00
FFFFF0003FFFFFFFFFFFFFFFFFFE00
FFFFF0003FFFFFFFFFFFFFFFFFFF00
FFFFF0003FFFFFFFFFFFFFFFFFFF80
FFFFF0003FFFFFFFFFFFFFFFFFFFC0
FFFFF0003FFFFFFFFFFFFFFFFFFFE0
FFFFF0003FFFFFFFFFFFFFFFFFFFF0
FFFFF000000000000000007FFFFFF0
FFFFF000000000000000000FFFFFF8
FFFFF0000000000000000003FFFFF8
FFFFF0000000000000000000FFFFFC
FFFFF00000000000000000007FFFFC
FFFFF00000000000000000003FFFFE
FFFFF00000000000000000003FFFFE
FFFFF00000000000000000001FFFFE
FFFFF00000000000000000001FFFFE
FFFFF00000000000000000000FFFFF
FFFFF00000000000000000000FFFFF
FFFFF00000000000000000000FFFFF
FFFFF00000000000000000000FFFFF
FFFFF00000000000000000000FFFFF
FFFFF00000000000000000000FFFFF
FFFFF00000000000000000000FFFFF
FFFFF00000000000000000000FFFFF
FFFFF00000000000000000000FFFFF
FFFFF00000000000000000000FFFFF
FFFFF00000000000000000001FFFFF
FFFFF00000000000000000001FFFFF
FFFFF00000000000000000003FFFFE
FFFFF00000000000000000007FFFFE
FFFFF0000000000000000000FFFFFE
FFFFF0000000000000000001FFFFFE
FFFFF0000000000000000007FFFFFC
FFFFF000000000000000001FFFFFFC
FFFFF00000000000000000FFFFFFFC
FFFFF000000000000001FFFFFFFFF8
FFFFFFFFFFFFFFFFFFFFFFFFFFFFF8
FFFFFFFFFFFFFFFFFFFFFFFFFFFFF0
FFFFFFFFFFFFFFFFFFFFFFFFFFFFF0
FFFFFFFFFFFFFFFFFFFFFFFFFFFFE0
FFFFFFFFFFFFFFFFFFFFFFFFFFFFE0
FFFFFFFFFFFFFFFFFFFFFFFFFFFFC0
FFFFFFFFFFFFFFFFFFFFFFFFFFFF80
FFFFFFFFFFFFFFFFFFFFFFFFFFFF80
FFFFFFFFFFFFFFFFFFFFFFFFFFFF00
FFFFFFFFFFFFFFFFFFFFFFFFFFFE00
FFFFFFFFFFFFFFFFFFFFFFFFFFFC00
FFFFFFFFFFFFFFFFFFFFFFFFFFF000
FFFFFFFFFFFFFFFFFFFFFFFFFFE000
FFFFFFFFFFFFFFFFFFFFFFFFFFC000
FFFFFFFFFFFFFFFFFFFFFFFFFF0000
FFFFFFFFFFFFFFFFFFFFFFFFFC0000
FFFFFFFFFFFFFFFFFFFFFFFFE00000
FFFFFFFFFFFFFFFFFFFFFFFF000000
FFFFFFFFFFFFFFFFFFFFFFE0000000
ENDCHAR
STARTCHAR C
ENCODING 67
SWIDTH 829 0
DWIDTH 127 0
BBX 115 111 6 0
BITMAP
000000000003FFFFFFFFFFFFFFFFE0
00000000007FFFFFFFFFFFFFFFFFE0
0000000007FFFFFFFFFFFFFFFFFFE0
000000003FFFFFFFFFFFFFFFFFFFE0
00000001FFFFFFFFFFFFFFFFFFFFE0
00000007FFFFFFFFFFFFFFFFFFFFE0
0000001FFFFFFFFFFFFFFFFFFFFFE0
0000007FFFFFFFFFFFFFFFFFFFFFE0
000000FFFFFFFFFFFFFFFFFFFFFFE0
000003FFFFFFFFFFFFFFFFFFFFFFE0
000007FFFFFFFFFFFFFFFFFFFFFFE0
00000FFFFFFFFFFFFFFFFFFFFFFFE0
00003FFFFFFFFFFFFFFFFFFFFFFFE0
00007FFFFFFFFFFFFFFFFFFFFFFFE0
0000FFFFFFFFFFFFFFFFFFFFFFFFE0
0001FFFFFFFFFFFFFFFFFFFFFFFFE0
0003FFFFFFFFFFFFFFFFFFFFFFFFE0
0007FFFFFFFFFFFFFFFFFFFFFFFFE0
000FFFFFFFFFFFFFFFFFFFFFFFFFE0
000FFFFFFFFFF00000000000000000
001FFFFFFFF8000000000000000000
003FFFFFFFC0000000000000000000
007FFFFFFF00000000000000000000
007FFFFFFC00000000000000000000
00FFFFFFF000000000000000000000
00FFFFFFC000000000000000000000
01FFFFFF8000000000000000000000
01FFFFFF0000000000000000000000
03FFFFFE0000000000000000000000
03FFFFFC0000000000000000000000
07FFFFF80000000000000000000000
07FFFFF00000000000000000000000
0FFFFFE00000000000000000000000
0FFFFFC00000000000000000000000
0FFFFFC00000000000000000000000
1FFFFF800000000000000000000000
1FFFFF000000000000000000000000
1FFFFF000000000000000000000000
3FFFFE000000000000000000000000
3FFFFE000000000000000000000000
3FFFFE000000000000000000000000
3FFFFC000000000000000000000000
7FFFFC000000000000000000000000
7FFFF8000000000000000000000000
7FFFF8000000000000000000000000
7FFFF8000000000000000000000000
7FFFF8000000000000000000000000
7FFFF8000000000000000000000000
7FFFF0000000000000000000000000
7FFFF0000000000000000000000000
7FFFF0000000000000000000000000
FFFFF0000000000000000000000000
FFFFF0000000000000000000000000
FFFFF0000000000000000000000000
FFFFF0000000000000000000000000
FFFFF0000000000000000000000000
FFFFF0000000000000000000000000
FFFFF0000000000000000000000000
7FFFF0000000000000000000000000
7FFFF0000000000000000000000000
7FFFF0000000000000000000000000
7FFFF0000000000000000000000000
7FFFF0000000000000000000000000
7FFFF8000000000000000000000000
7FFFF8000000000000000000000000
7FFFF8000000000000000000000000
3FFFF8000000000000000000000000
3FFFFC000000000000000000000000
3FFFFC000000000000000000000000
3FFFFC000000000000000000000000
3FFFFE000000000000000000000000
1FFFFE000000000000000000000000
1FFFFF000000000000000000000000
1FFFFF000000000000000000000000
0FFFFF800000000000000000000000
0FFFFF800000000000000000000000
0FFFFFC00000000000000000000000
07FFFFE00000000000000000000000
07FFFFE00000000000000000000000
03FFFFF00000000000000000000000
03FFFFF80000000000000000000000
01FFFFFC0000000000000000000000
01FFFFFE0000000000000000000000
00FFFFFF0000000000000000000000
00FFFFFF8000000000000000000000
007FFFFFE000000000000000000000
007FFFFFF000000000000000000000
003FFFFFFC00000000000000000000
001FFFFFFF00000000000000000000
001FFFFFFFC0000000000000000000
000FFFFFFFF8000000000000000000
0007FFFFFFFFF00000000000000000
0003FFFFFFFFFFFFFFFFFFFFFFFFE0
0001FFFFFFFFFFFFFFFFFFFFFFFFE0
0000FFFFFFFFFFFFFFFFFFFFFFFFE0
00007FFFFFFFFFFFFFFFFFFFFFFFE0
00003FFFFFFFFFFFFFFFFFFFFFFFE0
00001FFFFFFFFFFFFFFFFFFFFFFFE0
00000FFFFFFFFFFFFFFFFFFFFFFFE0
000007FFFFFFFFFFFFFFFFFFFFFFE0
000003FFFFFFFFFFFFFFFFFFFFFFE0
000000FFFFFFFFFFFFFFFFFFFFFFE0
0000007FFFFFFFFFFFFFFFFFFFFFE0
0000001FFFFFFFFFFFFFFFFFFFFFE0
00000007FFFFFFFFFFFFFFFFFFFFE0
00000003FFFFFFFFFFFFFFFFFFFFE0
000000007FFFFFFFFFFFFFFFFFFFE0
000000001FFFFFFFFFFFFFFFFFFFE0
0000000003FFFFFFFFFFFFFFFFFFE0
00000000007FFFFFFFFFFFFFFFFFE0
000000000003FFFFFFFFFFFFFFFFE0
ENDCHAR
STARTCHAR D
ENCODING 68
SWIDTH 879 0
DWIDTH 134 0
BBX 118 111 10 0
BITMAP
FFFFFFFFFFFFFFFFFF000000000000
FFFFFFFFFFFFFFFFFFFC0000000000
FFFFFFFFFFFFFFFFFFFFC000000000
FFFFFFFFFFFFFFFFFFFFF800000000
FFFFFFFFFFFFFFFFFFFFFE00000000
FFFFFFFFFFFFFFFFFFFFFF80000000
FFFFFFFFFFFFFFFFFFFFFFE0000000
FFFFFFFFFFFFFFFFFFFFFFF8000000
FFFFFFFFFFFFFFFFFFFFFFFE000000
FFFFFFFFFFFFFFFFFFFFFFFF000000
FFFFFFFFFFFFFFFFFFFFFFFFC00000
FFFFFFFFFFFFFFFFFFFFFFFFE00000
FFFFFFFFFFFFFFFFFFFFFFFFF00000
FFFFFFFFFFFFFFFFFFFFFFFFF80000
FFFFFFFFFFFFFFFFFFFFFFFFFC0000
FFFFFFFFFFFFFFFFFFFFFFFFFE0000
FFFFFFFFFFFFFFFFFFFFFFFFFF0000
FFFFFFFFFFFFFFFFFFFFFFFFFF8000
FFFFFFFFFFFFFFFFFFFFFFFFFFC000
FFFFE000000000003FFFFFFFFFE000
FFFFE00000000000007FFFFFFFF000
FFFFE00000000000000FFFFFFFF000
FFFFE000000000000001FFFFFFF800
FFFFE0000000000000007FFFFFFC00
FFFFE0000000000000001FFFFFFC00
FFFFE0000000000000000FFFFFFE00
FFFFE00000000000000007FFFFFE00
FFFFE00000000000000001FFFFFF00
FFFFE00000000000000000FFFFFF00
FFFFE000000000000000007FFFFF80
FFFFE000000000000000003FFFFF80
FFFFE000000000000000001FFFFFC0
FFFFE000000000000000001FFFFFC0
FFFFE000000000000000000FFFFFE0
FFFFE0000000000000000007FFFFE0
FFFFE0000000000000000003FFFFE0
FFFFE0000000000000000003FFFFF0
FFFFE0000000000000000001FFFFF0
FFFFE0000000000000000001FFFFF0
FFFFE0000000000000000000FFFFF0
FFFFE0000000000000000000FFFFF8
FFFFE0000000000000000000FFFFF8
FFFFE00000000000000000007FFFF8
FFFFE00000000000000000007FFFF8
FFFFE00000000000000000007FFFF8
FFFFE00000000000000000003FFFFC
FFFFE00000000000000000003FFFFC
FFFFE00000000000000000003FFFFC
FFFFE00000000000000000003FFFFC
FFFFE00000000000000000003FFFFC
FFFFE00000000000000000001FFFFC
FFFFE00000000000000000001FFFFC
FFFFE00000000000000000001FFFFC
FFFFE00000000000000000001FFFFC
FFFFE00000000000000000001FFFFC
FFFFE00000000000000000001FFFFC
FFFFE00000000000000000001FFFFC
FFFFE00000000000000000001FFFFC
FFFFE00000000000000000001FFFFC
FFFFE00000000000000000001FFFFC
FFFFE00000000000000000003FFFFC
FFFFE00000000000000000003FFFFC
FFFFE00000000000000000003FFFFC
FFFFE00000000000000000003FFFFC
FFFFE00000000000000000003FFFF8
FFFFE00000000000000000003FFFF8
FFFFE00000000000000000007FFFF8
FFFFE00000000000000000007FFFF8
FFFFE00000000000000000007FFFF8
FFFFE0000000000000000000FFFFF0
FFFFE0000000000000000000FFFFF0
FFFFE0000000000000000001FFFFF0
FFFFE0000000000000000001FFFFF0
FFFFE0000000000000000003FFFFE0
FFFFE0000000000000000003FFFFE0
FFFFE0000000000000000007FFFFE0
FFFFE0000000000000000007FFFFC0
FFFFE000000000000000000FFFFFC0
FFFFE000000000000000001FFFFF80
FFFFE000000000000000003FFFFF80
FFFFE000000000000000003FFFFF80
FFFFE000000000000000007FFFFF00
FFFFE00000000000000000FFFFFF00
FFFFE00000000000000001FFFFFE00
FFFFE00000000000000007FFFFFC00
FFFFE0000000000000000FFFFFFC00
FFFFE0000000000000003FFFFFF800
FFFFE0000000000000007FFFFFF800
FFFFE000000000000001FFFFFFF000
FFFFE00000000000000FFFFFFFE000
FFFFE00000000000007FFFFFFFE000
FFFFE000000000003FFFFFFFFFC000
FFFFFFFFFFFFFFFFFFFFFFFFFF8000
FFFFFFFFFFFFFFFFFFFFFFFFFF0000
FFFFFFFFFFFFFFFFFFFFFFFFFE0000
FFFFFFFFFFFFFFFFFFFFFFFFFC0000
FFFFFFFFFFFFFFFFFFFFFFFFF80000
FFFFFFFFFFFFFFFFFFFFFFFFF00000
FFFFFFFFFFFFFFFFFFFFFFFFE00000
FFFFFFFFFFFFFFFFFFFFFFFFC00000
FFFFFFFFFFFFFFFFFFFFFFFF000000
FFFFFFFFFFFFFFFFFFFFFFFE000000
FFFFFFFFFFFFFFFFFFFFFFF8000000
FFFFFFFFFFFFFFFFFFFFFFF0000000
FFFFFFFFFFFFFFFFFFFFFFC0000000
FFFFFFFFFFFFFFFFFFFFFF00000000
FFFFFFFFFFFFFFFFFFFFFC00000000
FFFFFFFFFFFFFFFFFFFFF000000000
FFFFFFFFFFFFFFFFFFFF8000000000
FFFFFFFFFFFFFFFFFFF80000000000
FFFFFFFFFFFFFFFFFF000000000000
ENDCHAR
STARTCHAR E
ENCODING 69
SWIDTH 759 0
DWIDTH 116 0
BBX 99 111 10 0
BITMAP
FFFFFFFFFFFFFFFFFFFFFFFFE0
FFFFFFFFFFFFFFFFFFFFFFFFE0
FFFFFFFFFFFFFFFFFFFFFFFFE0
FFFFFFFFFFFFFFFFFFFFFFFFE0
FFFFFFFFFFFFFFFFFFFFFFFFE0
FFFFFFFFFFFFFFFFFFFFFFFFE0
FFFFFFFFFFFFFFFFFFFFFFFFE0
FFFFFFFFFFFFFFFFFFFFFFFFE0
FFFFFFFFFFFFFFFFFFFFFFFFE0
FFFFFFFFFFFFFFFFFFFFFFFFE0
FFFFFFFFFFFFFFFFFFFFFFFFE0
FFFFFFFFFFFFFFFFFFFFFFFFE0
FFFFFFFFFFFFFFFFFFFFFFFFE0
FFFFFFFFFFFFFFFFFFFFFFFFE0
FFFFFFFFFFFFFFFFFFFFFFFFE0
FFFFFFFFFFFFFFFFFFFFFFFFE0
FFFFFFFFFFFFFFFFFFFFFFFFE0
FFFFFFFFFFFFFFFFFFFFFFFFE0
FFFFFFFFFFFFFFFFFFFFFFFFE0
FFFFE000000000000000000000
FFFFE000000000000000000000
FFFFE000000000000000000000
FFFFE000000000000000000000
FFFFE000000000000000000000
FFFFE000000000000000000000
FFFFE000000000000000000000
FFFFE000000000000000000000
FFFFE000000000000000000000
FFFFE000000000000000000000
FFFFE000000000000000000000
FFFFE000000000000000000000
FFFFE000000000000000000000
FFFFE000000000000000000000
FFFFE000000000000000000000
FFFFE000000000000000000000
FFFFE000000000000000000000
FFFFE000000000000000000000
FFFFE000000000000000000000
FFFFE000000000000000000000
FFFFE000000000000000000000
FFFFE000000000000000000000
FFFFE000000000000000000000
FFFFE000000000000000000000
FFFFE000000000000000000000
FFFFE000000000000000000000
FFFFE000000000000000000000
FFFFE000000000000000000000
FFFFE0007FFFFFFFFFFFFFFE00
FFFFE0007FFFFFFFFFFFFFFE00
FFFFE0007FFFFFFFFFFFFFFE00
FFFFE0007FFFFFFFFFFFFFFE00
FFFFE0007FFFFFFFFFFFFFFE00
FFFFE0007FFFFFFFFFFFFFFE00
FFFFE0007FFFFFFFFFFFFFFE00
FFFFE0007FFFFFFFFFFFFFFE00
FFFFE0007FFFFFFFFFFFFFFE00
FFFFE0007FFFFFFFFFFFFFFE00
FFFFE0007FFFFFFFFFFFFFFE00
FFFFE0007FFFFFFFFFFFFFFE00
FFFFE0007FFFFFFFFFFFFFFE00
FFFFE0007FFFFFFFFFFFFFFE00
FFFFE0007FFFFFFFFFFFFFFE00
FFFFE0007FFFFFFFFFFFFFFE00
FFFFE000000000000000000000
FFFFE000000000000000000000
FFFFE000000000000000000000
FFFFE000000000000000000000
FFFFE000000000000000000000
FFFFE000000000000000000000
FFFFE000000000000000000000
FFFFE000000000000000000000
FFFFE000000000000000000000
FFFFE000000000000000000000
FFFFE000000000000000000000
FFFFE000000000000000000000
FFFFE000000000000000000000
FFFFE000000000000000000000
FFFFE000000000000000000000
FFFFE000000000000000000000
FFFFE000000000000000000000
FFFFE000000000000000000000
FFFFE000000000000000000000
FFFFE000000000000000000000
FFFFE000000000000000000000
FFFFE000000000000000000000
FFFFE000000000000000000000
FFFFE000000000000000000000
FFFFE000000000000000000000
FFFFE000000000000000000000
FFFFE000000000000000000000
FFFFE000000000000000000000
FFFFE000000000000000000000
FFFFFFFFFFFFFFFFFFFFFFFFE0
FFFFFFFFFFFFFFFFFFFFFFFFE0
FFFFFFFFFFFFFFFFFFFFFFFFE0
FFFFFFFFFFFFFFFFFFFFFFFFE0
FFFFFFFFFFFFFFFFFFFFFFFFE0
FFFFFFFFFFFFFFFFFFFFFFFFE0
FFFFFFFFFFFFFFFFFFFFFFFFE0
FFFFFFFFFFFFFFFFFFFFFFFFE0
FFFFFFFFFFFFFFFFFFFFFFFFE0
FFFFFFFFFFFFFFFFFFFFFFFFE0
FFFFFFFFFFFFFFFFFFFFFFFFE0
FFFFFFFFFFFFFFFFFFFFFFFFE0
FFFFFFFFFFFFFFFFFFFFFFFFE0
FFFFFFFFFFFFFFFFFFFFFFFFE0
FFFFFFFFFFFFFFFFFFFFFFFFE0
FFFFFFFFFFFFFFFFFFFFFFFFE0
FFFFFFFFFFFFFFFFFFFFFFFFE0
FFFFFFFFFFFFFFFFFFFFFFFFE0
FFFFFFFFFFFFFFFFFFFFFFFFE0
ENDCHAR
STARTCHAR F
ENCODING 70
SWIDTH 705 0
DWIDTH 108 0
BBX 94 111 10 0
BITMAP
FFFFFFFFFFFFFFFFFFFFFFFC
FFFFFFFFFFFFFFFFFFFFFFFC
FFFFFFFFFFFFFFFFFFFFFFFC
FFFFFFFFFFFFFFFFFFFFFFFC
FFFFFFFFFFFFFFFFFFFFFFFC
FFFFFFFFFFFFFFFFFFFFFFFC
FFFFFFFFFFFFFFFFFFFFFFFC
FFFFFFFFFFFFFFFFFFFFFFFC
FFFFFFFFFFFFFFFFFFFFFFFC
FFFFFFFFFFFFFFFFFFFFFFFC
FFFFFFFFFFFFFFFFFFFFFFFC
FFFFFFFFFFFFFFFFFFFFFFFC
FFFFFFFFFFFFFFFFFFFFFFFC
FFFFFFFFFFFFFFFFFFFFFFFC
FFFFFFFFFFFFFFFFFFFFFFFC
FFFFFFFFFFFFFFFFFFFFFFFC
FFFFFFFFFFFFFFFFFFFFFFFC
FFFFFFFFFFFFFFFFFFFFFFFC
FFFFFFFFFFFFFFFFFFFFFFFC
FFFFE0000000000000000000
FFFFE0000000000000000000
FFFFE0000000000000000000
FFFFE0000000000000000000
FFFFE0000000000000000000
FFFFE0000000000000000000
FFFFE0000000000000000000
FFFFE0000000000000000000
FFFFE0000000000000000000
FFFFE0000000000000000000
FFFFE0000000000000000000
FFFFE0000000000000000000
FFFFE0000000000000000000
FFFFE0000000000000000000
FFFFE0000000000000000000
FFFFE0000000000000000000
FFFFE0000000000000000000
FFFFE0000000000000000000
FFFFE0000000000000000000
FFFFE0000000000000000000
FFFFE0000000000000000000
FFFFE0000000000000000000
FFFFE0000000000000000000
FFFFE0000000000000000000
FFFFE0000000000000000000
FFFFE0000000000000000000
FFFFE0000000000000000000
FFFFE0000000000000000000
FFFFE0000000000000000000
FFFFE0007FFFFFFFFFFFFF80
FFFFE0007FFFFFFFFFFFFF80
FFFFE0007FFFFFFFFFFFFF80
FFFFE0007FFFFFFFFFFFFF80
FFFFE0007FFFFFFFFFFFFF80
FFFFE0007FFFFFFFFFFFFF80
FFFFE0007FFFFFFFFFFFFF80
FFFFE0007FFFFFFFFFFFFF80
FFFFE0007FFFFFFFFFFFFF80
FFFFE0007FFFFFFFFFFFFF80
FFFFE0007FFFFFFFFFFFFF80
FFFFE0007FFFFFFFFFFFFF80
FFFFE0007FFFFFFFFFFFFF80
FFFFE0007FFFFFFFFFFFFF80
FFFFE0007FFFFFFFFFFFFF80
FFFFE0007FFFFFFFFFFFFF80
FFFFE0007FFFFFFFFFFFFF80
FFFFE0000000000000000000
FFFFE0000000000000000000
FFFFE0000000000000000000
FFFFE0000000000000000000
FFFFE0000000000000000000
FFFFE0000000000000000000
FFFFE0000000000000000000
FFFFE0000000000000000000
FFFFE0000000000000000000
FFFFE0000000000000000000
FFFFE0000000000000000000
FFFFE0000000000000000000
FFFFE0000000000000000000
FFFFE0000000000000000000
FFFFE0000000000000000000
FFFFE0000000000000000000
FFFFE0000000000000000000
FFFFE0000000000000000000
FFFFE0000000000000000000
FFFFE0000000000000000000
FFFFE0000000000000000000
FFFFE0000000000000000000
FFFFE0000000000000000000
FFFFE0000000000000000000
FFFFE0000000000000000000
FFFFE0000000000000000000
FFFFE0000000000000000000
FFFFE0000000000000000000
FFFFE0000000000000000000
FFFFE0000000000000000000
FFFFE0000000000000000000
FFFFE0000000000000000000
FFFFE0000000000000000000
FFFFE0000000000000000000
FFFFE0000000000000000000
FFFFE0000000000000000000
FFFFE0000000000000000000
FFFFE0000000000000000000
FFFFE0000000000000000000
FFFFE0000000000000000000
FFFFE0000000000000000000
FFFFE0000000000000000000
FFFFE0000000000000000000
FFFFE0000000000000000000
FFFFE0000000000000000000
FFFFE0000000000000000000
ENDCHAR
STARTCHAR G
ENCODING 71
SWIDTH 888 0
DWIDTH 136 0
BBX 122 111 6 0
BITMAP
000000000003FFFFFFFFFFFFFFFFE000
00000000007FFFFFFFFFFFFFFFFFE000
0000000007FFFFFFFFFFFFFFFFFFE000
000000003FFFFFFFFFFFFFFFFFFFE000
00000001FFFFFFFFFFFFFFFFFFFFE000
00000007FFFFFFFFFFFFFFFFFFFFE000
0000001FFFFFFFFFFFFFFFFFFFFFE000
0000007FFFFFFFFFFFFFFFFFFFFFE000
000000FFFFFFFFFFFFFFFFFFFFFFE000
000003FFFFFFFFFFFFFFFFFFFFFFE000
000007FFFFFFFFFFFFFFFFFFFFFFE000
00000FFFFFFFFFFFFFFFFFFFFFFFE000
00003FFFFFFFFFFFFFFFFFFFFFFFE000
00007FFFFFFFFFFFFFFFFFFFFFFFE000
0000FFFFFFFFFFFFFFFFFFFFFFFFE000
0001FFFFFFFFFFFFFFFFFFFFFFFFE000
0003FFFFFFFFFFFFFFFFFFFFFFFFE000
0007FFFFFFFFFFFFFFFFFFFFFFFFE000
000FFFFFFFFFFFFFFFFFFFFFFFFFE000
000FFFFFFFFFF0000000000000000000
001FFFFFFFF800000000000000000000
003FFFFFFFC000000000000000000000
007FFFFFFF0000000000000000000000
007FFFFFFC0000000000000000000000
00FFFFFFF00000000000000000000000
00FFFFFFC00000000000000000000000
01FFFFFF800000000000000000000000
01FFFFFF000000000000000000000000
03FFFFFE000000000000000000000000
03FFFFFC000000000000000000000000
07FFFFF8000000000000000000000000
07FFFFF0000000000000000000000000
0FFFFFE0000000000000000000000000
0FFFFFC0000000000000000000000000
0FFFFFC0000000000000000000000000
1FFFFF80000000000000000000000000
1FFFFF00000000000000000000000000
1FFFFF00000000000000000000000000
3FFFFE00000000000000000000000000
3FFFFE00000000000000000000000000
3FFFFE00000000000000000000000000
3FFFFC00000000000000000000000000
7FFFFC00000000000000000000000000
7FFFF800000000000000000000000000
7FFFF800000000000000000000000000
7FFFF800000000000000000000000000
7FFFF800000000000000000000000000
7FFFF80000000FFFFFFFFFFFFFFFFFC0
7FFFF00000000FFFFFFFFFFFFFFFFFC0
7FFFF00000000FFFFFFFFFFFFFFFFFC0
7FFFF00000000FFFFFFFFFFFFFFFFFC0
FFFFF00000000FFFFFFFFFFFFFFFFFC0
FFFFF00000000FFFFFFFFFFFFFFFFFC0
FFFFF00000000FFFFFFFFFFFFFFFFFC0
FFFFF00000000FFFFFFFFFFFFFFFFFC0
FFFFF00000000FFFFFFFFFFFFFFFFFC0
FFFFF00000000FFFFFFFFFFFFFFFFFC0
FFFFF00000000FFFFFFFFFFFFFFFFFC0
7FFFF00000000FFFFFFFFFFFFFFFFFC0
7FFFF00000000FFFFFFFFFFFFFFFFFC0
7FFFF00000000FFFFFFFFFFFFFFFFFC0
7FFFF00000000FFFFFFFFFFFFFFFFFC0
7FFFF00000000FFFFFFFFFFFFFFFFFC0
7FFFF800000000000000000003FFFFC0
7FFFF800000000000000000003FFFFC0
7FFFF800000000000000000003FFFFC0
3FFFF800000000000000000003FFFFC0
3FFFFC00000000000000000003FFFFC0
3FFFFC00000000000000000003FFFFC0
3FFFFC00000000000000000003FFFFC0
3FFFFE00000000000000000003FFFFC0
1FFFFE00000000000000000003FFFFC0
1FFFFF00000000000000000003FFFFC0
1FFFFF00000000000000000003FFFFC0
0FFFFF80000000000000000003FFFFC0
0FFFFF80000000000000000003FFFFC0
0FFFFFC0000000000000000003FFFFC0
07FFFFE0000000000000000003FFFFC0
07FFFFE0000000000000000003FFFFC0
03FFFFF0000000000000000003FFFFC0
03FFFFF8000000000000000003FFFFC0
01FFFFFC000000000000000003FFFFC0
01FFFFFE000000000000000003FFFFC0
00FFFFFF000000000000000003FFFFC0
00FFFFFF800000000000000003FFFFC0
007FFFFFE00000000000000003FFFFC0
007FFFFFF00000000000000003FFFFC0
003FFFFFFC0000000000000003FFFFC0
001FFFFFFF0000000000000003FFFFC0
001FFFFFFFC000000000000003FFFFC0
000FFFFFFFF800000000000003FFFFC0
0007FFFFFFFFF0000000000003FFFFC0
0003FFFFFFFFFFFFFFFFFFFFFFFFFFC0
0001FFFFFFFFFFFFFFFFFFFFFFFFFFC0
0000FFFFFFFFFFFFFFFFFFFFFFFFFFC0
00007FFFFFFFFFFFFFFFFFFFFFFFFFC0
00003FFFFFFFFFFFFFFFFFFFFFFFFFC0
00001FFFFFFFFFFFFFFFFFFFFFFFFFC0
00000FFFFFFFFFFFFFFFFFFFFFFFFFC0
000007FFFFFFFFFFFFFFFFFFFFFFFFC0
000003FFFFFFFFFFFFFFFFFFFFFFFFC0
000000FFFFFFFFFFFFFFFFFFFFFFFFC0
0000007FFFFFFFFFFFFFFFFFFFFFFFC0
0000001FFFFFFFFFFFFFFFFFFFFFFFC0
00000007FFFFFFFFFFFFFFFFFFFFFFC0
00000003FFFFFFFFFFFFFFFFFFFFFFC0
000000007FFFFFFFFFFFFFFFFFFFFFC0
000000001FFFFFFFFFFFFFFFFFFFFFC0
0000000003FFFFFFFFFFFFFFFFFFFFC0
00000000007FFFFFFFFFFFFFFFFFFFC0
000000000003FFFFFFFFFFFFFFFFFFC0
ENDCHAR
STARTCHAR H
ENCODING 72
SWIDTH 838 0
DWIDTH 128 0
BBX 109 111 10 0
BITMAP
FFFFE000000000000000007FFFF8
FFFFE000000000000000007FFFF8
FFFFE000000000000000007FFFF8
FFFFE000000000000000007FFFF8
FFFFE000000000000000007FFFF8
FFFFE000000000000000007FFFF8
FFFFE000000000000000007FFFF8
FFFFE000000000000000007FFFF8
FFFFE000000000000000007FFFF8
FFFFE000000000000000007FFFF8
FFFFE000000000000000007FFFF8
FFFFE000000000000000007FFFF8
FFFFE000000000000000007FFFF8
FFFFE000000000000000007FFFF8
FFFFE000000000000000007FFFF8
FFFFE000000000000000007FFFF8
FFFFE000000000000000007FFFF8
FFFFE000000000000000007FFFF8
FFFFE000000000000000007FFFF8
FFFFE000000000000000007FFFF8
FFFFE000000000000000007FFFF8
FFFFE000000000000000007FFFF8
FFFFE000000000000000007FFFF8
FFFFE000000000000000007FFFF8
FFFFE000000000000000007FFFF8
FFFFE000000000000000007FFFF8
FFFFE000000000000000007FFFF8
FFFFE000000000000000007FFFF8
FFFFE000000000000000007FFFF8
FFFFE000000000000000007FFFF8
FFFFE000000000000000007FFFF8
FFFFE000000000000000007FFFF8
FFFFE000000000000000007FFFF8
FFFFE000000000000000007FFFF8
FFFFE000000000000000007FFFF8
FFFFE000000000000000007FFFF8
FFFFE000000000000000007FFFF8
FFFFE000000000000000007FFFF8
FFFFE000000000000000007FFFF8
FFFFE000000000000000007FFFF8
FFFFE000000000000000007FFFF8
FFFFE000000000000000007FFFF8
FFFFE000000000000000007FFFF8
FFFFE000000000000000007FFFF8
FFFFE000000000000000007FFFF8
FFFFE000000000000000007FFFF8
FFFFE0007FFFFFFFFFFFFFFFFFF8
FFFFE0007FFFFFFFFFFFFFFFFFF8
FFFFE0007FFFFFFFFFFFFFFFFFF8
FFFFE0007FFFFFFFFFFFFFFFFFF8
FFFFE0007FFFFFFFFFFFFFFFFFF8
FFFFE0007FFFFFFFFFFFFFFFFFF8
FFFFE0007FFFFFFFFFFFFFFFFFF8
FFFFE0007FFFFFFFFFFFFFFFFFF8
FFFFE0007FFFFFFFFFFFFFFFFFF8
FFFFE0007FFFFFFFFFFFFFFFFFF8
FFFFE0007FFFFFFFFFFFFFFFFFF8
FFFFE0007FFFFFFFFFFFFFFFFFF8
FFFFE0007FFFFFFFFFFFFFFFFFF8
FFFFE0007FFFFFFFFFFFFFFFFFF8
FFFFE0007FFFFFFFFFFFFFFFFFF8
FFFFE0007FFFFFFFFFFFFFFFFFF8
FFFFE0007FFFFFFFFFFFFFFFFFF8
FFFFE000000000000000007FFFF8
FFFFE000000000000000007FFFF8
FFFFE000000000000000007FFFF8
FFFFE000000000000000007FFFF8
FFFFE000000000000000007FFFF8
FFFFE000000000000000007FFFF8
FFFFE000000000000000007FFFF8
FFFFE000000000000000007FFFF8
FFFFE000000000000000007FFFF8
FFFFE000000000000000007FFFF8
FFFFE000000000000000007FFFF8
FFFFE000000000000000007FFFF8
FFFFE000000000000000007FFFF8
FFFFE000000000000000007FFFF8
FFFFE000000000000000007FFFF8
FFFFE000000000000000007FFFF8
FFFFE000000000000000007FFFF8
FFFFE000000000000000007FFFF8
FFFFE000000000000000007FFFF8
FFFFE000000000000000007FFFF8
FFFFE000000000000000007FFFF8
FFFFE000000000000000007FFFF8
FFFFE000000000000000007FFFF8
FFFFE000000000000000007FFFF8
FFFFE000000000000000007FFFF8
FFFFE000000000000000007FFFF8
FFFFE000000000000000007FFFF8
FFFFE000000000000000007FFFF8
FFFFE000000000000000007FFFF8
FFFFE000000000000000007FFFF8
FFFFE000000000000000007FFFF8
FFFFE000000000000000007FFFF8
FFFFE000000000000000007FFFF8
FFFFE000000000000000007FFFF8
FFFFE000000000000000007FFFF8
FFFFE000000000000000007FFFF8
FFFFE000000000000000007FFFF8
FFFFE000000000000000007FFFF8
FFFFE000000000000000007FFFF8
FFFFE000000000000000007FFFF8
FFFFE000000000000000007FFFF8
FFFFE000000000000000007FFFF8
FFFFE000000000000000007FFFF8
FFFFE000000000000000007FFFF8
FFFFE000000000000000007FFFF8
FFFFE000000000000000007FFFF8
FFFFE000000000000000007FFFF8
FFFFE000000000000000007FFFF8
ENDCHAR
STARTCHAR I
ENCODING 73
SWIDTH 267 0
DWIDTH 41 0
BBX 19 111 11 0
BITMAP
FFFFE0
FFFFE0
FFFFE0
FFFFE0
FFFFE0
FFFFE0
FFFFE0
FFFFE0
FFFFE0
FFFFE0
FFFFE0
FFFFE0
FFFFE0
FFFFE0
FFFFE0
FFFFE0
FFFFE0
FFFFE0
FFFFE0
FFFFE0
FFFFE0
FFFFE0
FFFFE0
FFFFE0
FFFFE0
FFFFE0
FFFFE0
FFFFE0
FFFFE0
FFFFE0
FFFFE0
FFFFE0
FFFFE0
FFFFE0
FFFFE0
FFFFE0
FFFFE0
FFFFE0
FFFFE0
FFFFE0
FFFFE0
FFFFE0
FFFFE0
FFFFE0
FFFFE0
FFFFE0
FFFFE0
FFFFE0
FFFFE0
FFFFE0
FFFFE0
FFFFE0
FFFFE0
FFFFE0
FFFFE0
FFFFE0
FFFFE0
FFFFE0
FFFFE0
FFFFE0
FFFFE0
FFFFE0
FFFFE0
FFFFE0
FFFFE0
FFFFE0
FFFFE0
FFFFE0
FFFFE0
FFFFE0
FFFFE0
FFFFE0
FFFFE0
FFFFE0
FFFFE0
FFFFE0
FFFFE0
FFFFE0
FFFFE0
FFFFE0
FFFFE0
FFFFE0
FFFFE0
FFFFE0
FFFFE0
FFFFE0
FFFFE0
FFFFE0
FFFFE0
FFFFE0
FFFFE0
FFFFE0
FFFFE0
FFFFE0
FFFFE0
FFFFE0
FFFFE0
FFFFE0
FFFFE0
FFFFE0
FFFFE0
FFFFE0
FFFFE0
FFFFE0
FFFFE0
FFFFE0
FFFFE0
FFFFE0
FFFFE0
FFFFE0
FFFFE0
ENDCHAR
STARTCHAR J
ENCODING 74
SWIDTH 708 0
DWIDTH 108 0
BBX 96 111 4 0
BITMAP
00000000000000000007FFFF
00000000000000000007FFFF
00000000000000000007FFFF
00000000000000000007FFFF
00000000000000000007FFFF
00000000000000000007FFFF
00000000000000000007FFFF
00000000000000000007FFFF
00000000000000000007FFFF
00000000000000000007FFFF
00000000000000000007FFFF
00000000000000000007FFFF
00000000000000000007FFFF
00000000000000000007FFFF
00000000000000000007FFFF
00000000000000000007FFFF
00000000000000000007FFFF
00000000000000000007FFFF
00000000000000000007FFFF
00000000000000000007FFFF
00000000000000000007FFFF
00000000000000000007FFFF
00000000000000000007FFFF
00000000000000000007FFFF
00000000000000000007FFFF
00000000000000000007FFFF
00000000000000000007FFFF
00000000000000000007FFFF
00000000000000000007FFFF
00000000000000000007FFFF
00000000000000000007FFFF
00000000000000000007FFFF
00000000000000000007FFFF
00000000000000000007FFFF
00000000000000000007FFFF
00000000000000000007FFFF
00000000000000000007FFFF
00000000000000000007FFFF
00000000000000000007FFFF
00000000000000000007FFFF
00000000000000000007FFFF
00000000000000000007FFFF
00000000000000000007FFFF
00000000000000000007FFFF
00000000000000000007FFFF
00000000000000000007FFFF
00000000000000000007FFFF
00000000000000000007FFFF
00000000000000000007FFFF
00000000000000000007FFFF
00000000000000000007FFFF
00000000000000000007FFFF
00000000000000000007FFFF
00000000000000000007FFFF
00000000000000000007FFFF
00000000000000000007FFFF
00000000000000000007FFFF
00000000000000000007FFFF
00000000000000000007FFFF
00000000000000000007FFFF
00000000000000000007FFFF
00000000000000000007FFFF
00000000000000000007FFFF
00000000000000000007FFFF
00000000000000000007FFFF
00000000000000000007FFFF
00000000000000000007FFFF
0000000000000000000FFFFF
0000000000000000000FFFFF
0000000000000000000FFFFF
0000000000000000000FFFFF
0000000000000000000FFFFF
0000000000000000001FFFFF
0000000000000000001FFFFE
0000000000000000001FFFFE
0000000000000000003FFFFE
0000000000000000003FFFFE
0000000000000000007FFFFE
0000000000000000007FFFFC
000000000000000000FFFFFC
000000000000000000FFFFFC
000000000000000001FFFFF8
000000000000000003FFFFF8
000000000000000007FFFFF8
00000000000000000FFFFFF0
00000000000000001FFFFFF0
00000000000000007FFFFFF0
0000000000000001FFFFFFE0
0000000000000007FFFFFFE0
000000000000003FFFFFFFC0
00000000000003FFFFFFFF80
00000000003FFFFFFFFFFF80
FFFFFFFFFFFFFFFFFFFFFF00
FFFFFFFFFFFFFFFFFFFFFE00
FFFFFFFFFFFFFFFFFFFFFE00
FFFFFFFFFFFFFFFFFFFFFC00
FFFFFFFFFFFFFFFFFFFFF800
FFFFFFFFFFFFFFFFFFFFF000
FFFFFFFFFFFFFFFFFFFFE000
FFFFFFFFFFFFFFFFFFFFC000
FFFFFFFFFFFFFFFFFFFF8000
FFFFFFFFFFFFFFFFFFFE0000
FFFFFFFFFFFFFFFFFFFC0000
FFFFFFFFFFFFFFFFFFF00000
FFFFFFFFFFFFFFFFFFC00000
FFFFFFFFFFFFFFFFFF000000
FFFFFFFFFFFFFFFFFC000000
FFFFFFFFFFFFFFFFE0000000
FFFFFFFFFFFFFFFE00000000
FFFFFFFFFFFFFFE000000000
FFFFFFFFFFFFE00000000000
ENDCHAR
STARTCHAR K
ENCODING 75
SWIDTH 875 0
DWIDTH 134 0
BBX 121 111 10 0
BITMAP
FFFFE00000000000000000FFFFFFFE00
FFFFE00000000000000001FFFFFFF800
FFFFE00000000000000003FFFFFFE000
FFFFE0000000000000000FFFFFFFC000
FFFFE0000000000000001FFFFFFF8000
FFFFE0000000000000003FFFFFFE0000
FFFFE000000000000000FFFFFFFC0000
FFFFE000000000000001FFFFFFF80000
FFFFE000000000000003FFFFFFE00000
FFFFE00000000000000FFFFFFFC00000
FFFFE00000000000001FFFFFFF800000
FFFFE00000000000003FFFFFFE000000
FFFFE00000000000007FFFFFFC000000
FFFFE0000000000001FFFFFFF8000000
FFFFE0000000000003FFFFFFF0000000
FFFFE0000000000007FFFFFFC0000000
FFFFE000000000001FFFFFFF80000000
FFFFE000000000003FFFFFFF00000000
FFFFE000000000007FFFFFFC00000000
FFFFE00000000001FFFFFFF800000000
FFFFE00000000003FFFFFFF000000000
FFFFE00000000007FFFFFFC000000000
FFFFE0000000001FFFFFFF8000000000
FFFFE0000000003FFFFFFF0000000000
FFFFE0000000007FFFFFFC0000000000
FFFFE000000000FFFFFFF80000000000
FFFFE000000003FFFFFFF00000000000
FFFFE000000007FFFFFFC00000000000
FFFFE00000000FFFFFFF800000000000
FFFFE00000003FFFFFFF000000000000
FFFFE00000007FFFFFFC000000000000
FFFFE0000000FFFFFFF8000000000000
FFFFE0000003FFFFFFF0000000000000
FFFFE0000007FFFFFFC0000000000000
FFFFE000000FFFFFFF80000000000000
FFFFE000001FFFFFFF00000000000000
FFFFE000007FFFFFFC00000000000000
FFFFE00000FFFFFFF800000000000000
FFFFE00001FFFFFFF000000000000000
FFFFE00007FFFFFFC000000000000000
FFFFE0000FFFFFFF8000000000000000
FFFFE0001FFFFFFF0000000000000000
FFFFE0007FFFFFFC0000000000000000
FFFFE000FFFFFFF80000000000000000
FFFFE001FFFFFFF00000000000000000
FFFFE003FFFFFFE00000000000000000
FFFFE00FFFFFFF800000000000000000
FFFFE01FFFFFFF000000000000000000
FFFFE03FFFFFFE000000000000000000
FFFFE03FFFFFF8000000000000000000
FFFFE03FFFFFF0000000000000000000
FFFFE07FFFFFE0000000000000000000
FFFFE07FFFFF80000000000000000000
FFFFE07FFFFF00000000000000000000
FFFFE07FFFFE00000000000000000000
FFFFE07FFFFC00000000000000000000
FFFFE07FFFFF00000000000000000000
FFFFE07FFFFF80000000000000000000
FFFFE03FFFFFC0000000000000000000
FFFFE03FFFFFF0000000000000000000
FFFFE01FFFFFF8000000000000000000
FFFFE00FFFFFFC000000000000000000
FFFFE007FFFFFF000000000000000000
FFFFE001FFFFFF800000000000000000
FFFFE000FFFFFFC00000000000000000
FFFFE0007FFFFFF00000000000000000
FFFFE0001FFFFFF80000000000000000
FFFFE0000FFFFFFE0000000000000000
FFFFE00007FFFFFF0000000000000000
FFFFE00003FFFFFF8000000000000000
FFFFE00000FFFFFFE000000000000000
FFFFE000007FFFFFF000000000000000
FFFFE000003FFFFFF800000000000000
FFFFE000001FFFFFFE00000000000000
FFFFE0000007FFFFFF00000000000000
FFFFE0000003FFFFFF80000000000000
FFFFE0000001FFFFFFE0000000000000
FFFFE00000007FFFFFF0000000000000
FFFFE00000003FFFFFF8000000000000
FFFFE00000001FFFFFFE000000000000
FFFFE00000000FFFFFFF000000000000
FFFFE000000003FFFFFF800000000000
FFFFE000000001FFFFFFE00000000000
FFFFE000000000FFFFFFF00000000000
FFFFE0000000007FFFFFF80000000000
FFFFE0000000001FFFFFFE0000000000
FFFFE0000000000FFFFFFF0000000000
FFFFE00000000007FFFFFF8000000000
FFFFE00000000001FFFFFFE000000000
FFFFE00000000000FFFFFFF000000000
FFFFE000000000007FFFFFF800000000
FFFFE000000000003FFFFFFE00000000
FFFFE000000000000FFFFFFF00000000
FFFFE0000000000007FFFFFF80000000
FFFFE0000000000003FFFFFFE0000000
FFFFE0000000000000FFFFFFF0000000
FFFFE00000000000007FFFFFFC000000
FFFFE00000000000003FFFFFFE000000
FFFFE00000000000001FFFFFFF000000
FFFFE000000000000007FFFFFFC00000
FFFFE000000000000003FFFFFFE00000
FFFFE000000000000001FFFFFFF00000
FFFFE000000000000000FFFFFFFC0000
FFFFE0000000000000003FFFFFFE0000
FFFFE0000000000000001FFFFFFF0000
FFFFE0000000000000000FFFFFFFC000
FFFFE00000000000000003FFFFFFE000
FFFFE00000000000000001FFFFFFF000
FFFFE00000000000000000FFFFFFFC00
FFFFE000000000000000007FFFFFFE00
FFFFE000000000000000001FFFFFFF80
ENDCHAR
STARTCHAR L
ENCODING 76
SWIDTH 707 0
DWIDTH 108 0
BBX 94 111 10 0
BITMAP
FFFFE0000000000000000000
FFFFE0000000000000000000
FFFFE0000000000000000000
FFFFE0000000000000000000
FFFFE0000000000000000000
FFFFE0000000000000000000
FFFFE0000000000000000000
FFFFE0000000000000000000
FFFFE0000000000000000000
FFFFE0000000000000000000
FFFFE0000000000000000000
FFFFE0000000000000000000
FFFFE0000000000000000000
FFFFE0000000000000000000
FFFFE0000000000000000000
FFFFE0000000000000000000
FFFFE0000000000000000000
FFFFE0000000000000000000
FFFFE0000000000000000000
FFFFE0000000000000000000
FFFFE0000000000000000000
FFFFE0000000000000000000
FFFFE0000000000000000000
FFFFE0000000000000000000
FFFFE0000000000000000000
FFFFE0000000000000000000
FFFFE0000000000000000000
FFFFE0000000000000000000
FFFFE0000000000000000000
FFFFE0000000000000000000
FFFFE0000000000000000000
FFFFE0000000000000000000
FFFFE0000000000000000000
FFFFE0000000000000000000
FFFFE0000000000000000000
FFFFE0000000000000000000
FFFFE0000000000000000000
FFFFE0000000000000000000
FFFFE0000000000000000000
FFFFE0000000000000000000
FFFFE0000000000000000000
FFFFE0000000000000000000
FFFFE0000000000000000000
FFFFE0000000000000000000
FFFFE0000000000000000000
FFFFE0000000000000000000
FFFFE0000000000000000000
FFFFE0000000000000000000
FFFFE0000000000000000000
FFFFE0000000000000000000
FFFFE0000000000000000000
FFFFE0000000000000000000
FFFFE0000000000000000000
FFFFE0000000000000000000
FFFFE0000000000000000000
FFFFE0000000000000000000
FFFFE0000000000000000000
FFFFE0000000000000000000
FFFFE0000000000000000000
FFFFE0000000000000000000
FFFFE0000000000000000000
FFFFE0000000000000000000
FFFFE0000000000000000000
FFFFE0000000000000000000
FFFFE0000000000000000000
FFFFE0000000000000000000
FFFFE0000000000000000000
FFFFE0000000000000000000
FFFFE0000000000000000000
FFFFE0000000000000000000
FFFFE0000000000000000000
FFFFE0000000000000000000
FFFFE0000000000000000000
FFFFE0000000000000000000
FFFFE0000000000000000000
FFFFE0000000000000000000
FFFFE0000000000000000000
FFFFE0000000000000000000
FFFFE0000000000000000000
FFFFE0000000000000000000
FFFFE0000000000000000000
FFFFE0000000000000000000
FFFFE0000000000000000000
FFFFE0000000000000000000
FFFFE0000000000000000000
FFFFE0000000000000000000
FFFFE0000000000000000000
FFFFE0000000000000000000
FFFFE0000000000000000000
FFFFE0000000000000000000
FFFFE0000000000000000000
FFFFE0000000000000000000
FFFFFFFFFFFFFFFFFFFFFFFC
FFFFFFFFFFFFFFFFFFFFFFFC
FFFFFFFFFFFFFFFFFFFFFFFC
FFFFFFFFFFFFFFFFFFFFFFFC
FFFFFFFFFFFFFFFFFFFFFFFC
FFFFFFFFFFFFFFFFFFFFFFFC
FFFFFFFFFFFFFFFFFFFFFFFC
FFFFFFFFFFFFFFFFFFFFFFFC
FFFFFFFFFFFFFFFFFFFFFFFC
FFFFFFFFFFFFFFFFFFFFFFFC
FFFFFFFFFFFFFFFFFFFFFFFC
FFFFFFFFFFFFFFFFFFFFFFFC
FFFFFFFFFFFFFFFFFFFFFFFC
FFFFFFFFFFFFFFFFFFFFFFFC
FFFFFFFFFFFFFFFFFFFFFFFC
FFFFFFFFFFFFFFFFFFFFFFFC
FFFFFFFFFFFFFFFFFFFFFFFC
FFFFFFFFFFFFFFFFFFFFFFFC
FFFFFFFFFFFFFFFFFFFFFFFC
ENDCHAR
STARTCHAR M
ENCODING 77
SWIDTH 1115 0
DWIDTH 171 0
BBX 163 113 4 -2
BITMAP
000000003F800000000000000000003F8000000000
00000000FFE0000000000000000000FFE000000000
00000001FFF8000000000000000001FFF000000000
00000003FFFC000000000000000003FFF800000000
00000003FFFE000000000000000007FFFC00000000
00000007FFFE000000000000000007FFFC00000000
00000007FFFF00000000000000000FFFFC00000000
0000000FFFFF00000000000000000FFFFE00000000
0000000FFFFF80000000000000001FFFFE00000000
0000000FFFFF80000000000000001FFFFE00000000
0000000FFFFFC0000000000000003FFFFF00000000
0000001FFFFFC0000000000000003FFFFF00000000
0000001FFFFFC0000000000000003FFFFF00000000
0000001FFFFFE0000000000000007FFFFF00000000
0000003FFFFFE0000000000000007FFFFF80000000
0000003FFFFFF000000000000000FFFFFF80000000
0000003FFFFFF000000000000000FFFFFF80000000
0000003FFFFFF800000000000001FFFFFFC0000000
0000007FFFFFF800000000000001FFFFFFC0000000
0000007FFFFFF800000000000003FFFFFFC0000000
0000007FFFFFFC00000000000003FFFFFFC0000000
000000FFFFFFFC00000000000003FFFFFFE0000000
000000FFFFFFFE00000000000007FFFFFFE0000000
000000FFFFFFFE00000000000007FFFFFFE0000000
000000FFFFFFFF0000000000000FFFFFFFF0000000
000001FFFFFFFF0000000000000FFFFFFFF0000000
000001FFFFFFFF8000000000001FFFFFFFF0000000
000001FFFFFFFF8000000000001FFFFFFFF0000000
000001FFFFFFFF8000000000001FFFFFFFF8000000
000003FFFFFFFFC000000000003FFFFFFFF8000000
000003FFFFFFFFC000000000003FFFFFFFF8000000
000003FFFFFFFFE000000000007FFFFFFFF8000000
000007FFFFFFFFE000000000007FFFFFFFFC000000
000007FFFFFFFFF00000000000FFFFFFFFFC000000
000007FFFFFFFFF00000000000FFFFFFFFFC000000
000007FFFF7FFFF80000000001FFFFDFFFFE000000
00000FFFFE7FFFF80000000001FFFFDFFFFE000000
00000FFFFE3FFFF80000000001FFFF8FFFFE000000
00000FFFFE3FFFFC0000000003FFFF8FFFFE000000
00001FFFFE3FFFFC0000000003FFFF8FFFFF000000
00001FFFFC1FFFFE0000000007FFFF07FFFF000000
00001FFFFC1FFFFE0000000007FFFF07FFFF000000
00001FFFFC0FFFFF000000000FFFFE07FFFF000000
00003FFFF80FFFFF000000000FFFFE07FFFF800000
00003FFFF807FFFF000000001FFFFC03FFFF800000
00003FFFF807FFFF800000001FFFFC03FFFF800000
00003FFFF807FFFF800000001FFFF803FFFFC00000
00007FFFF003FFFFC00000003FFFF801FFFFC00000
00007FFFF003FFFFC00000003FFFF801FFFFC00000
00007FFFF001FFFFE00000007FFFF001FFFFC00000
0000FFFFF001FFFFE00000007FFFF001FFFFE00000
0000FFFFE000FFFFF0000000FFFFE000FFFFE00000
0000FFFFE000FFFFF0000000FFFFE000FFFFE00000
0000FFFFE0007FFFF0000001FFFFC000FFFFF00000
0001FFFFC0007FFFF8000001FFFFC000FFFFF00000
0001FFFFC0007FFFF8000001FFFF80007FFFF00000
0001FFFFC0003FFFFC000003FFFF80007FFFF00000
0003FFFFC0003FFFFC000003FFFF80007FFFF80000
0003FFFF80001FFFFE000007FFFF00003FFFF80000
0003FFFF80001FFFFE000007FFFF00003FFFF80000
0003FFFF80000FFFFF00000FFFFE00003FFFF80000
0007FFFF80000FFFFF00000FFFFE00003FFFFC0000
0007FFFF000007FFFF00001FFFFC00001FFFFC0000
0007FFFF000007FFFF80001FFFFC00001FFFFC0000
0007FFFF000007FFFF80001FFFF800001FFFFE0000
000FFFFE000003FFFFC0003FFFF800000FFFFE0000
000FFFFE000003FFFFC0003FFFF800000FFFFE0000
000FFFFE000001FFFFE0007FFFF000000FFFFE0000
001FFFFE000001FFFFE0007FFFF000000FFFFF0000
001FFFFC000000FFFFF000FFFFE0000007FFFF0000
001FFFFC000000FFFFF000FFFFE0000007FFFF0000
001FFFFC0000007FFFF000FFFFC0000007FFFF0000
003FFFF80000007FFFF801FFFFC0000007FFFF8000
003FFFF80000007FFFF801FFFF80000003FFFF8000
003FFFF80000003FFFFC03FFFF80000003FFFF8000
003FFFF80000003FFFFC03FFFF80000003FFFFC000
007FFFF00000001FFFFE07FFFF00000001FFFFC000
007FFFF00000001FFFFE07FFFF00000001FFFFC000
007FFFF00000000FFFFF0FFFFE00000001FFFFC000
00FFFFF00000000FFFFF0FFFFE00000001FFFFE000
00FFFFE00000000FFFFF0FFFFC00000000FFFFE000
00FFFFE000000007FFFF9FFFFC00000000FFFFE000
00FFFFE000000007FFFF9FFFF800000000FFFFF000
01FFFFC000000003FFFFFFFFF800000000FFFFF000
01FFFFC000000003FFFFFFFFF8000000007FFFF000
01FFFFC000000001FFFFFFFFF0000000007FFFF000
03FFFFC000000001FFFFFFFFF0000000007FFFF800
03FFFF8000000000FFFFFFFFE0000000003FFFF800
03FFFF8000000000FFFFFFFFE0000000003FFFF800
03FFFF8000000000FFFFFFFFC0000000003FFFF800
07FFFF00000000007FFFFFFFC0000000003FFFFC00
07FFFF00000000007FFFFFFF80000000001FFFFC00
07FFFF00000000003FFFFFFF80000000001FFFFC00
07FFFF00000000003FFFFFFF80000000001FFFFE00
0FFFFE00000000001FFFFFFF00000000000FFFFE00
0FFFFE00000000001FFFFFFF00000000000FFFFE00
0FFFFE00000000000FFFFFFE00000000000FFFFE00
1FFFFE00000000000FFFFFFE00000000000FFFFF00
1FFFFC00000000000FFFFFFC000000000007FFFF00
1FFFFC000000000007FFFFFC000000000007FFFF00
1FFFFC000000000007FFFFF8000000000007FFFF00
3FFFF8000000000003FFFFF8000000000007FFFF80
3FFFF8000000000003FFFFF8000000000003FFFF80
3FFFF8000000000001FFFFF0000000000003FFFF80
7FFFF8000000000001FFFFF0000000000003FFFFC0
7FFFF0000000000000FFFFE0000000000001FFFFC0
7FFFF0000000000000FFFFE0000000000001FFFFC0
7FFFF00000000000007FFFC0000000000001FFFFC0
FFFFE00000000000007FFF80000000000001FFFFE0
FFFFE00000000000003FFF00000000000000FFFFE0
FFFFE00000000000001FFE00000000000000FFFFE0
00000000000000000007FC00000000000000000000
000000000000000000004000000000000000000000
ENDCHAR
STARTCHAR N
ENCODING 78
SWIDTH 873 0
DWIDTH 134 0
BBX 115 111 9 0
BITMAP
01F8000000000000000000007FFFE0
07FE000000000000000000007FFFE0
1FFF800000000000000000007FFFE0
1FFFC00000000000000000007FFFE0
3FFFE00000000000000000007FFFE0
7FFFF00000000000000000007FFFE0
7FFFF80000000000000000007FFFE0
7FFFFC0000000000000000007FFFE0
FFFFFE0000000000000000007FFFE0
FFFFFF0000000000000000007FFFE0
FFFFFF8000000000000000007FFFE0
FFFFFFC000000000000000007FFFE0
FFFFFFE000000000000000007FFFE0
FFFFFFF000000000000000007FFFE0
FFFFFFF800000000000000007FFFE0
FFFFFFFC00000000000000007FFFE0
FFFFFFFE00000000000000007FFFE0
FFFFFFFF00000000000000007FFFE0
FFFFFFFF80000000000000007FFFE0
FFFFFFFFC0000000000000007FFFE0
FFFFFFFFE0000000000000007FFFE0
FFFFFFFFF0000000000000007FFFE0
FFFFFFFFF8000000000000007FFFE0
FFFFFFFFFC000000000000007FFFE0
FFFFFFFFFE000000000000007FFFE0
FFFFFFFFFF000000000000007FFFE0
FFFFFFFFFF800000000000007FFFE0
FFFFFFFFFFC00000000000007FFFE0
FFFFFFFFFFE00000000000007FFFE0
FFFFFFFFFFF80000000000007FFFE0
FFFFFFFFFFFC0000000000007FFFE0
FFFFFFFFFFFE0000000000007FFFE0
FFFFEFFFFFFF0000000000007FFFE0
FFFFE7FFFFFF8000000000007FFFE0
FFFFE3FFFFFFC000000000007FFFE0
FFFFE1FFFFFFE000000000007FFFE0
FFFFE0FFFFFFF000000000007FFFE0
FFFFE07FFFFFF800000000007FFFE0
FFFFE03FFFFFFC00000000007FFFE0
FFFFE01FFFFFFE00000000007FFFE0
FFFFE00FFFFFFF00000000007FFFE0
FFFFE007FFFFFF80000000007FFFE0
FFFFE003FFFFFFC0000000007FFFE0
FFFFE001FFFFFFE0000000007FFFE0
FFFFE0007FFFFFF0000000007FFFE0
FFFFE0003FFFFFF8000000007FFFE0
FFFFE0001FFFFFFC000000007FFFE0
FFFFE0000FFFFFFE000000007FFFE0
FFFFE00007FFFFFF000000007FFFE0
FFFFE00003FFFFFF800000007FFFE0
FFFFE00001FFFFFFC00000007FFFE0
FFFFE00000FFFFFFE00000007FFFE0
FFFFE000007FFFFFF00000007FFFE0
FFFFE000003FFFFFF80000007FFFE0
FFFFE000001FFFFFFC0000007FFFE0
FFFFE000000FFFFFFE0000007FFFE0
FFFFE0000007FFFFFF0000007FFFE0
FFFFE0000003FFFFFF8000007FFFE0
FFFFE0000001FFFFFFC000007FFFE0
FFFFE0000000FFFFFFE000007FFFE0
FFFFE00000007FFFFFF000007FFFE0
FFFFE00000003FFFFFF800007FFFE0
FFFFE00000001FFFFFFC00007FFFE0
FFFFE00000000FFFFFFE00007FFFE0
FFFFE000000007FFFFFF00007FFFE0
FFFFE000000003FFFFFF80007FFFE0
FFFFE000000001FFFFFFC0007FFFE0
FFFFE000000000FFFFFFE0007FFFE0
FFFFE0000000007FFFFFF0007FFFE0
FFFFE0000000003FFFFFF8007FFFE0
FFFFE0000000001FFFFFFC007FFFE0
FFFFE0000000000FFFFFFE007FFFE0
FFFFE00000000007FFFFFF007FFFE0
FFFFE00000000003FFFFFF807FFFE0
FFFFE00000000001FFFFFFC07FFFE0
FFFFE00000000000FFFFFFE07FFFE0
FFFFE000000000007FFFFFF87FFFE0
FFFFE000000000001FFFFFFC7FFFE0
FFFFE000000000000FFFFFFE7FFFE0
FFFFE0000000000007FFFFFF7FFFE0
FFFFE0000000000003FFFFFFFFFFE0
FFFFE0000000000001FFFFFFFFFFE0
FFFFE0000000000000FFFFFFFFFFE0
FFFFE00000000000007FFFFFFFFFE0
FFFFE00000000000003FFFFFFFFFE0
FFFFE00000000000001FFFFFFFFFE0
FFFFE00000000000000FFFFFFFFFE0
FFFFE000000000000007FFFFFFFFE0
FFFFE000000000000003FFFFFFFFE0
FFFFE000000000000001FFFFFFFFE0
FFFFE000000000000000FFFFFFFFE0
FFFFE0000000000000007FFFFFFFE0
FFFFE0000000000000003FFFFFFFE0
FFFFE0000000000000001FFFFFFFE0
FFFFE0000000000000000FFFFFFFE0
FFFFE00000000000000007FFFFFFE0
FFFFE00000000000000003FFFFFFE0
FFFFE00000000000000001FFFFFFE0
FFFFE00000000000000000FFFFFFE0
FFFFE000000000000000007FFFFFE0
FFFFE000000000000000003FFFFFE0
FFFFE000000000000000001FFFFFE0
FFFFE000000000000000000FFFFFE0
FFFFE0000000000000000007FFFFE0
FFFFE0000000000000000003FFFFE0
FFFFE0000000000000000001FFFFC0
FFFFE0000000000000000000FFFFC0
FFFFE00000000000000000007FFF80
FFFFE00000000000000000001FFF00
FFFFE00000000000000000000FFE00
FFFFE000000000000000000003F800
ENDCHAR
STARTCHAR O
ENCODING 79
SWIDTH 968 0
DWIDTH 148 0
BBX 136 111 6 0
BITMAP
000000000003FFFFFFFFFFC00000000000
00000000007FFFFFFFFFFFFF0000000000
0000000007FFFFFFFFFFFFFFE000000000
000000003FFFFFFFFFFFFFFFFC00000000
00000001FFFFFFFFFFFFFFFFFF80000000
00000007FFFFFFFFFFFFFFFFFFE0000000
0000001FFFFFFFFFFFFFFFFFFFF8000000
0000007FFFFFFFFFFFFFFFFFFFFE000000
000000FFFFFFFFFFFFFFFFFFFFFF800000
000003FFFFFFFFFFFFFFFFFFFFFFC00000
000007FFFFFFFFFFFFFFFFFFFFFFE00000
00000FFFFFFFFFFFFFFFFFFFFFFFF80000
00003FFFFFFFFFFFFFFFFFFFFFFFFC0000
00007FFFFFFFFFFFFFFFFFFFFFFFFE0000
0000FFFFFFFFFFFFFFFFFFFFFFFFFF0000
0001FFFFFFFFFFFFFFFFFFFFFFFFFF8000
0003FFFFFFFFFFFFFFFFFFFFFFFFFFC000
0007FFFFFFFFFFFFFFFFFFFFFFFFFFE000
000FFFFFFFFFFFFFFFFFFFFFFFFFFFF000
000FFFFFFFFFF00000000FFFFFFFFFF800
001FFFFFFFF800000000001FFFFFFFF800
003FFFFFFFC0000000000003FFFFFFFC00
007FFFFFFF000000000000007FFFFFFE00
007FFFFFFC000000000000001FFFFFFF00
00FFFFFFF0000000000000000FFFFFFF00
00FFFFFFC00000000000000003FFFFFF80
01FFFFFF800000000000000001FFFFFF80
01FFFFFF000000000000000000FFFFFFC0
03FFFFFE0000000000000000003FFFFFC0
03FFFFFC0000000000000000001FFFFFE0
07FFFFF80000000000000000000FFFFFE0
07FFFFF00000000000000000000FFFFFF0
0FFFFFE000000000000000000007FFFFF0
0FFFFFC000000000000000000003FFFFF0
0FFFFFC000000000000000000001FFFFF8
1FFFFF8000000000000000000001FFFFF8
1FFFFF0000000000000000000000FFFFF8
1FFFFF0000000000000000000000FFFFFC
3FFFFE00000000000000000000007FFFFC
3FFFFE00000000000000000000007FFFFC
3FFFFE00000000000000000000003FFFFE
3FFFFC00000000000000000000003FFFFE
7FFFFC00000000000000000000001FFFFE
7FFFF800000000000000000000001FFFFE
7FFFF800000000000000000000001FFFFE
7FFFF800000000000000000000001FFFFE
7FFFF800000000000000000000000FFFFF
7FFFF800000000000000000000000FFFFF
7FFFF000000000000000000000000FFFFF
7FFFF000000000000000000000000FFFFF
7FFFF000000000000000000000000FFFFF
FFFFF000000000000000000000000FFFFF
FFFFF000000000000000000000000FFFFF
FFFFF0000000000000000000000007FFFF
FFFFF0000000000000000000000007FFFF
FFFFF0000000000000000000000007FFFF
FFFFF0000000000000000000000007FFFF
FFFFF000000000000000000000000FFFFF
7FFFF000000000000000000000000FFFFF
7FFFF000000000000000000000000FFFFF
7FFFF000000000000000000000000FFFFF
7FFFF000000000000000000000000FFFFF
7FFFF000000000000000000000000FFFFE
7FFFF800000000000000000000000FFFFE
7FFFF800000000000000000000000FFFFE
7FFFF800000000000000000000001FFFFE
3FFFF800000000000000000000001FFFFE
3FFFFC00000000000000000000001FFFFE
3FFFFC00000000000000000000003FFFFC
3FFFFC00000000000000000000003FFFFC
3FFFFE00000000000000000000003FFFFC
1FFFFE00000000000000000000007FFFFC
1FFFFF00000000000000000000007FFFF8
1FFFFF0000000000000000000000FFFFF8
0FFFFF8000000000000000000000FFFFF8
0FFFFF8000000000000000000001FFFFF0
0FFFFFC000000000000000000003FFFFF0
07FFFFE000000000000000000003FFFFF0
07FFFFE000000000000000000007FFFFE0
03FFFFF00000000000000000000FFFFFE0
03FFFFF80000000000000000001FFFFFC0
01FFFFFC0000000000000000003FFFFFC0
01FFFFFE0000000000000000007FFFFF80
00FFFFFF000000000000000000FFFFFF80
00FFFFFF800000000000000001FFFFFF00
007FFFFFE00000000000000003FFFFFF00
007FFFFFF0000000000000000FFFFFFE00
003FFFFFFC000000000000003FFFFFFC00
001FFFFFFF00000000000000FFFFFFFC00
001FFFFFFFC0000000000003FFFFFFF800
000FFFFFFFF800000000001FFFFFFFF000
0007FFFFFFFFF00000000FFFFFFFFFF000
0003FFFFFFFFFFFFFFFFFFFFFFFFFFE000
0001FFFFFFFFFFFFFFFFFFFFFFFFFFC000
0000FFFFFFFFFFFFFFFFFFFFFFFFFF8000
00007FFFFFFFFFFFFFFFFFFFFFFFFF0000
00003FFFFFFFFFFFFFFFFFFFFFFFFE0000
00001FFFFFFFFFFFFFFFFFFFFFFFFC0000
00000FFFFFFFFFFFFFFFFFFFFFFFF80000
000007FFFFFFFFFFFFFFFFFFFFFFE00000
000003FFFFFFFFFFFFFFFFFFFFFFC00000
000000FFFFFFFFFFFFFFFFFFFFFF800000
0000007FFFFFFFFFFFFFFFFFFFFE000000
0000001FFFFFFFFFFFFFFFFFFFFC000000
00000007FFFFFFFFFFFFFFFFFFF0000000
00000003FFFFFFFFFFFFFFFFFFC0000000
000000007FFFFFFFFFFFFFFFFF00000000
000000001FFFFFFFFFFFFFFFF800000000
0000000003FFFFFFFFFFFFFFE000000000
00000000007FFFFFFFFFFFFE0000000000
000000000003FFFFFFFFFF800000000000
ENDCHAR
STARTCHAR P
ENCODING 80
SWIDTH 867 0
DWIDTH 133 0
BBX 119 111 10 0
BITMAP
FFFFFFFFFFFFFFFFFFFFFC00000000
FFFFFFFFFFFFFFFFFFFFFFE0000000
FFFFFFFFFFFFFFFFFFFFFFFC000000
FFFFFFFFFFFFFFFFFFFFFFFF800000
FFFFFFFFFFFFFFFFFFFFFFFFE00000
FFFFFFFFFFFFFFFFFFFFFFFFF80000
FFFFFFFFFFFFFFFFFFFFFFFFFC0000
FFFFFFFFFFFFFFFFFFFFFFFFFF0000
FFFFFFFFFFFFFFFFFFFFFFFFFF8000
FFFFFFFFFFFFFFFFFFFFFFFFFFC000
FFFFFFFFFFFFFFFFFFFFFFFFFFF000
FFFFFFFFFFFFFFFFFFFFFFFFFFF800
FFFFFFFFFFFFFFFFFFFFFFFFFFF800
FFFFFFFFFFFFFFFFFFFFFFFFFFFC00
FFFFFFFFFFFFFFFFFFFFFFFFFFFE00
FFFFFFFFFFFFFFFFFFFFFFFFFFFF00
FFFFFFFFFFFFFFFFFFFFFFFFFFFF00
FFFFFFFFFFFFFFFFFFFFFFFFFFFF80
FFFFFFFFFFFFFFFFFFFFFFFFFFFFC0
FFFFE000000000000001FFFFFFFFC0
FFFFE00000000000000003FFFFFFE0
FFFFE000000000000000007FFFFFE0
FFFFE000000000000000001FFFFFF0
FFFFE000000000000000000FFFFFF0
FFFFE0000000000000000007FFFFF0
FFFFE0000000000000000003FFFFF8
FFFFE0000000000000000001FFFFF8
FFFFE0000000000000000000FFFFF8
FFFFE00000000000000000007FFFF8
FFFFE00000000000000000007FFFFC
FFFFE00000000000000000003FFFFC
FFFFE00000000000000000003FFFFC
FFFFE00000000000000000003FFFFC
FFFFE00000000000000000001FFFFC
FFFFE00000000000000000001FFFFC
FFFFE00000000000000000001FFFFC
FFFFE00000000000000000001FFFFC
FFFFE00000000000000000001FFFFC
FFFFE00000000000000000001FFFFE
FFFFE00000000000000000000FFFFE
FFFFE00000000000000000000FFFFE
FFFFE00000000000000000001FFFFC
FFFFE00000000000000000001FFFFC
FFFFE00000000000000000001FFFFC
FFFFE00000000000000000001FFFFC
FFFFE00000000000000000001FFFFC
FFFFE00000000000000000001FFFFC
FFFFE00000000000000000003FFFFC
FFFFE00000000000000000003FFFFC
FFFFE00000000000000000003FFFFC
FFFFE00000000000000000007FFFF8
FFFFE00000000000000000007FFFF8
FFFFE0000000000000000000FFFFF8
FFFFE0000000000000000001FFFFF8
FFFFE0000000000000000003FFFFF0
FFFFE0000000000000000003FFFFF0
FFFFE000000000000000000FFFFFF0
FFFFE000000000000000001FFFFFE0
FFFFE000000000000000007FFFFFE0
FFFFE00000000000000001FFFFFFC0
FFFFE0000000000000001FFFFFFFC0
FFFFE0007FFFFFFFFFFFFFFFFFFF80
FFFFE0007FFFFFFFFFFFFFFFFFFF80
FFFFE0007FFFFFFFFFFFFFFFFFFF00
FFFFE0007FFFFFFFFFFFFFFFFFFE00
FFFFE0007FFFFFFFFFFFFFFFFFFE00
FFFFE0007FFFFFFFFFFFFFFFFFFC00
FFFFE0007FFFFFFFFFFFFFFFFFF800
FFFFE0007FFFFFFFFFFFFFFFFFF000
FFFFE0007FFFFFFFFFFFFFFFFFE000
FFFFE0007FFFFFFFFFFFFFFFFFC000
FFFFE0007FFFFFFFFFFFFFFFFF8000
FFFFE0007FFFFFFFFFFFFFFFFE0000
FFFFE0007FFFFFFFFFFFFFFFFC0000
FFFFE0007FFFFFFFFFFFFFFFF00000
FFFFE0007FFFFFFFFFFFFFFFE00000
FFFFE0007FFFFFFFFFFFFFFF000000
FFFFE0007FFFFFFFFFFFFFFC000000
FFFFE0007FFFFFFFFFFFFFC0000000
FFFFE0007FFFFFFFFFFFFC00000000
FFFFE0000000000000000000000000
FFFFE0000000000000000000000000
FFFFE0000000000000000000000000
FFFFE0000000000000000000000000
FFFFE0000000000000000000000000
FFFFE0000000000000000000000000
FFFFE0000000000000000000000000
FFFFE0000000000000000000000000
FFFFE0000000000000000000000000
FFFFE0000000000000000000000000
FFFFE0000000000000000000000000
FFFFE0000000000000000000000000
FFFFE0000000000000000000000000
FFFFE0000000000000000000000000
FFFFE0000000000000000000000000
FFFFE0000000000000000000000000
FFFFE0000000000000000000000000
FFFFE0000000000000000000000000
FFFFE0000000000000000000000000
FFFFE0000000000000000000000000
FFFFE0000000000000000000000000
FFFFE0000000000000000000000000
FFFFE0000000000000000000000000
FFFFE0000000000000000000000000
FFFFE0000000000000000000000000
FFFFE0000000000000000000000000
FFFFE0000000000000000000000000
FFFFE0000000000000000000000000
FFFFE0000000000000000000000000
FFFFE0000000000000000000000000
FFFFE0000000000000000000000000
ENDCHAR
STARTCHAR Q
ENCODING 81
SWIDTH 968 0
DWIDTH 148 0
BBX 141 111 6 0
BITMAP
000000000003FFFFFFFFFFC0000000000000
00000000007FFFFFFFFFFFFF000000000000
0000000007FFFFFFFFFFFFFFE00000000000
000000003FFFFFFFFFFFFFFFFC0000000000
00000001FFFFFFFFFFFFFFFFFF8000000000
00000007FFFFFFFFFFFFFFFFFFE000000000
0000001FFFFFFFFFFFFFFFFFFFF800000000
0000007FFFFFFFFFFFFFFFFFFFFE00000000
000000FFFFFFFFFFFFFFFFFFFFFF80000000
000003FFFFFFFFFFFFFFFFFFFFFFC0000000
000007FFFFFFFFFFFFFFFFFFFFFFE0000000
00000FFFFFFFFFFFFFFFFFFFFFFFF8000000
00003FFFFFFFFFFFFFFFFFFFFFFFFC000000
00007FFFFFFFFFFFFFFFFFFFFFFFFE000000
0000FFFFFFFFFFFFFFFFFFFFFFFFFF000000
0001FFFFFFFFFFFFFFFFFFFFFFFFFF800000
0003FFFFFFFFFFFFFFFFFFFFFFFFFFC00000
0007FFFFFFFFFFFFFFFFFFFFFFFFFFE00000
000FFFFFFFFFFFFFFFFFFFFFFFFFFFF00000
000FFFFFFFFFF00000000FFFFFFFFFF80000
001FFFFFFFF800000000001FFFFFFFF80000
003FFFFFFFC0000000000003FFFFFFFC0000
007FFFFFFF000000000000007FFFFFFE0000
007FFFFFFC000000000000001FFFFFFF0000
00FFFFFFF0000000000000000FFFFFFF0000
00FFFFFFC00000000000000003FFFFFF8000
01FFFFFF800000000000000001FFFFFF8000
01FFFFFF000000000000000000FFFFFFC000
03FFFFFE0000000000000000003FFFFFC000
03FFFFFC0000000000000000001FFFFFE000
07FFFFF80000000000000000000FFFFFE000
07FFFFF00000000000000000000FFFFFF000
0FFFFFE000000000000000000007FFFFF000
0FFFFFC000000000000000000003FFFFF000
0FFFFFC000000000000000000001FFFFF800
1FFFFF8000000000000000000001FFFFF800
1FFFFF0000000000000000000000FFFFF800
1FFFFF0000000000000000000000FFFFFC00
3FFFFE00000000000000000000007FFFFC00
3FFFFE00000000000000000000007FFFFC00
3FFFFE00000000000000000000003FFFFE00
3FFFFC00000000000000000000003FFFFE00
7FFFFC00000000000000000000001FFFFE00
7FFFF800000000000000000000001FFFFE00
7FFFF800000000000000000000001FFFFE00
7FFFF800000000000000000000001FFFFE00
7FFFF800000000000000000000000FFFFF00
7FFFF800000000000000000000000FFFFF00
7FFFF000000000000000000000000FFFFF00
7FFFF000000000000000000000000FFFFF00
7FFFF000000000000000000000000FFFFF00
FFFFF000000000000000000000000FFFFF00
FFFFF000000000000000000000000FFFFF00
FFFFF0000000000000000000000007FFFF00
FFFFF0000000000000000000000007FFFF00
FFFFF0000000000000000000000007FFFF00
FFFFF0000000000000000000000007FFFF00
FFFFF000000000000000000000000FFFFF00
7FFFF000000000000000000000000FFFFF00
7FFFF000000000000000000000000FFFFF00
7FFFF000000000000000000000000FFFFF00
7FFFF000000000000000000000000FFFFF00
7FFFF000000000000000000000000FFFFE00
7FFFF800000000000000000000000FFFFE00
7FFFF800000000000000000000000FFFFE00
7FFFF8000000001FFFFFF80000001FFFFE00
3FFFF80000000007FFFFFC0000001FFFFE00
3FFFFC0000000003FFFFFF0000001FFFFE00
3FFFFC0000000001FFFFFF8000003FFFFC00
3FFFFC00000000007FFFFFC000003FFFFC00
3FFFFE00000000003FFFFFE000003FFFFC00
1FFFFE00000000001FFFFFF000007FFFFC00
1FFFFF00000000000FFFFFF800007FFFF800
1FFFFF000000000003FFFFFE0000FFFFF800
0FFFFF800000000001FFFFFF0000FFFFF800
0FFFFF800000000000FFFFFF8001FFFFF000
0FFFFFC000000000007FFFFFC003FFFFF000
07FFFFE000000000001FFFFFE003FFFFF000
07FFFFE000000000000FFFFFF807FFFFE000
03FFFFF0000000000007FFFFFC0FFFFFE000
03FFFFF8000000000001FFFFFE1FFFFFC000
01FFFFFC000000000000FFFFFF3FFFFFC000
01FFFFFE0000000000007FFFFFFFFFFF8000
00FFFFFF0000000000003FFFFFFFFFFF8000
00FFFFFF8000000000000FFFFFFFFFFF0000
007FFFFFE0000000000007FFFFFFFFFF0000
007FFFFFF0000000000003FFFFFFFFFE0000
003FFFFFFC000000000001FFFFFFFFFC0000
001FFFFFFF0000000000007FFFFFFFFC0000
001FFFFFFFC000000000003FFFFFFFF80000
000FFFFFFFF800000000001FFFFFFFF00000
0007FFFFFFFFF00000001FFFFFFFFFE00000
0003FFFFFFFFFFFFFFFFFFFFFFFFFFE00000
0001FFFFFFFFFFFFFFFFFFFFFFFFFFC00000
0000FFFFFFFFFFFFFFFFFFFFFFFFFF800000
00007FFFFFFFFFFFFFFFFFFFFFFFFF800000
00003FFFFFFFFFFFFFFFFFFFFFFFFFE00000
00001FFFFFFFFFFFFFFFFFFFFFFFFFF00000
00000FFFFFFFFFFFFFFFFFFFFFFFFFF80000
000007FFFFFFFFFFFFFFFFFFFFFFFFFE0000
000003FFFFFFFFFFFFFFFFFFFFFFFFFF0000
000000FFFFFFFFFFFFFFFFFFFFFFFFFF8000
0000007FFFFFFFFFFFFFFFFFFFFFFFFFE000
0000001FFFFFFFFFFFFFFFFFFFFFFFFFF000
00000007FFFFFFFFFFFFFFFFFFFFFFFFF800
00000003FFFFFFFFFFFFFFFFFFC7FFFFFC00
000000007FFFFFFFFFFFFFFFFF03FFFFFF00
000000001FFFFFFFFFFFFFFFF800FFFFFF80
0000000003FFFFFFFFFFFFFFC0007FFFFFC0
00000000007FFFFFFFFFFFFC00003FFFFFF0
000000000003FFFFFFFFFF8000001FFFFFF8
ENDCHAR
STARTCHAR R
ENCODING 82
SWIDTH 921 0
DWIDTH 141 0
BBX 130 111 10 0
BITMAP
FFFFFFFFFFFFFFFFFFFFFE000000000000
FFFFFFFFFFFFFFFFFFFFFFF00000000000
FFFFFFFFFFFFFFFFFFFFFFFF0000000000
FFFFFFFFFFFFFFFFFFFFFFFFC000000000
FFFFFFFFFFFFFFFFFFFFFFFFF000000000
FFFFFFFFFFFFFFFFFFFFFFFFFC00000000
FFFFFFFFFFFFFFFFFFFFFFFFFF00000000
FFFFFFFFFFFFFFFFFFFFFFFFFF80000000
FFFFFFFFFFFFFFFFFFFFFFFFFFE0000000
FFFFFFFFFFFFFFFFFFFFFFFFFFF0000000
FFFFFFFFFFFFFFFFFFFFFFFFFFF8000000
FFFFFFFFFFFFFFFFFFFFFFFFFFFC000000
FFFFFFFFFFFFFFFFFFFFFFFFFFFE000000
FFFFFFFFFFFFFFFFFFFFFFFFFFFE000000
FFFFFFFFFFFFFFFFFFFFFFFFFFFF000000
FFFFFFFFFFFFFFFFFFFFFFFFFFFF800000
FFFFFFFFFFFFFFFFFFFFFFFFFFFFC00000
FFFFFFFFFFFFFFFFFFFFFFFFFFFFC00000
FFFFFFFFFFFFFFFFFFFFFFFFFFFFE00000
FFFFE0000000000000007FFFFFFFE00000
FFFFE00000000000000000FFFFFFF00000
FFFFE000000000000000003FFFFFF00000
FFFFE000000000000000000FFFFFF80000
FFFFE0000000000000000003FFFFF80000
FFFFE0000000000000000001FFFFF80000
FFFFE0000000000000000000FFFFFC0000
FFFFE00000000000000000007FFFFC0000
FFFFE00000000000000000007FFFFC0000
FFFFE00000000000000000003FFFFE0000
FFFFE00000000000000000001FFFFE0000
FFFFE00000000000000000001FFFFE0000
FFFFE00000000000000000001FFFFE0000
FFFFE00000000000000000000FFFFE0000
FFFFE00000000000000000000FFFFE0000
FFFFE00000000000000000000FFFFF0000
FFFFE00000000000000000000FFFFF0000
FFFFE00000000000000000000FFFFF0000
FFFFE000000000000000000007FFFF0000
FFFFE000000000000000000007FFFF0000
FFFFE000000000000000000007FFFF0000
FFFFE000000000000000000007FFFF0000
FFFFE000000000000000000007FFFF0000
FFFFE000000000000000000007FFFF0000
FFFFE000000000000000000007FFFF0000
FFFFE000000000000000000007FFFF0000
FFFFE00000000000000000000FFFFF0000
FFFFE00000000000000000000FFFFF0000
FFFFE00000000000000000000FFFFE0000
FFFFE00000000000000000000FFFFE0000
FFFFE00000000000000000000FFFFE0000
FFFFE00000000000000000001FFFFE0000
FFFFE00000000000000000001FFFFE0000
FFFFE00000000000000000001FFFFE0000
FFFFE00000000000000000003FFFFC0000
FFFFE00000000000000000007FFFFC0000
FFFFE00000000000000000007FFFFC0000
FFFFE0000000000000000000FFFFF80000
FFFFE0000000000000000001FFFFF80000
FFFFE0000000000000000003FFFFF80000
FFFFE0000000000000000007FFFFF00000
FFFFE000000000000000001FFFFFF00000
FFFFE000000000000000007FFFFFE00000
FFFFE00000000000000007FFFFFFE00000
FFFFE0007FFFFFFFFFFFFFFFFFFFC00000
FFFFE0007FFFFFFFFFFFFFFFFFFF800000
FFFFE0007FFFFFFFFFFFFFFFFFFF800000
FFFFE0007FFFFFFFFFFFFFFFFFFF000000
FFFFE0007FFFFFFFFFFFFFFFFFFE000000
FFFFE0007FFFFFFFFFFFFFFFFFFC000000
FFFFE0007FFFFFFFFFFFFFFFFFF8000000
FFFFE0007FFFFFFFFFFFFFFFFFF0000000
FFFFE0007FFFFFFFFFFFFFFFFFE0000000
FFFFE0007FFFFFFFFFFFFFFFFFC0000000
FFFFE0007FFFFFFFFFFFFFFFFF00000000
FFFFE0007FFFFFFFFFFFFFFFFC00000000
FFFFE0007FFFFFFFFFFFFFFFF800000000
FFFFE0007FFFFFFFFFFFFFFFC000000000
FFFFE0007FFFFFFFFFFFFFFF8000000000
FFFFE0007FFFFFFFFFFFFFFFC000000000
FFFFE0007FFFFFFFFFFFFFFFE000000000
FFFFE00000000000001FFFFFF000000000
FFFFE00000000000000FFFFFF800000000
FFFFE000000000000007FFFFFC00000000
FFFFE000000000000003FFFFFE00000000
FFFFE000000000000001FFFFFF00000000
FFFFE000000000000000FFFFFF80000000
FFFFE0000000000000007FFFFFC0000000
FFFFE0000000000000003FFFFFE0000000
FFFFE0000000000000003FFFFFF0000000
FFFFE0000000000000001FFFFFF8000000
FFFFE0000000000000000FFFFFFC000000
FFFFE00000000000000007FFFFFE000000
FFFFE00000000000000003FFFFFF000000
FFFFE00000000000000001FFFFFF800000
FFFFE00000000000000000FFFFFFC00000
FFFFE000000000000000007FFFFFE00000
FFFFE000000000000000003FFFFFF00000
FFFFE000000000000000001FFFFFF80000
FFFFE000000000000000000FFFFFFC0000
FFFFE000000000000000000FFFFFFE0000
FFFFE0000000000000000007FFFFFF0000
FFFFE0000000000000000003FFFFFF8000
FFFFE0000000000000000001FFFFFFC000
FFFFE0000000000000000000FFFFFFE000
FFFFE00000000000000000007FFFFFF000
FFFFE00000000000000000003FFFFFF800
FFFFE00000000000000000001FFFFFFC00
FFFFE00000000000000000000FFFFFFE00
FFFFE000000000000000000007FFFFFF00
FFFFE000000000000000000003FFFFFF80
FFFFE000000000000000000003FFFFFFC0
ENDCHAR
STARTCHAR S
ENCODING 83
SWIDTH 880 0
DWIDTH 135 0
BBX 120 111 8 0
BITMAP
0000001FFFFFFFFFFFFFFFFFFFFFC0
000003FFFFFFFFFFFFFFFFFFFFFFC0
00001FFFFFFFFFFFFFFFFFFFFFFFC0
00007FFFFFFFFFFFFFFFFFFFFFFFC0
0001FFFFFFFFFFFFFFFFFFFFFFFFC0
0007FFFFFFFFFFFFFFFFFFFFFFFFC0
000FFFFFFFFFFFFFFFFFFFFFFFFFC0
003FFFFFFFFFFFFFFFFFFFFFFFFFC0
007FFFFFFFFFFFFFFFFFFFFFFFFFC0
00FFFFFFFFFFFFFFFFFFFFFFFFFFC0
01FFFFFFFFFFFFFFFFFFFFFFFFFFC0
03FFFFFFFFFFFFFFFFFFFFFFFFFFC0
03FFFFFFFFFFFFFFFFFFFFFFFFFFC0
07FFFFFFFFFFFFFFFFFFFFFFFFFFC0
0FFFFFFFFFFFFFFFFFFFFFFFFFFFC0
0FFFFFFFFFFFFFFFFFFFFFFFFFFFC0
1FFFFFFFFFFFFFFFFFFFFFFFFFFFC0
1FFFFFFFFFFFFFFFFFFFFFFFFFFFC0
3FFFFFFFFFFFFFFFFFFFFFFFFFFFC0
3FFFFFFF8000000000000000000000
3FFFFFF00000000000000000000000
7FFFFFC00000000000000000000000
7FFFFF000000000000000000000000
7FFFFE000000000000000000000000
7FFFFE000000000000000000000000
FFFFFC000000000000000000000000
FFFFF8000000000000000000000000
FFFFF8000000000000000000000000
FFFFF8000000000000000000000000
FFFFF8000000000000000000000000
FFFFF0000000000000000000000000
FFFFF0000000000000000000000000
FFFFF0000000000000000000000000
FFFFF0000000000000000000000000
FFFFF0000000000000000000000000
FFFFF0000000000000000000000000
FFFFF0000000000000000000000000
FFFFF8000000000000000000000000
7FFFF8000000000000000000000000
7FFFF8000000000000000000000000
7FFFFC000000000000000000000000
7FFFFC000000000000000000000000
3FFFFE000000000000000000000000
3FFFFF000000000000000000000000
1FFFFF800000000000000000000000
1FFFFFE00000000000000000000000
1FFFFFFC0000000000000000000000
0FFFFFFFFFFFFFFFFFFFFFF8000000
07FFFFFFFFFFFFFFFFFFFFFFC00000
07FFFFFFFFFFFFFFFFFFFFFFFC0000
03FFFFFFFFFFFFFFFFFFFFFFFF0000
01FFFFFFFFFFFFFFFFFFFFFFFFC000
00FFFFFFFFFFFFFFFFFFFFFFFFF000
00FFFFFFFFFFFFFFFFFFFFFFFFF800
003FFFFFFFFFFFFFFFFFFFFFFFFC00
001FFFFFFFFFFFFFFFFFFFFFFFFE00
000FFFFFFFFFFFFFFFFFFFFFFFFF00
0007FFFFFFFFFFFFFFFFFFFFFFFF80
0001FFFFFFFFFFFFFFFFFFFFFFFFC0
00007FFFFFFFFFFFFFFFFFFFFFFFE0
00001FFFFFFFFFFFFFFFFFFFFFFFE0
000003FFFFFFFFFFFFFFFFFFFFFFF0
0000001FFFFFFFFFFFFFFFFFFFFFF0
00000000000000000000003FFFFFF8
000000000000000000000003FFFFF8
000000000000000000000000FFFFFC
0000000000000000000000007FFFFC
0000000000000000000000003FFFFC
0000000000000000000000001FFFFE
0000000000000000000000001FFFFE
0000000000000000000000000FFFFE
0000000000000000000000000FFFFE
00000000000000000000000007FFFE
00000000000000000000000007FFFE
00000000000000000000000007FFFE
00000000000000000000000007FFFE
00000000000000000000000007FFFF
00000000000000000000000007FFFF
00000000000000000000000007FFFF
00000000000000000000000007FFFF
00000000000000000000000007FFFF
00000000000000000000000007FFFF
0000000000000000000000000FFFFE
0000000000000000000000000FFFFE
0000000000000000000000001FFFFE
0000000000000000000000001FFFFE
0000000000000000000000003FFFFE
0000000000000000000000007FFFFE
000000000000000000000000FFFFFC
000000000000000000000001FFFFFC
00000000000000000000000FFFFFFC
0000000000000000000003FFFFFFFC
3FFFFFFFFFFFFFFFFFFFFFFFFFFFF8
3FFFFFFFFFFFFFFFFFFFFFFFFFFFF8
3FFFFFFFFFFFFFFFFFFFFFFFFFFFF0
3FFFFFFFFFFFFFFFFFFFFFFFFFFFF0
3FFFFFFFFFFFFFFFFFFFFFFFFFFFE0
3FFFFFFFFFFFFFFFFFFFFFFFFFFFE0
3FFFFFFFFFFFFFFFFFFFFFFFFFFFC0
3FFFFFFFFFFFFFFFFFFFFFFFFFFF80
3FFFFFFFFFFFFFFFFFFFFFFFFFFF00
3FFFFFFFFFFFFFFFFFFFFFFFFFFE00
3FFFFFFFFFFFFFFFFFFFFFFFFFFC00
3FFFFFFFFFFFFFFFFFFFFFFFFFF800
3FFFFFFFFFFFFFFFFFFFFFFFFFF000
3FFFFFFFFFFFFFFFFFFFFFFFFFE000
3FFFFFFFFFFFFFFFFFFFFFFFFF8000
3FFFFFFFFFFFFFFFFFFFFFFFFE0000
3FFFFFFFFFFFFFFFFFFFFFFFF00000
3FFFFFFFFFFFFFFFFFFFFFFF800000
3FFFFFFFFFFFFFFFFFFFFFF0000000
ENDCHAR
STARTCHAR T
ENCODING 84
SWIDTH 720 0
DWIDTH 110 0
BBX 104 111 3 0
BITMAP
FFFFFFFFFFFFFFFFFFFFFFFFFF
FFFFFFFFFFFFFFFFFFFFFFFFFF
FFFFFFFFFFFFFFFFFFFFFFFFFF
FFFFFFFFFFFFFFFFFFFFFFFFFF
FFFFFFFFFFFFFFFFFFFFFFFFFF
FFFFFFFFFFFFFFFFFFFFFFFFFF
FFFFFFFFFFFFFFFFFFFFFFFFFF
FFFFFFFFFFFFFFFFFFFFFFFFFF
FFFFFFFFFFFFFFFFFFFFFFFFFF
FFFFFFFFFFFFFFFFFFFFFFFFFF
FFFFFFFFFFFFFFFFFFFFFFFFFF
FFFFFFFFFFFFFFFFFFFFFFFFFF
FFFFFFFFFFFFFFFFFFFFFFFFFF
FFFFFFFFFFFFFFFFFFFFFFFFFF
FFFFFFFFFFFFFFFFFFFFFFFFFF
FFFFFFFFFFFFFFFFFFFFFFFFFF
FFFFFFFFFFFFFFFFFFFFFFFFFF
FFFFFFFFFFFFFFFFFFFFFFFFFF
FFFFFFFFFFFFFFFFFFFFFFFFFF
00000000003FFFFC0000000000
00000000003FFFFC0000000000
00000000003FFFFC0000000000
00000000003FFFFC0000000000
00000000003FFFFC0000000000
00000000003FFFFC0000000000
00000000003FFFFC0000000000
00000000003FFFFC0000000000
00000000003FFFFC0000000000
00000000003FFFFC0000000000
00000000003FFFFC0000000000
00000000003FFFFC0000000000
00000000003FFFFC0000000000
00000000003FFFFC0000000000
00000000003FFFFC0000000000
00000000003FFFFC0000000000
00000000003FFFFC0000000000
00000000003FFFFC0000000000
00000000003FFFFC0000000000
00000000003FFFFC0000000000
00000000003FFFFC0000000000
00000000003FFFFC0000000000
00000000003FFFFC0000000000
00000000003FFFFC0000000000
00000000003FFFFC0000000000
00000000003FFFFC0000000000
00000000003FFFFC0000000000
00000000003FFFFC0000000000
00000000003FFFFC0000000000
00000000003FFFFC0000000000
00000000003FFFFC0000000000
00000000003FFFFC0000000000
00000000003FFFFC0000000000
00000000003FFFFC0000000000
00000000003FFFFC0000000000
00000000003FFFFC0000000000
00000000003FFFFC0000000000
00000000003FFFFC0000000000
00000000003FFFFC0000000000
00000000003FFFFC0000000000
00000000003FFFFC0000000000
00000000003FFFFC0000000000
00000000003FFFFC0000000000
00000000003FFFFC0000000000
00000000003FFFFC0000000000
00000000003FFFFC0000000000
00000000003FFFFC0000000000
00000000003FFFFC0000000000
00000000003FFFFC0000000000
00000000003FFFFC0000000000
00000000003FFFFC0000000000
00000000003FFFFC0000000000
00000000003FFFFC0000000000
00000000003FFFFC0000000000
00000000003FFFFC0000000000
00000000003FFFFC0000000000
00000000003FFFFC0000000000
00000000003FFFFC0000000000
00000000003FFFFC0000000000
00000000003FFFFC0000000000
00000000003FFFFC0000000000
00000000003FFFFC0000000000
00000000003FFFFC0000000000
00000000003FFFFC0000000000
00000000003FFFFC0000000000
00000000003FFFFC0000000000
00000000003FFFFC0000000000
00000000003FFFFC0000000000
00000000003FFFFC0000000000
00000000003FFFFC0000000000
00000000003FFFFC0000000000
00000000003FFFFC0000000000
00000000003FFFFC0000000000
00000000003FFFFC0000000000
00000000003FFFFC0000000000
00000000003FFFFC0000000000
00000000003FFFFC0000000000
00000000003FFFFC0000000000
00000000003FFFFC0000000000
00000000003FFFFC0000000000
00000000003FFFFC0000000000
00000000003FFFFC0000000000
00000000003FFFFC0000000000
00000000003FFFFC0000000000
00000000003FFFFC0000000000
00000000003FFFFC0000000000
00000000003FFFFC0000000000
00000000003FFFFC0000000000
00000000003FFFFC0000000000
00000000003FFFFC0000000000
00000000003FFFFC0000000000
00000000003FFFFC0000000000
ENDCHAR
STARTCHAR U
ENCODING 85
SWIDTH 889 0
DWIDTH 136 0
BBX 120 112 8 -1
BITMAP
FFFFF000000000000000000007FFFF
FFFFF000000000000000000007FFFF
FFFFF000000000000000000007FFFF
FFFFF000000000000000000007FFFF
FFFFF000000000000000000007FFFF
FFFFF000000000000000000007FFFF
FFFFF000000000000000000007FFFF
FFFFF000000000000000000007FFFF
FFFFF000000000000000000007FFFF
FFFFF000000000000000000007FFFF
FFFFF000000000000000000007FFFF
FFFFF000000000000000000007FFFF
FFFFF000000000000000000007FFFF
FFFFF000000000000000000007FFFF
FFFFF000000000000000000007FFFF
FFFFF000000000000000000007FFFF
FFFFF000000000000000000007FFFF
FFFFF000000000000000000007FFFF
FFFFF000000000000000000007FFFF
FFFFF000000000000000000007FFFF
FFFFF000000000000000000007FFFF
FFFFF000000000000000000007FFFF
FFFFF000000000000000000007FFFF
FFFFF000000000000000000007FFFF
FFFFF000000000000000000007FFFF
FFFFF000000000000000000007FFFF
FFFFF000000000000000000007FFFF
FFFFF000000000000000000007FFFF
FFFFF000000000000000000007FFFF
FFFFF000000000000000000007FFFF
FFFFF000000000000000000007FFFF
FFFFF000000000000000000007FFFF
FFFFF000000000000000000007FFFF
FFFFF000000000000000000007FFFF
FFFFF000000000000000000007FFFF
FFFFF000000000000000000007FFFF
FFFFF000000000000000000007FFFF
FFFFF000000000000000000007FFFF
FFFFF000000000000000000007FFFF
FFFFF000000000000000000007FFFF
FFFFF000000000000000000007FFFF
FFFFF000000000000000000007FFFF
FFFFF000000000000000000007FFFF
FFFFF000000000000000000007FFFF
FFFFF000000000000000000007FFFF
FFFFF000000000000000000007FFFF
FFFFF000000000000000000007FFFF
FFFFF000000000000000000007FFFF
FFFFF000000000000000000007FFFF
FFFFF000000000000000000007FFFF
FFFFF000000000000000000007FFFF
FFFFF000000000000000000007FFFF
FFFFF000000000000000000007FFFF
FFFFF000000000000000000007FFFF
FFFFF000000000000000000007FFFF
FFFFF000000000000000000007FFFF
FFFFF000000000000000000007FFFF
FFFFF000000000000000000007FFFF
FFFFF000000000000000000007FFFF
FFFFF000000000000000000007FFFF
FFFFF000000000000000000007FFFF
FFFFF000000000000000000007FFFF
FFFFF000000000000000000007FFFF
FFFFF000000000000000000007FFFF
FFFFF000000000000000000007FFFF
FFFFF000000000000000000007FFFF
FFFFF000000000000000000007FFFF
FFFFF000000000000000000007FFFF
FFFFF000000000000000000007FFFF
FFFFF800000000000000000007FFFF
FFFFF80000000000000000000FFFFF
FFFFF80000000000000000000FFFFF
7FFFF80000000000000000000FFFFE
7FFFF80000000000000000000FFFFE
7FFFFC0000000000000000001FFFFE
7FFFFC0000000000000000001FFFFE
7FFFFC0000000000000000001FFFFE
7FFFFE0000000000000000003FFFFE
3FFFFE0000000000000000003FFFFC
3FFFFF0000000000000000007FFFFC
3FFFFF0000000000000000007FFFFC
3FFFFF800000000000000000FFFFFC
1FFFFFC00000000000000001FFFFF8
1FFFFFC00000000000000001FFFFF8
1FFFFFE00000000000000003FFFFF8
0FFFFFF80000000000000007FFFFF0
0FFFFFFC000000000000001FFFFFF0
07FFFFFE000000000000003FFFFFE0
07FFFFFF80000000000000FFFFFFE0
03FFFFFFE0000000000003FFFFFFC0
03FFFFFFFC00000000001FFFFFFFC0
01FFFFFFFFC000000001FFFFFFFF80
01FFFFFFFFFF800000FFFFFFFFFF80
00FFFFFFFFFFFFFFFFFFFFFFFFFF00
007FFFFFFFFFFFFFFFFFFFFFFFFE00
007FFFFFFFFFFFFFFFFFFFFFFFFE00
003FFFFFFFFFFFFFFFFFFFFFFFFC00
001FFFFFFFFFFFFFFFFFFFFFFFF800
000FFFFFFFFFFFFFFFFFFFFFFFF000
0007FFFFFFFFFFFFFFFFFFFFFFE000
0003FFFFFFFFFFFFFFFFFFFFFFC000
0000FFFFFFFFFFFFFFFFFFFFFF0000
00007FFFFFFFFFFFFFFFFFFFFE0000
00003FFFFFFFFFFFFFFFFFFFF80000
00000FFFFFFFFFFFFFFFFFFFF00000
000003FFFFFFFFFFFFFFFFFFC00000
000000FFFFFFFFFFFFFFFFFF000000
0000001FFFFFFFFFFFFFFFF8000000
00000007FFFFFFFFFFFFFFE0000000
000000007FFFFFFFFFFFFE00000000
0000000007FFFFFFFFFFC000000000
00000000001FFFFFFFF00000000000
ENDCHAR
STARTCHAR V
ENCODING 86
SWIDTH 989 0
DWIDTH 151 0
BBX 147 113 2 -2
BITMAP
FFFFFF0000000000000000000000000FFFFFE0
7FFFFF8000000000000000000000000FFFFFC0
3FFFFF8000000000000000000000001FFFFFC0
3FFFFFC000000000000000000000001FFFFF80
1FFFFFE000000000000000000000003FFFFF00
1FFFFFE000000000000000000000007FFFFF00
0FFFFFF000000000000000000000007FFFFE00
07FFFFF00000000000000000000000FFFFFE00
07FFFFF80000000000000000000000FFFFFC00
03FFFFF80000000000000000000001FFFFF800
03FFFFFC0000000000000000000001FFFFF800
01FFFFFE0000000000000000000003FFFFF000
00FFFFFE0000000000000000000007FFFFE000
00FFFFFF0000000000000000000007FFFFE000
007FFFFF000000000000000000000FFFFFC000
007FFFFF800000000000000000000FFFFFC000
003FFFFFC00000000000000000001FFFFF8000
001FFFFFC00000000000000000003FFFFF0000
001FFFFFE00000000000000000003FFFFF0000
000FFFFFE00000000000000000007FFFFE0000
000FFFFFF00000000000000000007FFFFE0000
0007FFFFF8000000000000000000FFFFFC0000
0003FFFFF8000000000000000001FFFFF80000
0003FFFFFC000000000000000001FFFFF80000
0001FFFFFC000000000000000003FFFFF00000
0001FFFFFE000000000000000003FFFFF00000
0000FFFFFE000000000000000007FFFFE00000
00007FFFFF000000000000000007FFFFC00000
00007FFFFF80000000000000000FFFFFC00000
00003FFFFF80000000000000001FFFFF800000
00003FFFFFC0000000000000001FFFFF800000
00001FFFFFC0000000000000003FFFFF000000
00000FFFFFE0000000000000003FFFFE000000
00000FFFFFF0000000000000007FFFFE000000
000007FFFFF000000000000000FFFFFC000000
000003FFFFF800000000000000FFFFFC000000
000003FFFFF800000000000001FFFFF8000000
000001FFFFFC00000000000001FFFFF0000000
000001FFFFFC00000000000003FFFFF0000000
000000FFFFFE00000000000003FFFFE0000000
0000007FFFFF00000000000007FFFFE0000000
0000007FFFFF0000000000000FFFFFC0000000
0000003FFFFF8000000000000FFFFF80000000
0000003FFFFF8000000000001FFFFF80000000
0000001FFFFFC000000000001FFFFF00000000
0000000FFFFFE000000000003FFFFF00000000
0000000FFFFFE000000000007FFFFE00000000
00000007FFFFF000000000007FFFFC00000000
00000007FFFFF00000000000FFFFFC00000000
00000003FFFFF80000000000FFFFF800000000
00000001FFFFFC0000000001FFFFF800000000
00000001FFFFFC0000000003FFFFF000000000
00000000FFFFFE0000000003FFFFE000000000
00000000FFFFFE0000000007FFFFE000000000
000000007FFFFF0000000007FFFFC000000000
000000003FFFFF000000000FFFFFC000000000
000000003FFFFF800000000FFFFF8000000000
000000001FFFFFC00000001FFFFF0000000000
000000001FFFFFC00000003FFFFF0000000000
000000000FFFFFE00000003FFFFE0000000000
0000000007FFFFE00000007FFFFE0000000000
0000000007FFFFF00000007FFFFC0000000000
0000000003FFFFF8000000FFFFF80000000000
0000000003FFFFF8000001FFFFF80000000000
0000000001FFFFFC000001FFFFF00000000000
0000000000FFFFFC000003FFFFF00000000000
0000000000FFFFFE000003FFFFE00000000000
00000000007FFFFF000007FFFFC00000000000
00000000007FFFFF000007FFFFC00000000000
00000000003FFFFF80000FFFFF800000000000
00000000001FFFFF80001FFFFF800000000000
00000000001FFFFFC0001FFFFF000000000000
00000000000FFFFFC0003FFFFE000000000000
00000000000FFFFFE0003FFFFE000000000000
000000000007FFFFF0007FFFFC000000000000
000000000003FFFFF000FFFFF8000000000000
000000000003FFFFF800FFFFF8000000000000
000000000001FFFFF801FFFFF0000000000000
000000000001FFFFFC01FFFFF0000000000000
000000000000FFFFFE03FFFFE0000000000000
0000000000007FFFFE07FFFFC0000000000000
0000000000007FFFFF07FFFFC0000000000000
0000000000003FFFFF0FFFFF80000000000000
0000000000003FFFFF8FFFFF80000000000000
0000000000001FFFFFDFFFFF00000000000000
0000000000000FFFFFDFFFFE00000000000000
0000000000000FFFFFFFFFFE00000000000000
00000000000007FFFFFFFFFC00000000000000
00000000000007FFFFFFFFFC00000000000000
00000000000003FFFFFFFFF800000000000000
00000000000001FFFFFFFFF000000000000000
00000000000001FFFFFFFFF000000000000000
00000000000000FFFFFFFFE000000000000000
00000000000000FFFFFFFFE000000000000000
000000000000007FFFFFFFC000000000000000
000000000000003FFFFFFF8000000000000000
000000000000003FFFFFFF8000000000000000
000000000000001FFFFFFF0000000000000000
000000000000001FFFFFFF0000000000000000
000000000000000FFFFFFE0000000000000000
0000000000000007FFFFFC0000000000000000
0000000000000007FFFFFC0000000000000000
0000000000000003FFFFF80000000000000000
0000000000000003FFFFF80000000000000000
0000000000000001FFFFF00000000000000000
0000000000000000FFFFE00000000000000000
0000000000000000FFFFE00000000000000000
00000000000000007FFFC00000000000000000
00000000000000003FFF800000000000000000
00000000000000001FFF800000000000000000
00000000000000000FFE000000000000000000
000000000000000007FC000000000000000000
00000000000000000040000000000000000000
ENDCHAR
STARTCHAR W
ENCODING 87
SWIDTH 1268 0
DWIDTH 194 0
BBX 190 113 2 -2
BITMAP
FFFFFF00000000FFFFFF0000000000000000000000FFFFFC
7FFFFF000000007FFFFF0000000000000000000001FFFFF8
7FFFFF800000003FFFFF8000000000000000000001FFFFF0
3FFFFF800000003FFFFF8000000000000000000003FFFFF0
1FFFFFC00000001FFFFFC000000000000000000003FFFFE0
1FFFFFC00000001FFFFFC000000000000000000007FFFFE0
0FFFFFE00000000FFFFFE000000000000000000007FFFFC0
0FFFFFE00000000FFFFFE00000000000000000000FFFFFC0
07FFFFF000000007FFFFF00000000000000000001FFFFF80
07FFFFF000000007FFFFF00000000000000000001FFFFF80
03FFFFF800000003FFFFF80000000000000000003FFFFF00
03FFFFF800000003FFFFF80000000000000000003FFFFF00
01FFFFFC00000001FFFFFC0000000000000000007FFFFE00
01FFFFFC00000001FFFFFC0000000000000000007FFFFC00
00FFFFFE00000000FFFFFE000000000000000000FFFFFC00
00FFFFFF00000000FFFFFE000000000000000000FFFFF800
007FFFFF000000007FFFFF000000000000000001FFFFF800
003FFFFF800000007FFFFF000000000000000001FFFFF000
003FFFFF800000003FFFFF800000000000000003FFFFF000
001FFFFFC00000003FFFFF800000000000000003FFFFE000
001FFFFFC00000001FFFFFC00000000000000007FFFFE000
000FFFFFE00000001FFFFFC00000000000000007FFFFC000
000FFFFFE00000000FFFFFE0000000000000000FFFFFC000
0007FFFFF000000007FFFFE0000000000000000FFFFF8000
0007FFFFF000000007FFFFF0000000000000001FFFFF8000
0003FFFFF800000003FFFFF0000000000000001FFFFF0000
0003FFFFF800000003FFFFF8000000000000003FFFFE0000
0001FFFFFC00000001FFFFF8000000000000007FFFFE0000
0001FFFFFC00000001FFFFFC000000000000007FFFFC0000
0000FFFFFE00000000FFFFFC00000000000000FFFFFC0000
00007FFFFE00000000FFFFFE00000000000000FFFFF80000
00007FFFFF000000007FFFFE00000000000001FFFFF80000
00003FFFFF000000007FFFFF00000000000001FFFFF00000
00003FFFFF800000003FFFFF00000000000003FFFFF00000
00001FFFFF800000003FFFFF80000000000003FFFFE00000
00001FFFFFC00000001FFFFF80000000000007FFFFE00000
00000FFFFFE00000001FFFFFC0000000000007FFFFC00000
00000FFFFFE00000000FFFFFC000000000000FFFFFC00000
000007FFFFF00000000FFFFFE000000000000FFFFF800000
000007FFFFF000000007FFFFE000000000001FFFFF000000
000003FFFFF800000007FFFFF000000000001FFFFF000000
000003FFFFF800000003FFFFF000000000003FFFFE000000
000001FFFFFC00000003FFFFF800000000003FFFFE000000
000000FFFFFC00000001FFFFF800000000007FFFFC000000
000000FFFFFE00000001FFFFFC0000000000FFFFFC000000
0000007FFFFE00000000FFFFFE0000000000FFFFF8000000
0000007FFFFF00000000FFFFFE0000000001FFFFF8000000
0000003FFFFF000000007FFFFF0000000001FFFFF0000000
0000003FFFFF800000003FFFFF0000000003FFFFF0000000
0000001FFFFF800000003FFFFF8000000003FFFFE0000000
0000001FFFFFC00000001FFFFF8000000007FFFFE0000000
0000000FFFFFC00000001FFFFFC000000007FFFFC0000000
0000000FFFFFE00000000FFFFFC00000000FFFFF80000000
00000007FFFFE00000000FFFFFE00000000FFFFF80000000
00000007FFFFF000000007FFFFE00000001FFFFF00000000
00000003FFFFF000000007FFFFF00000001FFFFF00000000
00000001FFFFF800000007FFFFF00000003FFFFE00000000
00000001FFFFFC0000000FFFFFF80000003FFFFE00000000
00000000FFFFFC0000000FFFFFF80000007FFFFC00000000
00000000FFFFFE0000001FFFFFFC0000007FFFFC00000000
000000007FFFFE0000003FFFFFFC000000FFFFF800000000
000000007FFFFF0000003FFFFFFE000000FFFFF800000000
000000003FFFFF0000007FFFFFFE000001FFFFF000000000
000000003FFFFF8000007FFFFFFF000003FFFFF000000000
000000001FFFFF800000FFFFFFFF000003FFFFE000000000
000000001FFFFFC00000FFFFFFFF800007FFFFC000000000
000000000FFFFFC00001FFFFFFFF800007FFFFC000000000
000000000FFFFFE00001FFFFFFFFC0000FFFFF8000000000
0000000007FFFFE00003FFFFFFFFC0000FFFFF8000000000
0000000003FFFFF00007FFFFFFFFE0001FFFFF0000000000
0000000003FFFFF00007FFFFFFFFE0001FFFFF0000000000
0000000001FFFFF8000FFFFFFFFFF0003FFFFE0000000000
0000000001FFFFF8000FFFFFFFFFF0003FFFFE0000000000
0000000000FFFFFC001FFFFFFFFFF8007FFFFC0000000000
0000000000FFFFFC001FFFFFFFFFF8007FFFFC0000000000
00000000007FFFFE003FFFFCFFFFFC00FFFFF80000000000
00000000007FFFFF003FFFFCFFFFFC00FFFFF80000000000
00000000003FFFFF007FFFF87FFFFE01FFFFF00000000000
00000000003FFFFF80FFFFF87FFFFE01FFFFE00000000000
00000000001FFFFF80FFFFF03FFFFF03FFFFE00000000000
00000000001FFFFFC1FFFFF03FFFFF07FFFFC00000000000
00000000000FFFFFC1FFFFE01FFFFF87FFFFC00000000000
000000000007FFFFE3FFFFE01FFFFF8FFFFF800000000000
000000000007FFFFE3FFFFC00FFFFFCFFFFF800000000000
000000000003FFFFF7FFFFC00FFFFFDFFFFF000000000000
000000000003FFFFF7FFFF8007FFFFFFFFFF000000000000
000000000001FFFFFFFFFF8007FFFFFFFFFE000000000000
000000000001FFFFFFFFFF0003FFFFFFFFFE000000000000
000000000000FFFFFFFFFF0003FFFFFFFFFC000000000000
000000000000FFFFFFFFFE0001FFFFFFFFFC000000000000
0000000000007FFFFFFFFC0001FFFFFFFFF8000000000000
0000000000007FFFFFFFFC0000FFFFFFFFF0000000000000
0000000000003FFFFFFFF800007FFFFFFFF0000000000000
0000000000003FFFFFFFF800007FFFFFFFE0000000000000
0000000000001FFFFFFFF000003FFFFFFFE0000000000000
0000000000000FFFFFFFF000003FFFFFFFC0000000000000
0000000000000FFFFFFFE000001FFFFFFFC0000000000000
00000000000007FFFFFFE000001FFFFFFF80000000000000
00000000000007FFFFFFC000000FFFFFFF80000000000000
00000000000003FFFFFFC000000FFFFFFF00000000000000
00000000000003FFFFFF80000007FFFFFF00000000000000
00000000000001FFFFFF80000007FFFFFE00000000000000
00000000000001FFFFFF00000003FFFFFE00000000000000
00000000000000FFFFFF00000003FFFFFC00000000000000
00000000000000FFFFFE00000001FFFFF800000000000000
000000000000007FFFFC00000001FFFFF800000000000000
000000000000007FFFFC00000000FFFFF000000000000000
000000000000003FFFF800000000FFFFF000000000000000
000000000000001FFFF8000000007FFFE000000000000000
000000000000001FFFF0000000003FFFC000000000000000
0000000000000007FFE0000000001FFF8000000000000000
0000000000000003FF80000000000FFF0000000000000000
0000000000000000FE000000000001FC0000000000000000
ENDCHAR
STARTCHAR X
ENCODING 88
SWIDTH 1000 0
DWIDTH 153 0
BBX 146 111 3 0
BITMAP
07FFFFFF000000000000000000001FFFFFF800
03FFFFFF800000000000000000003FFFFFE000
01FFFFFFC00000000000000000007FFFFFC000
00FFFFFFE0000000000000000000FFFFFF8000
007FFFFFF0000000000000000001FFFFFF0000
003FFFFFF8000000000000000003FFFFFE0000
001FFFFFFC000000000000000007FFFFFC0000
000FFFFFFE00000000000000000FFFFFF80000
0007FFFFFF00000000000000001FFFFFF00000
0003FFFFFF80000000000000003FFFFFE00000
0001FFFFFFC0000000000000007FFFFFC00000
0000FFFFFFE000000000000000FFFFFF800000
00007FFFFFF000000000000001FFFFFF000000
00003FFFFFF800000000000003FFFFFE000000
00001FFFFFFC00000000000007FFFFFC000000
00000FFFFFFE0000000000000FFFFFF8000000
000007FFFFFF0000000000001FFFFFF0000000
000001FFFFFF8000000000003FFFFFE0000000
000000FFFFFFC000000000007FFFFFC0000000
0000007FFFFFE00000000000FFFFFF80000000
0000003FFFFFF00000000001FFFFFF00000000
0000001FFFFFF80000000003FFFFFE00000000
0000000FFFFFFC0000000007FFFFFC00000000
00000007FFFFFE000000000FFFFFF800000000
00000003FFFFFF000000001FFFFFF000000000
00000001FFFFFF800000003FFFFFE000000000
00000000FFFFFFC00000007FFFFFC000000000
000000007FFFFFE0000000FFFFFF8000000000
000000003FFFFFF0000001FFFFFF0000000000
000000001FFFFFF8000003FFFFFE0000000000
000000000FFFFFFC000007FFFFFC0000000000
0000000007FFFFFE00000FFFFFF80000000000
0000000003FFFFFF00001FFFFFF00000000000
0000000001FFFFFF80003FFFFFE00000000000
0000000000FFFFFFC0007FFFFFC00000000000
00000000007FFFFFE000FFFFFF800000000000
00000000003FFFFFF001FFFFFF000000000000
00000000001FFFFFF803FFFFFE000000000000
00000000000FFFFFFC07FFFFF8000000000000
000000000007FFFFFE0FFFFFF0000000000000
000000000003FFFFFF1FFFFFE0000000000000
000000000001FFFFFFBFFFFFC0000000000000
000000000000FFFFFFFFFFFF80000000000000
0000000000007FFFFFFFFFFF00000000000000
0000000000003FFFFFFFFFFE00000000000000
0000000000001FFFFFFFFFFC00000000000000
0000000000000FFFFFFFFFF800000000000000
00000000000007FFFFFFFFF000000000000000
00000000000003FFFFFFFFE000000000000000
00000000000001FFFFFFFFC000000000000000
00000000000000FFFFFFFF8000000000000000
000000000000007FFFFFFF0000000000000000
000000000000003FFFFFFE0000000000000000
000000000000001FFFFFFC0000000000000000
000000000000000FFFFFFC0000000000000000
000000000000001FFFFFFE0000000000000000
000000000000003FFFFFFF0000000000000000
000000000000007FFFFFFF8000000000000000
00000000000001FFFFFFFFC000000000000000
00000000000003FFFFFFFFE000000000000000
00000000000007FFFFFFFFF000000000000000
0000000000000FFFFFFFFFF800000000000000
0000000000001FFFFFFFFFFC00000000000000
0000000000003FFFFFFFFFFE00000000000000
0000000000007FFFFFFFFFFF00000000000000
000000000000FFFFFFFFFFFF80000000000000
000000000001FFFFFFFFFFFFE0000000000000
000000000003FFFFFE7FFFFFF0000000000000
000000000007FFFFFC3FFFFFF8000000000000
00000000000FFFFFF81FFFFFFC000000000000
00000000001FFFFFF00FFFFFFE000000000000
00000000003FFFFFE007FFFFFF000000000000
00000000007FFFFF8003FFFFFF800000000000
0000000000FFFFFF0001FFFFFFC00000000000
0000000001FFFFFE0000FFFFFFE00000000000
0000000003FFFFFC00007FFFFFF00000000000
0000000007FFFFF800003FFFFFF80000000000
000000000FFFFFF000001FFFFFFC0000000000
000000003FFFFFE000000FFFFFFE0000000000
000000007FFFFFC0000003FFFFFF0000000000
00000000FFFFFF80000001FFFFFF8000000000
00000001FFFFFF00000000FFFFFFC000000000
00000003FFFFFE000000007FFFFFE000000000
00000007FFFFFC000000003FFFFFF800000000
0000000FFFFFF8000000001FFFFFFC00000000
0000001FFFFFF0000000000FFFFFFE00000000
0000003FFFFFE00000000007FFFFFF00000000
0000007FFFFFC00000000003FFFFFF80000000
000000FFFFFF800000000001FFFFFFC0000000
000001FFFFFF000000000000FFFFFFE0000000
000003FFFFFE0000000000007FFFFFF0000000
000007FFFFFC0000000000003FFFFFF8000000
00000FFFFFF80000000000001FFFFFFC000000
00001FFFFFF00000000000000FFFFFFE000000
00003FFFFFE000000000000007FFFFFF000000
00007FFFFFC000000000000003FFFFFF800000
0000FFFFFF8000000000000001FFFFFFC00000
0001FFFFFF0000000000000000FFFFFFE00000
0007FFFFFE00000000000000007FFFFFF00000
000FFFFFFC00000000000000003FFFFFFC0000
001FFFFFF000000000000000001FFFFFFE0000
003FFFFFE0000000000000000007FFFFFF0000
007FFFFFC0000000000000000003FFFFFF8000
00FFFFFF80000000000000000001FFFFFFC000
01FFFFFF00000000000000000000FFFFFFE000
03FFFFFE000000000000000000007FFFFFF000
07FFFFFC000000000000000000003FFFFFF800
0FFFFFF8000000000000000000001FFFFFFC00
1FFFFFF0000000000000000000000FFFFFFE00
3FFFFFE00000000000000000000007FFFFFF00
FFFFFFC00000000000000000000003FFFFFFC0
ENDCHAR
STARTCHAR Y
ENCODING 89
SWIDTH 926 0
DWIDTH 142 0
BBX 138 111 2 0
BITMAP
FFFFFFE000000000000000000000FFFFFFC0
7FFFFFE000000000000000000000FFFFFF00
3FFFFFF000000000000000000001FFFFFF00
1FFFFFF800000000000000000003FFFFFE00
0FFFFFFC00000000000000000007FFFFFC00
07FFFFFE0000000000000000000FFFFFF800
07FFFFFF0000000000000000001FFFFFF000
03FFFFFF0000000000000000001FFFFFE000
01FFFFFF8000000000000000003FFFFFC000
00FFFFFFC000000000000000007FFFFFC000
007FFFFFE00000000000000000FFFFFF8000
003FFFFFF00000000000000001FFFFFF0000
001FFFFFF80000000000000003FFFFFE0000
001FFFFFF80000000000000003FFFFFC0000
000FFFFFFC0000000000000007FFFFF80000
0007FFFFFE000000000000000FFFFFF80000
0003FFFFFF000000000000001FFFFFF00000
0001FFFFFF800000000000003FFFFFE00000
0000FFFFFFC00000000000007FFFFFC00000
00007FFFFFC00000000000007FFFFF800000
00007FFFFFE0000000000000FFFFFF000000
00003FFFFFF0000000000001FFFFFE000000
00001FFFFFF8000000000003FFFFFE000000
00000FFFFFFC000000000007FFFFFC000000
000007FFFFFE00000000000FFFFFF8000000
000003FFFFFE00000000000FFFFFF0000000
000003FFFFFF00000000001FFFFFE0000000
000001FFFFFF80000000003FFFFFC0000000
000000FFFFFFC0000000007FFFFF80000000
0000007FFFFFE000000000FFFFFF80000000
0000003FFFFFF000000001FFFFFF00000000
0000001FFFFFF000000001FFFFFE00000000
0000000FFFFFF800000003FFFFFC00000000
0000000FFFFFFC00000007FFFFF800000000
00000007FFFFFE0000000FFFFFF000000000
00000003FFFFFF0000001FFFFFE000000000
00000001FFFFFF8000003FFFFFE000000000
00000000FFFFFF8000003FFFFFC000000000
000000007FFFFFC000007FFFFF8000000000
000000003FFFFFE00000FFFFFF0000000000
000000003FFFFFF00001FFFFFE0000000000
000000001FFFFFF80003FFFFFC0000000000
000000000FFFFFF80007FFFFFC0000000000
0000000007FFFFFC0007FFFFF80000000000
0000000003FFFFFE000FFFFFF00000000000
0000000001FFFFFF001FFFFFE00000000000
0000000000FFFFFF803FFFFFC00000000000
0000000000FFFFFFC07FFFFF800000000000
00000000007FFFFFC0FFFFFF000000000000
00000000003FFFFFE0FFFFFF000000000000
00000000001FFFFFF1FFFFFE000000000000
00000000000FFFFFFBFFFFFC000000000000
000000000007FFFFFFFFFFF8000000000000
000000000007FFFFFFFFFFF0000000000000
000000000003FFFFFFFFFFE0000000000000
000000000001FFFFFFFFFFC0000000000000
000000000000FFFFFFFFFFC0000000000000
0000000000007FFFFFFFFF80000000000000
0000000000003FFFFFFFFF00000000000000
0000000000001FFFFFFFFE00000000000000
0000000000001FFFFFFFFC00000000000000
0000000000000FFFFFFFF800000000000000
00000000000007FFFFFFF000000000000000
00000000000003FFFFFFF000000000000000
00000000000001FFFFFFE000000000000000
00000000000000FFFFFFC000000000000000
00000000000000FFFFFF8000000000000000
000000000000007FFFFF0000000000000000
000000000000003FFFFE0000000000000000
000000000000001FFFFC0000000000000000
000000000000001FFFFC0000000000000000
000000000000001FFFFC0000000000000000
000000000000001FFFFC0000000000000000
000000000000001FFFFC0000000000000000
000000000000001FFFFC0000000000000000
000000000000001FFFFC0000000000000000
000000000000001FFFFC0000000000000000
000000000000001FFFFC0000000000000000
000000000000001FFFFC0000000000000000
000000000000001FFFFC0000000000000000
000000000000001FFFFC0000000000000000
000000000000001FFFFC0000000000000000
000000000000001FFFFC0000000000000000
000000000000001FFFFC0000000000000000
000000000000001FFFFC0000000000000000
000000000000001FFFFC0000000000000000
000000000000001FFFFC0000000000000000
000000000000001FFFFC0000000000000000
000000000000001FFFFC0000000000000000
000000000000001FFFFC0000000000000000
000000000000001FFFFC0000000000000000
000000000000001FFFFC0000000000000000
000000000000001FFFFC0000000000000000
000000000000001FFFFC0000000000000000
000000000000001FFFFC0000000000000000
000000000000001FFFFC0000000000000000
000000000000001FFFFC0000000000000000
000000000000001FFFFC0000000000000000
000000000000001FFFFC0000000000000000
000000000000001FFFFC0000000000000000
000000000000001FFFFC0000000000000000
000000000000001FFFFC0000000000000000
000000000000001FFFFC0000000000000000
000000000000001FFFFC0000000000000000
000000000000001FFFFC0000000000000000
000000000000001FFFFC0000000000000000
000000000000001FFFFC0000000000000000
000000000000001FFFFC0000000000000000
000000000000001FFFFC0000000000000000
000000000000001FFFFC0000000000000000
000000000000001FFFFC0000000000000000
ENDCHAR
STARTCHAR Z
ENCODING 90
SWIDTH 802 0
DWIDTH 123 0
BBX 110 111 6 0
BITMAP
7FFFFFFFFFFFFFFFFFFFFFFFFC00
7FFFFFFFFFFFFFFFFFFFFFFFFF80
7FFFFFFFFFFFFFFFFFFFFFFFFFC0
7FFFFFFFFFFFFFFFFFFFFFFFFFF0
7FFFFFFFFFFFFFFFFFFFFFFFFFF0
7FFFFFFFFFFFFFFFFFFFFFFFFFF8
7FFFFFFFFFFFFFFFFFFFFFFFFFF8
7FFFFFFFFFFFFFFFFFFFFFFFFFFC
7FFFFFFFFFFFFFFFFFFFFFFFFFFC
7FFFFFFFFFFFFFFFFFFFFFFFFFFC
7FFFFFFFFFFFFFFFFFFFFFFFFFFC
7FFFFFFFFFFFFFFFFFFFFFFFFFFC
7FFFFFFFFFFFFFFFFFFFFFFFFFF8
7FFFFFFFFFFFFFFFFFFFFFFFFFF8
7FFFFFFFFFFFFFFFFFFFFFFFFFF8
7FFFFFFFFFFFFFFFFFFFFFFFFFF0
7FFFFFFFFFFFFFFFFFFFFFFFFFE0
7FFFFFFFFFFFFFFFFFFFFFFFFFE0
00000000000000000007FFFFFFC0
00000000000000000007FFFFFF80
0000000000000000000FFFFFFF00
0000000000000000001FFFFFFE00
0000000000000000003FFFFFFC00
0000000000000000007FFFFFF800
000000000000000000FFFFFFF000
000000000000000001FFFFFFE000
000000000000000003FFFFFFC000
000000000000000007FFFFFF8000
00000000000000000FFFFFFF0000
00000000000000001FFFFFFE0000
00000000000000003FFFFFFC0000
00000000000000007FFFFFF80000
0000000000000000FFFFFFF00000
0000000000000001FFFFFFE00000
0000000000000003FFFFFFC00000
0000000000000007FFFFFF800000
000000000000000FFFFFFF000000
000000000000001FFFFFFE000000
000000000000003FFFFFFC000000
000000000000007FFFFFF8000000
00000000000000FFFFFFF0000000
00000000000001FFFFFFE0000000
00000000000003FFFFFFC0000000
00000000000007FFFFFF80000000
0000000000000FFFFFFF00000000
0000000000001FFFFFFE00000000
0000000000003FFFFFFC00000000
0000000000007FFFFFF800000000
000000000000FFFFFFF000000000
000000000001FFFFFFE000000000
000000000003FFFFFFC000000000
000000000007FFFFFF8000000000
00000000000FFFFFFF0000000000
00000000001FFFFFFE0000000000
00000000003FFFFFFC0000000000
00000000007FFFFFF80000000000
0000000000FFFFFFF00000000000
0000000001FFFFFFE00000000000
0000000003FFFFFFC00000000000
0000000007FFFFFF800000000000
000000000FFFFFFF000000000000
000000001FFFFFFE000000000000
000000003FFFFFFC000000000000
000000007FFFFFF8000000000000
00000000FFFFFFF0000000000000
00000001FFFFFFE0000000000000
00000003FFFFFFC0000000000000
00000007FFFFFF80000000000000
0000000FFFFFFF00000000000000
0000001FFFFFFE00000000000000
0000003FFFFFFC00000000000000
0000007FFFFFF800000000000000
000000FFFFFFF000000000000000
000001FFFFFFE000000000000000
000003FFFFFFC000000000000000
000007FFFFFF8000000000000000
00000FFFFFFF0000000000000000
00001FFFFFFE0000000000000000
00003FFFFFFC0000000000000000
00007FFFFFF80000000000000000
0000FFFFFFF00000000000000000
0001FFFFFFE00000000000000000
0003FFFFFFC00000000000000000
0007FFFFFF800000000000000000
000FFFFFFF000000000000000000
001FFFFFFE000000000000000000
003FFFFFFC000000000000000000
007FFFFFF8000000000000000000
00FFFFFFF0000000000000000000
01FFFFFFE0000000000000000000
03FFFFFFC0000000000000000000
07FFFFFF80000000000000000000
0FFFFFFF00000000000000000000
1FFFFFFFFFFFFFFFFFFFFFFFFFF8
1FFFFFFFFFFFFFFFFFFFFFFFFFF8
3FFFFFFFFFFFFFFFFFFFFFFFFFF8
7FFFFFFFFFFFFFFFFFFFFFFFFFF8
7FFFFFFFFFFFFFFFFFFFFFFFFFF8
FFFFFFFFFFFFFFFFFFFFFFFFFFF8
FFFFFFFFFFFFFFFFFFFFFFFFFFF8
FFFFFFFFFFFFFFFFFFFFFFFFFFF8
FFFFFFFFFFFFFFFFFFFFFFFFFFF8
FFFFFFFFFFFFFFFFFFFFFFFFFFF8
FFFFFFFFFFFFFFFFFFFFFFFFFFF8
7FFFFFFFFFFFFFFFFFFFFFFFFFF8
7FFFFFFFFFFFFFFFFFFFFFFFFFF8
3FFFFFFFFFFFFFFFFFFFFFFFFFF8
3FFFFFFFFFFFFFFFFFFFFFFFFFF8
1FFFFFFFFFFFFFFFFFFFFFFFFFF8
07FFFFFFFFFFFFFFFFFFFFFFFFF8
00FFFFFFFFFFFFFFFFFFFFFFFFF8
ENDCHAR
STARTCHAR bracketleft
ENCODING 91
SWIDTH 333 0
DWIDTH 51 0
BBX 26 140 15 -14
BITMAP
FFFFFFC0
FFFFFFC0
FFFFFFC0
FFFFFFC0
FFFFFFC0
FFFFFFC0
FFFFFFC0
FFFFFFC0
FFFFFFC0
FFFFFFC0
FFFFFFC0
FFFFFFC0
FFFFFFC0
FFF80000
FFF80000
FFF80000
FFF80000
FFF80000
FFF80000
FFF80000
FFF80000
FFF80000
FFF80000
FFF80000
FFF80000
FFF80000
FFF80000
FFF80000
FFF80000
FFF80000
FFF80000
FFF80000
FFF80000
FFF80000
FFF80000
FFF80000
FFF80000
FFF80000
FFF80000
FFF80000
FFF80000
FFF80000
FFF80000
FFF80000
FFF80000
FFF80000
FFF80000
FFF80000
FFF80000
FFF80000
FFF80000
FFF80000
FFF80000
FFF80000
FFF80000
FFF80000
FFF80000
FFF80000
FFF80000
FFF80000
FFF80000
FFF80000
FFF80000
FFF80000
FFF80000
FFF80000
FFF80000
FFF80000
FFF80000
FFF80000
FFF80000
FFF80000
FFF80000
FFF80000
FFF80000
FFF80000
FFF80000
FFF80000
FFF80000
FFF80000
FFF80000
FFF80000
FFF80000
FFF80000
FFF80000
FFF80000
FFF80000
FFF80000
FFF80000
FFF80000
FFF80000
FFF80000
FFF80000
FFF80000
FFF80000
FFF80000
FFF80000
FFF80000
FFF80000
FFF80000
FFF80000
FFF80000
FFF80000
FFF80000
FFF80000
FFF80000
FFF80000
FFF80000
FFF80000
FFF80000
FFF80000
FFF80000
FFF80000
FFF80000
FFF80000
FFF80000
FFF80000
FFF80000
FFF80000
FFF80000
FFF80000
FFF80000
FFF80000
FFF80000
FFF80000
FFF80000
FFF80000
FFF80000
FFFFFFC0
FFFFFFC0
FFFFFFC0
FFFFFFC0
FFFFFFC0
FFFFFFC0
FFFFFFC0
FFFFFFC0
FFFFFFC0
FFFFFFC0
FFFFFFC0
FFFFFFC0
ENDCHAR
STARTCHAR backslash
ENCODING 92
SWIDTH 445 0
DWIDTH 68 0
BBX 65 111 2 0
BITMAP
FFF800000000000000
FFF800000000000000
7FFC00000000000000
7FFC00000000000000
3FFC00000000000000
3FFE00000000000000
1FFE00000000000000
1FFF00000000000000
1FFF00000000000000
0FFF80000000000000
0FFF80000000000000
07FFC0000000000000
07FFC0000000000000
03FFE0000000000000
03FFE0000000000000
01FFF0000000000000
01FFF0000000000000
00FFF8000000000000
00FFF8000000000000
007FFC000000000000
007FFC000000000000
003FFC000000000000
003FFE000000000000
003FFE000000000000
001FFF000000000000
001FFF000000000000
000FFF800000000000
000FFF800000000000
0007FFC00000000000
0007FFC00000000000
0003FFE00000000000
0003FFE00000000000
0001FFF00000000000
0001FFF00000000000
0000FFF80000000000
0000FFF80000000000
0000FFFC0000000000
00007FFC0000000000
00007FFC0000000000
00003FFE0000000000
00003FFE0000000000
00001FFF0000000000
00001FFF0000000000
00000FFF8000000000
00000FFF8000000000
000007FFC000000000
000007FFC000000000
000003FFE000000000
000003FFE000000000
000001FFF000000000
000001FFF000000000
000001FFF800000000
000000FFF800000000
000000FFFC00000000
0000007FFC00000000
0000007FFC00000000
0000003FFE00000000
0000003FFE00000000
0000001FFF00000000
0000001FFF00000000
0000000FFF80000000
0000000FFF80000000
00000007FFC0000000
00000007FFC0000000
00000007FFE0000000
00000003FFE0000000
00000003FFF0000000
00000001FFF0000000
00000001FFF8000000
00000000FFF8000000
00000000FFFC000000
000000007FFC000000
000000007FFC000000
000000003FFE000000
000000003FFE000000
000000001FFF000000
000000001FFF000000
000000000FFF800000
000000000FFF800000
000000000FFFC00000
0000000007FFC00000
0000000007FFE00000
0000000003FFE00000
0000000003FFF00000
0000000001FFF00000
0000000001FFF80000
0000000000FFF80000
0000000000FFFC0000
00000000007FFC0000
00000000007FFC0000
00000000003FFE0000
00000000003FFE0000
00000000003FFF0000
00000000001FFF0000
00000000001FFF8000
00000000000FFF8000
00000000000FFFC000
000000000007FFC000
000000000007FFE000
000000000003FFE000
000000000003FFF000
000000000001FFF000
000000000001FFF800
000000000000FFF800
000000000000FFFC00
0000000000007FFC00
0000000000007FFC00
0000000000007FFE00
0000000000003FFE00
0000000000003FFF00
0000000000001FFF80
ENDCHAR
STARTCHAR bracketright
ENCODING 93
SWIDTH 333 0
DWIDTH 51 0
BBX 26 140 10 -14
BITMAP
FFFFFFC0
FFFFFFC0
FFFFFFC0
FFFFFFC0
FFFFFFC0
FFFFFFC0
FFFFFFC0
FFFFFFC0
FFFFFFC0
FFFFFFC0
FFFFFFC0
FFFFFFC0
FFFFFFC0
0007FFC0
0007FFC0
0007FFC0
0007FFC0
0007FFC0
0007FFC0
0007FFC0
0007FFC0
0007FFC0
0007FFC0
0007FFC0
0007FFC0
0007FFC0
0007FFC0
0007FFC0
0007FFC0
0007FFC0
0007FFC0
0007FFC0
0007FFC0
0007FFC0
0007FFC0
0007FFC0
0007FFC0
0007FFC0
0007FFC0
0007FFC0
0007FFC0
0007FFC0
0007FFC0
0007FFC0
0007FFC0
0007FFC0
0007FFC0
0007FFC0
0007FFC0
0007FFC0
0007FFC0
0007FFC0
0007FFC0
0007FFC0
0007FFC0
0007FFC0
0007FFC0
0007FFC0
0007FFC0
0007FFC0
0007FFC0
0007FFC0
0007FFC0
0007FFC0
0007FFC0
0007FFC0
0007FFC0
0007FFC0
0007FFC0
0007FFC0
0007FFC0
0007FFC0
0007FFC0
0007FFC0
0007FFC0
0007FFC0
0007FFC0
0007FFC0
0007FFC0
0007FFC0
0007FFC0
0007FFC0
0007FFC0
0007FFC0
0007FFC0
0007FFC0
0007FFC0
0007FFC0
0007FFC0
0007FFC0
0007FFC0
0007FFC0
0007FFC0
0007FFC0
0007FFC0
0007FFC0
0007FFC0
0007FFC0
0007FFC0
0007FFC0
0007FFC0
0007FFC0
0007FFC0
0007FFC0
0007FFC0
0007FFC0
0007FFC0
0007FFC0
0007FFC0
0007FFC0
0007FFC0
0007FFC0
0007FFC0
0007FFC0
0007FFC0
0007FFC0
0007FFC0
0007FFC0
0007FFC0
0007FFC0
0007FFC0
0007FFC0
0007FFC0
0007FFC0
0007FFC0
0007FFC0
0007FFC0
0007FFC0
FFFFFFC0
FFFFFFC0
FFFFFFC0
FFFFFFC0
FFFFFFC0
FFFFFFC0
FFFFFFC0
FFFFFFC0
FFFFFFC0
FFFFFFC0
FFFFFFC0
FFFFFFC0
ENDCHAR
STARTCHAR asciicircum
ENCODING 94
SWIDTH 559 0
DWIDTH 86 0
BBX 66 67 10 44
BITMAP
00000003E000000000
0000000FF800000000
0000001FFC00000000
0000001FFE00000000
0000003FFF00000000
0000003FFF00000000
0000007FFF80000000
0000007FFF80000000
000000FFFFC0000000
000000FFFFC0000000
000000FFFFC0000000
000001FFFFE0000000
000001FFFFE0000000
000003FFFFF0000000
000003FFFFF0000000
000007FFFFF8000000
000007FFFFF8000000
000007FFFFF8000000
00000FFF7FFC000000
00000FFF3FFC000000
00001FFE3FFE000000
00001FFE1FFE000000
00003FFE1FFE000000
00003FFC1FFF000000
00003FFC0FFF000000
00007FF80FFF800000
00007FF807FF800000
0000FFF807FFC00000
0000FFF007FFC00000
0001FFF003FFC00000
0001FFE003FFE00000
0001FFE001FFE00000
0003FFE001FFF00000
0003FFC001FFF00000
0007FFC000FFF00000
0007FF8000FFF80000
000FFF80007FF80000
000FFF80007FFC0000
000FFF00007FFC0000
001FFF00003FFE0000
001FFE00003FFE0000
003FFE00001FFE0000
003FFC00001FFF0000
007FFC00001FFF0000
007FFC00000FFF8000
007FF800000FFF8000
00FFF8000007FFC000
00FFF0000007FFC000
01FFF0000007FFC000
01FFF0000003FFE000
03FFE0000003FFE000
03FFE0000001FFF000
03FFC0000001FFF000
07FFC0000001FFF000
07FFC0000000FFF800
0FFF80000000FFF800
0FFF800000007FFC00
1FFF000000007FFC00
1FFF000000003FFE00
1FFF000000003FFE00
3FFE000000003FFE00
3FFE000000001FFF00
7FFC000000001FFF00
7FFC000000000FFF80
FFF8000000000FFF80
FFF8000000000FFF80
FFF80000000007FFC0
ENDCHAR
STARTCHAR underscore
ENCODING 95
SWIDTH 668 0
DWIDTH 102 0
BBX 103 9 0 -25
BITMAP
FFFFFFFFFFFFFFFFFFFFFFFFFE
FFFFFFFFFFFFFFFFFFFFFFFFFE
FFFFFFFFFFFFFFFFFFFFFFFFFE
FFFFFFFFFFFFFFFFFFFFFFFFFE
FFFFFFFFFFFFFFFFFFFFFFFFFE
FFFFFFFFFFFFFFFFFFFFFFFFFE
FFFFFFFFFFFFFFFFFFFFFFFFFE
FFFFFFFFFFFFFFFFFFFFFFFFFE
FFFFFFFFFFFFFFFFFFFFFFFFFE
ENDCHAR
STARTCHAR grave
ENCODING 96
SWIDTH 362 0
DWIDTH 55 0
BBX 39 20 8 118
BITMAP
E000000000
FC00000000
FFC0000000
FFF8000000
FFFF000000
FFFFF00000
FFFFFE0000
FFFFFFC000
FFFFFFFC00
FFFFFFFF80
FFFFFFFFF0
FFFFFFFFFE
0FFFFFFFFE
00FFFFFFFE
0007FFFFFE
00003FFFFE
000003FFFE
0000001FFE
00000000FE
000000000E
ENDCHAR
STARTCHAR a
ENCODING 97
SWIDTH 989 0
DWIDTH 151 0
BBX 147 113 2 0
BITMAP
00000000000000000040000000000000000000
000000000000000007FC000000000000000000
00000000000000000FFE000000000000000000
00000000000000001FFF800000000000000000
00000000000000003FFF800000000000000000
00000000000000007FFFC00000000000000000
0000000000000000FFFFE00000000000000000
0000000000000000FFFFE00000000000000000
0000000000000001FFFFF00000000000000000
0000000000000003FFFFF80000000000000000
0000000000000003FFFFF80000000000000000
0000000000000007FFFFFC0000000000000000
0000000000000007FFFFFC0000000000000000
000000000000000FFFFFFE0000000000000000
000000000000001FFFFFFF0000000000000000
000000000000001FFFFFFF0000000000000000
000000000000003FFFFFFF8000000000000000
000000000000003FFFFFFF8000000000000000
000000000000007FFFFFFFC000000000000000
00000000000000FFFFFFFFE000000000000000
00000000000000FFFFFFFFE000000000000000
00000000000001FFFFFFFFF000000000000000
00000000000001FFFFFFFFF000000000000000
00000000000003FFFFFFFFF800000000000000
00000000000007FFFFFFFFFC00000000000000
00000000000007FFFFFFFFFC00000000000000
0000000000000FFFFFFFFFFE00000000000000
0000000000000FFFFFFFFFFE00000000000000
0000000000001FFFFFFFFFFF00000000000000
0000000000003FFFFF3FFFFF80000000000000
0000000000003FFFFE3FFFFF80000000000000
0000000000007FFFFE1FFFFFC0000000000000
0000000000007FFFFC1FFFFFC0000000000000
000000000000FFFFFC0FFFFFE0000000000000
000000000001FFFFF807FFFFF0000000000000
000000000001FFFFF007FFFFF0000000000000
000000000003FFFFF003FFFFF8000000000000
000000000003FFFFE003FFFFF8000000000000
000000000007FFFFE001FFFFFC000000000000
00000000000FFFFFC000FFFFFE000000000000
00000000000FFFFF8000FFFFFE000000000000
00000000001FFFFF80007FFFFF000000000000
00000000001FFFFF00003FFFFF000000000000
00000000003FFFFF00003FFFFF800000000000
00000000007FFFFE00001FFFFFC00000000000
00000000007FFFFC00001FFFFFC00000000000
0000000000FFFFFC00000FFFFFE00000000000
0000000000FFFFF8000007FFFFE00000000000
0000000001FFFFF8000007FFFFF00000000000
0000000003FFFFF0000003FFFFF80000000000
0000000003FFFFF0000003FFFFF80000000000
0000000007FFFFE0000001FFFFFC0000000000
0000000007FFFFC0000000FFFFFE0000000000
000000000FFFFFC0000000FFFFFE0000000000
000000001FFFFF800000007FFFFF0000000000
000000001FFFFF800000007FFFFF0000000000
000000003FFFFF000000003FFFFF8000000000
000000003FFFFE000000001FFFFFC000000000
000000007FFFFE000000001FFFFFC000000000
00000000FFFFFC000000000FFFFFE000000000
00000000FFFFFC000000000FFFFFE000000000
00000001FFFFF80000000007FFFFF000000000
00000001FFFFF00000000003FFFFF800000000
00000003FFFFF00000000003FFFFF800000000
00000007FFFFE00000000001FFFFFC00000000
00000007FFFFE00000000001FFFFFC00000000
0000000FFFFFC00000000000FFFFFE00000000
0000000FFFFF8000000000007FFFFF00000000
0000001FFFFF8000000000007FFFFF00000000
0000003FFFFF0001FFFFFFFFFFFFFF80000000
0000003FFFFF0001FFFFFFFFFFFFFF80000000
0000007FFFFE0003FFFFFFFFFFFFFFC0000000
0000007FFFFC0007FFFFFFFFFFFFFFE0000000
000000FFFFFC0007FFFFFFFFFFFFFFE0000000
000001FFFFF8000FFFFFFFFFFFFFFFF0000000
000001FFFFF8000FFFFFFFFFFFFFFFF0000000
000003FFFFF0001FFFFFFFFFFFFFFFF8000000
000007FFFFE0001FFFFFFFFFFFFFFFFC000000
000007FFFFE0003FFFFFFFFFFFFFFFFC000000
00000FFFFFC0007FFFFFFFFFFFFFFFFE000000
00000FFFFFC0007FFFFFFFFFFFFFFFFE000000
00001FFFFF8000FFFFFFFFFFFFFFFFFF000000
00003FFFFF0000FFFFFFFFFFFFFFFFFF800000
00003FFFFF0001FFFFFFFFFFFFFFFFFF800000
00007FFFFE0003FFFFFFFFFFFFFFFFFFC00000
00007FFFFE00000000000000001FFFFFC00000
0000FFFFFC00000000000000000FFFFFE00000
0001FFFFFC00000000000000000FFFFFF00000
0001FFFFF8000000000000000007FFFFF00000
0003FFFFF0000000000000000003FFFFF80000
0003FFFFF0000000000000000003FFFFF80000
0007FFFFE0000000000000000001FFFFFC0000
000FFFFFE0000000000000000001FFFFFE0000
000FFFFFC0000000000000000000FFFFFE0000
001FFFFF800000000000000000007FFFFF0000
001FFFFF800000000000000000007FFFFF0000
003FFFFF000000000000000000003FFFFF8000
007FFFFF000000000000000000003FFFFFC000
007FFFFE000000000000000000001FFFFFC000
00FFFFFC000000000000000000000FFFFFE000
00FFFFFC000000000000000000000FFFFFE000
01FFFFF80000000000000000000007FFFFF000
03FFFFF80000000000000000000007FFFFF800
03FFFFF00000000000000000000003FFFFF800
07FFFFE00000000000000000000001FFFFFC00
07FFFFE00000000000000000000001FFFFFE00
0FFFFFC00000000000000000000000FFFFFE00
1FFFFFC00000000000000000000000FFFFFF00
1FFFFF8000000000000000000000007FFFFF00
3FFFFF0000000000000000000000003FFFFF80
3FFFFF0000000000000000000000003FFFFFC0
7FFFFE0000000000000000000000001FFFFFC0
FFFFFE0000000000000000000000001FFFFFE0
ENDCHAR
STARTCHAR b
ENCODING 98
SWIDTH 891 0
DWIDTH 136 0
BBX 120 111 9 0
BITMAP
FFFFFFFFFFFFFFFFFFFFFFC0000000
FFFFFFFFFFFFFFFFFFFFFFFE000000
FFFFFFFFFFFFFFFFFFFFFFFFE00000
FFFFFFFFFFFFFFFFFFFFFFFFF80000
FFFFFFFFFFFFFFFFFFFFFFFFFF0000
FFFFFFFFFFFFFFFFFFFFFFFFFF8000
FFFFFFFFFFFFFFFFFFFFFFFFFFE000
FFFFFFFFFFFFFFFFFFFFFFFFFFF000
FFFFFFFFFFFFFFFFFFFFFFFFFFF800
FFFFFFFFFFFFFFFFFFFFFFFFFFFE00
FFFFFFFFFFFFFFFFFFFFFFFFFFFE00
FFFFFFFFFFFFFFFFFFFFFFFFFFFF00
FFFFFFFFFFFFFFFFFFFFFFFFFFFF80
FFFFFFFFFFFFFFFFFFFFFFFFFFFFC0
FFFFFFFFFFFFFFFFFFFFFFFFFFFFC0
FFFFFFFFFFFFFFFFFFFFFFFFFFFFE0
FFFFFFFFFFFFFFFFFFFFFFFFFFFFE0
FFFFFFFFFFFFFFFFFFFFFFFFFFFFF0
FFFFFFFFFFFFFFFFFFFFFFFFFFFFF0
FFFFF00000000000000FFFFFFFFFF8
FFFFF00000000000000000FFFFFFF8
FFFFF000000000000000001FFFFFF8
FFFFF0000000000000000007FFFFF8
FFFFF0000000000000000003FFFFFC
FFFFF0000000000000000001FFFFFC
FFFFF0000000000000000000FFFFFC
FFFFF00000000000000000007FFFFC
FFFFF00000000000000000007FFFFC
FFFFF00000000000000000003FFFFC
FFFFF00000000000000000003FFFFC
FFFFF00000000000000000003FFFFC
FFFFF00000000000000000003FFFFC
FFFFF00000000000000000003FFFFC
FFFFF00000000000000000003FFFFC
FFFFF00000000000000000003FFFFC
FFFFF00000000000000000003FFFF8
FFFFF00000000000000000003FFFF8
FFFFF00000000000000000003FFFF8
FFFFF00000000000000000003FFFF8
FFFFF00000000000000000007FFFF0
FFFFF00000000000000000007FFFF0
FFFFF0000000000000000000FFFFF0
FFFFF0000000000000000000FFFFE0
FFFFF0000000000000000001FFFFE0
FFFFF0000000000000000007FFFFC0
FFFFF000000000000000001FFFFF80
FFFFF00000000000000000FFFFFF00
FFFFF0003FFFFFFFFFFFFFFFFFFE00
FFFFF0003FFFFFFFFFFFFFFFFFFE00
FFFFF0003FFFFFFFFFFFFFFFFFF800
FFFFF0003FFFFFFFFFFFFFFFFFF000
FFFFF0003FFFFFFFFFFFFFFFFFC000
FFFFF0003FFFFFFFFFFFFFFFFF0000
FFFFF0003FFFFFFFFFFFFFFFFF0000
FFFFF0003FFFFFFFFFFFFFFFFFC000
FFFFF0003FFFFFFFFFFFFFFFFFF000
FFFFF0003FFFFFFFFFFFFFFFFFFC00
FFFFF0003FFFFFFFFFFFFFFFFFFE00
FFFFF0003FFFFFFFFFFFFFFFFFFF00
FFFFF0003FFFFFFFFFFFFFFFFFFF80
FFFFF0003FFFFFFFFFFFFFFFFFFFC0
FFFFF0003FFFFFFFFFFFFFFFFFFFE0
FFFFF0003FFFFFFFFFFFFFFFFFFFF0
FFFFF000000000000000007FFFFFF0
FFFFF000000000000000000FFFFFF8
FFFFF0000000000000000003FFFFF8
FFFFF0000000000000000000FFFFFC
FFFFF00000000000000000007FFFFC
FFFFF00000000000000000003FFFFE
FFFFF00000000000000000003FFFFE
FFFFF00000000000000000001FFFFE
FFFFF00000000000000000001FFFFE
FFFFF00000000000000000000FFFFF
FFFFF00000000000000000000FFFFF
FFFFF00000000000000000000FFFFF
FFFFF00000000000000000000FFFFF
FFFFF00000000000000000000FFFFF
FFFFF00000000000000000000FFFFF
FFFFF00000000000000000000FFFFF
FFFFF00000000000000000000FFFFF
FFFFF00000000000000000000FFFFF
FFFFF00000000000000000000FFFFF
FFFFF00000000000000000001FFFFF
FFFFF00000000000000000001FFFFF
FFFFF00000000000000000003FFFFE
FFFFF00000000000000000007FFFFE
FFFFF0000000000000000000FFFFFE
FFFFF0000000000000000001FFFFFE
FFFFF0000000000000000007FFFFFC
FFFFF000000000000000001FFFFFFC
FFFFF00000000000000000FFFFFFFC
FFFFF000000000000001FFFFFFFFF8
FFFFFFFFFFFFFFFFFFFFFFFFFFFFF8
FFFFFFFFFFFFFFFFFFFFFFFFFFFFF0
FFFFFFFFFFFFFFFFFFFFFFFFFFFFF0
FFFFFFFFFFFFFFFFFFFFFFFFFFFFE0
FFFFFFFFFFFFFFFFFFFFFFFFFFFFE0
FFFFFFFFFFFFFFFFFFFFFFFFFFFFC0
FFFFFFFFFFFFFFFFFFFFFFFFFFFF80
FFFFFFFFFFFFFFFFFFFFFFFFFFFF80
FFFFFFFFFFFFFFFFFFFFFFFFFFFF00
FFFFFFFFFFFFFFFFFFFFFFFFFFFE00
FFFFFFFFFFFFFFFFFFFFFFFFFFFC00
FFFFFFFFFFFFFFFFFFFFFFFFFFF000
FFFFFFFFFFFFFFFFFFFFFFFFFFE000
FFFFFFFFFFFFFFFFFFFFFFFFFFC000
FFFFFFFFFFFFFFFFFFFFFFFFFF0000
FFFFFFFFFFFFFFFFFFFFFFFFFC0000
FFFFFFFFFFFFFFFFFFFFFFFFE00000
FFFFFFFFFFFFFFFFFFFFFFFF000000
FFFFFFFFFFFFFFFFFFFFFFE0000000
ENDCHAR
STARTCHAR c
ENCODING 99
SWIDTH 829 0
DWIDTH 127 0
BBX 115 111 6 0
BITMAP
000000000003FFFFFFFFFFFFFFFFE0
00000000007FFFFFFFFFFFFFFFFFE0
0000000007FFFFFFFFFFFFFFFFFFE0
000000003FFFFFFFFFFFFFFFFFFFE0
00000001FFFFFFFFFFFFFFFFFFFFE0
00000007FFFFFFFFFFFFFFFFFFFFE0
0000001FFFFFFFFFFFFFFFFFFFFFE0
0000007FFFFFFFFFFFFFFFFFFFFFE0
000000FFFFFFFFFFFFFFFFFFFFFFE0
000003FFFFFFFFFFFFFFFFFFFFFFE0
000007FFFFFFFFFFFFFFFFFFFFFFE0
00000FFFFFFFFFFFFFFFFFFFFFFFE0
00003FFFFFFFFFFFFFFFFFFFFFFFE0
00007FFFFFFFFFFFFFFFFFFFFFFFE0
0000FFFFFFFFFFFFFFFFFFFFFFFFE0
0001FFFFFFFFFFFFFFFFFFFFFFFFE0
0003FFFFFFFFFFFFFFFFFFFFFFFFE0
0007FFFFFFFFFFFFFFFFFFFFFFFFE0
000FFFFFFFFFFFFFFFFFFFFFFFFFE0
000FFFFFFFFFF00000000000000000
001FFFFFFFF8000000000000000000
003FFFFFFFC0000000000000000000
007FFFFFFF00000000000000000000
007FFFFFFC00000000000000000000
00FFFFFFF000000000000000000000
00FFFFFFC000000000000000000000
01FFFFFF8000000000000000000000
01FFFFFF0000000000000000000000
03FFFFFE0000000000000000000000
03FFFFFC0000000000000000000000
07FFFFF80000000000000000000000
07FFFFF00000000000000000000000
0FFFFFE00000000000000000000000
0FFFFFC00000000000000000000000
0FFFFFC00000000000000000000000
1FFFFF800000000000000000000000
1FFFFF000000000000000000000000
1FFFFF000000000000000000000000
3FFFFE000000000000000000000000
3FFFFE000000000000000000000000
3FFFFE000000000000000000000000
3FFFFC000000000000000000000000
7FFFFC000000000000000000000000
7FFFF8000000000000000000000000
7FFFF8000000000000000000000000
7FFFF8000000000000000000000000
7FFFF8000000000000000000000000
7FFFF8000000000000000000000000
7FFFF0000000000000000000000000
7FFFF0000000000000000000000000
7FFFF0000000000000000000000000
FFFFF0000000000000000000000000
FFFFF0000000000000000000000000
FFFFF0000000000000000000000000
FFFFF0000000000000000000000000
FFFFF0000000000000000000000000
FFFFF0000000000000000000000000
FFFFF0000000000000000000000000
7FFFF0000000000000000000000000
7FFFF0000000000000000000000000
7FFFF0000000000000000000000000
7FFFF0000000000000000000000000
7FFFF0000000000000000000000000
7FFFF8000000000000000000000000
7FFFF8000000000000000000000000
7FFFF8000000000000000000000000
3FFFF8000000000000000000000000
3FFFFC000000000000000000000000
3FFFFC000000000000000000000000
3FFFFC000000000000000000000000
3FFFFE000000000000000000000000
1FFFFE000000000000000000000000
1FFFFF000000000000000000000000
1FFFFF000000000000000000000000
0FFFFF800000000000000000000000
0FFFFF800000000000000000000000
0FFFFFC00000000000000000000000
07FFFFE00000000000000000000000
07FFFFE00000000000000000000000
03FFFFF00000000000000000000000
03FFFFF80000000000000000000000
01FFFFFC0000000000000000000000
01FFFFFE0000000000000000000000
00FFFFFF0000000000000000000000
00FFFFFF8000000000000000000000
007FFFFFE000000000000000000000
007FFFFFF000000000000000000000
003FFFFFFC00000000000000000000
001FFFFFFF00000000000000000000
001FFFFFFFC0000000000000000000
000FFFFFFFF8000000000000000000
0007FFFFFFFFF00000000000000000
0003FFFFFFFFFFFFFFFFFFFFFFFFE0
0001FFFFFFFFFFFFFFFFFFFFFFFFE0
0000FFFFFFFFFFFFFFFFFFFFFFFFE0
00007FFFFFFFFFFFFFFFFFFFFFFFE0
00003FFFFFFFFFFFFFFFFFFFFFFFE0
00001FFFFFFFFFFFFFFFFFFFFFFFE0
00000FFFFFFFFFFFFFFFFFFFFFFFE0
000007FFFFFFFFFFFFFFFFFFFFFFE0
000003FFFFFFFFFFFFFFFFFFFFFFE0
000000FFFFFFFFFFFFFFFFFFFFFFE0
0000007FFFFFFFFFFFFFFFFFFFFFE0
0000001FFFFFFFFFFFFFFFFFFFFFE0
00000007FFFFFFFFFFFFFFFFFFFFE0
00000003FFFFFFFFFFFFFFFFFFFFE0
000000007FFFFFFFFFFFFFFFFFFFE0
000000001FFFFFFFFFFFFFFFFFFFE0
0000000003FFFFFFFFFFFFFFFFFFE0
00000000007FFFFFFFFFFFFFFFFFE0
000000000003FFFFFFFFFFFFFFFFE0
ENDCHAR
STARTCHAR d
ENCODING 100
SWIDTH 879 0
DWIDTH 134 0
BBX 118 111 10 0
BITMAP
FFFFFFFFFFFFFFFFFF000000000000
FFFFFFFFFFFFFFFFFFFC0000000000
FFFFFFFFFFFFFFFFFFFFC000000000
FFFFFFFFFFFFFFFFFFFFF800000000
FFFFFFFFFFFFFFFFFFFFFE00000000
FFFFFFFFFFFFFFFFFFFFFF80000000
FFFFFFFFFFFFFFFFFFFFFFE0000000
FFFFFFFFFFFFFFFFFFFFFFF8000000
FFFFFFFFFFFFFFFFFFFFFFFE000000
FFFFFFFFFFFFFFFFFFFFFFFF000000
FFFFFFFFFFFFFFFFFFFFFFFFC00000
FFFFFFFFFFFFFFFFFFFFFFFFE00000
FFFFFFFFFFFFFFFFFFFFFFFFF00000
FFFFFFFFFFFFFFFFFFFFFFFFF80000
FFFFFFFFFFFFFFFFFFFFFFFFFC0000
FFFFFFFFFFFFFFFFFFFFFFFFFE0000
FFFFFFFFFFFFFFFFFFFFFFFFFF0000
FFFFFFFFFFFFFFFFFFFFFFFFFF8000
FFFFFFFFFFFFFFFFFFFFFFFFFFC000
FFFFE000000000003FFFFFFFFFE000
FFFFE00000000000007FFFFFFFF000
FFFFE00000000000000FFFFFFFF000
FFFFE000000000000001FFFFFFF800
FFFFE0000000000000007FFFFFFC00
FFFFE0000000000000001FFFFFFC00
FFFFE0000000000000000FFFFFFE00
FFFFE00000000000000007FFFFFE00
FFFFE00000000000000001FFFFFF00
FFFFE00000000000000000FFFFFF00
FFFFE000000000000000007FFFFF80
FFFFE000000000000000003FFFFF80
FFFFE000000000000000001FFFFFC0
FFFFE000000000000000001FFFFFC0
FFFFE000000000000000000FFFFFE0
FFFFE0000000000000000007FFFFE0
FFFFE0000000000000000003FFFFE0
FFFFE0000000000000000003FFFFF0
FFFFE0000000000000000001FFFFF0
FFFFE0000000000000000001FFFFF0
FFFFE0000000000000000000FFFFF0
FFFFE0000000000000000000FFFFF8
FFFFE0000000000000000000FFFFF8
FFFFE00000000000000000007FFFF8
FFFFE00000000000000000007FFFF8
FFFFE00000000000000000007FFFF8
FFFFE00000000000000000003FFFFC
FFFFE00000000000000000003FFFFC
FFFFE00000000000000000003FFFFC
FFFFE00000000000000000003FFFFC
FFFFE00000000000000000003FFFFC
FFFFE00000000000000000001FFFFC
FFFFE00000000000000000001FFFFC
FFFFE00000000000000000001FFFFC
FFFFE00000000000000000001FFFFC
FFFFE00000000000000000001FFFFC
FFFFE00000000000000000001FFFFC
FFFFE00000000000000000001FFFFC
FFFFE00000000000000000001FFFFC
FFFFE00000000000000000001FFFFC
FFFFE00000000000000000001FFFFC
FFFFE00000000000000000003FFFFC
FFFFE00000000000000000003FFFFC
FFFFE00000000000000000003FFFFC
FFFFE00000000000000000003FFFFC
FFFFE00000000000000000003FFFF8
FFFFE00000000000000000003FFFF8
FFFFE00000000000000000007FFFF8
FFFFE00000000000000000007FFFF8
FFFFE00000000000000000007FFFF8
FFFFE0000000000000000000FFFFF0
FFFFE0000000000000000000FFFFF0
FFFFE0000000000000000001FFFFF0
FFFFE0000000000000000001FFFFF0
FFFFE0000000000000000003FFFFE0
FFFFE0000000000000000003FFFFE0
FFFFE0000000000000000007FFFFE0
FFFFE0000000000000000007FFFFC0
FFFFE000000000000000000FFFFFC0
FFFFE000000000000000001FFFFF80
FFFFE000000000000000003FFFFF80
FFFFE000000000000000003FFFFF80
FFFFE000000000000000007FFFFF00
FFFFE00000000000000000FFFFFF00
FFFFE00000000000000001FFFFFE00
FFFFE00000000000000007FFFFFC00
FFFFE0000000000000000FFFFFFC00
FFFFE0000000000000003FFFFFF800
FFFFE0000000000000007FFFFFF800
FFFFE000000000000001FFFFFFF000
FFFFE00000000000000FFFFFFFE000
FFFFE00000000000007FFFFFFFE000
FFFFE000000000003FFFFFFFFFC000
FFFFFFFFFFFFFFFFFFFFFFFFFF8000
FFFFFFFFFFFFFFFFFFFFFFFFFF0000
FFFFFFFFFFFFFFFFFFFFFFFFFE0000
FFFFFFFFFFFFFFFFFFFFFFFFFC0000
FFFFFFFFFFFFFFFFFFFFFFFFF80000
FFFFFFFFFFFFFFFFFFFFFFFFF00000
FFFFFFFFFFFFFFFFFFFFFFFFE00000
FFFFFFFFFFFFFFFFFFFFFFFFC00000
FFFFFFFFFFFFFFFFFFFFFFFF000000
FFFFFFFFFFFFFFFFFFFFFFFE000000
FFFFFFFFFFFFFFFFFFFFFFF8000000
FFFFFFFFFFFFFFFFFFFFFFF0000000
FFFFFFFFFFFFFFFFFFFFFFC0000000
FFFFFFFFFFFFFFFFFFFFFF00000000
FFFFFFFFFFFFFFFFFFFFFC00000000
FFFFFFFFFFFFFFFFFFFFF000000000
FFFFFFFFFFFFFFFFFFFF8000000000
FFFFFFFFFFFFFFFFFFF80000000000
FFFFFFFFFFFFFFFFFF000000000000
ENDCHAR
STARTCHAR e
ENCODING 101
SWIDTH 759 0
DWIDTH 116 0
BBX 99 111 10 0
BITMAP
FFFFFFFFFFFFFFFFFFFFFFFFE0
FFFFFFFFFFFFFFFFFFFFFFFFE0
FFFFFFFFFFFFFFFFFFFFFFFFE0
FFFFFFFFFFFFFFFFFFFFFFFFE0
FFFFFFFFFFFFFFFFFFFFFFFFE0
FFFFFFFFFFFFFFFFFFFFFFFFE0
FFFFFFFFFFFFFFFFFFFFFFFFE0
FFFFFFFFFFFFFFFFFFFFFFFFE0
FFFFFFFFFFFFFFFFFFFFFFFFE0
FFFFFFFFFFFFFFFFFFFFFFFFE0
FFFFFFFFFFFFFFFFFFFFFFFFE0
FFFFFFFFFFFFFFFFFFFFFFFFE0
FFFFFFFFFFFFFFFFFFFFFFFFE0
FFFFFFFFFFFFFFFFFFFFFFFFE0
FFFFFFFFFFFFFFFFFFFFFFFFE0
FFFFFFFFFFFFFFFFFFFFFFFFE0
FFFFFFFFFFFFFFFFFFFFFFFFE0
FFFFFFFFFFFFFFFFFFFFFFFFE0
FFFFFFFFFFFFFFFFFFFFFFFFE0
FFFFE000000000000000000000
FFFFE000000000000000000000
FFFFE000000000000000000000
FFFFE000000000000000000000
FFFFE000000000000000000000
FFFFE000000000000000000000
FFFFE000000000000000000000
FFFFE000000000000000000000
FFFFE000000000000000000000
FFFFE000000000000000000000
FFFFE000000000000000000000
FFFFE000000000000000000000
FFFFE000000000000000000000
FFFFE000000000000000000000
FFFFE000000000000000000000
FFFFE000000000000000000000
FFFFE000000000000000000000
FFFFE000000000000000000000
FFFFE000000000000000000000
FFFFE000000000000000000000
FFFFE000000000000000000000
FFFFE000000000000000000000
FFFFE000000000000000000000
FFFFE000000000000000000000
FFFFE000000000000000000000
FFFFE000000000000000000000
FFFFE000000000000000000000
FFFFE000000000000000000000
FFFFE0007FFFFFFFFFFFFFFE00
FFFFE0007FFFFFFFFFFFFFFE00
FFFFE0007FFFFFFFFFFFFFFE00
FFFFE0007FFFFFFFFFFFFFFE00
FFFFE0007FFFFFFFFFFFFFFE00
FFFFE0007FFFFFFFFFFFFFFE00
FFFFE0007FFFFFFFFFFFFFFE00
FFFFE0007FFFFFFFFFFFFFFE00
FFFFE0007FFFFFFFFFFFFFFE00
FFFFE0007FFFFFFFFFFFFFFE00
FFFFE0007FFFFFFFFFFFFFFE00
FFFFE0007FFFFFFFFFFFFFFE00
FFFFE0007FFFFFFFFFFFFFFE00
FFFFE0007FFFFFFFFFFFFFFE00
FFFFE0007FFFFFFFFFFFFFFE00
FFFFE0007FFFFFFFFFFFFFFE00
FFFFE000000000000000000000
FFFFE000000000000000000000
FFFFE000000000000000000000
FFFFE000000000000000000000
FFFFE000000000000000000000
FFFFE000000000000000000000
FFFFE000000000000000000000
FFFFE000000000000000000000
FFFFE000000000000000000000
FFFFE000000000000000000000
FFFFE000000000000000000000
FFFFE000000000000000000000
FFFFE000000000000000000000
FFFFE000000000000000000000
FFFFE000000000000000000000
FFFFE000000000000000000000
FFFFE000000000000000000000
FFFFE000000000000000000000
FFFFE000000000000000000000
FFFFE000000000000000000000
FFFFE000000000000000000000
FFFFE000000000000000000000
FFFFE000000000000000000000
FFFFE000000000000000000000
FFFFE000000000000000000000
FFFFE000000000000000000000
FFFFE000000000000000000000
FFFFE000000000000000000000
FFFFE000000000000000000000
FFFFFFFFFFFFFFFFFFFFFFFFE0
FFFFFFFFFFFFFFFFFFFFFFFFE0
FFFFFFFFFFFFFFFFFFFFFFFFE0
FFFFFFFFFFFFFFFFFFFFFFFFE0
FFFFFFFFFFFFFFFFFFFFFFFFE0
FFFFFFFFFFFFFFFFFFFFFFFFE0
FFFFFFFFFFFFFFFFFFFFFFFFE0
FFFFFFFFFFFFFFFFFFFFFFFFE0
FFFFFFFFFFFFFFFFFFFFFFFFE0
FFFFFFFFFFFFFFFFFFFFFFFFE0
FFFFFFFFFFFFFFFFFFFFFFFFE0
FFFFFFFFFFFFFFFFFFFFFFFFE0
FFFFFFFFFFFFFFFFFFFFFFFFE0
FFFFFFFFFFFFFFFFFFFFFFFFE0
FFFFFFFFFFFFFFFFFFFFFFFFE0
FFFFFFFFFFFFFFFFFFFFFFFFE0
FFFFFFFFFFFFFFFFFFFFFFFFE0
FFFFFFFFFFFFFFFFFFFFFFFFE0
FFFFFFFFFFFFFFFFFFFFFFFFE0
ENDCHAR
STARTCHAR f
ENCODING 102
SWIDTH 705 0
DWIDTH 108 0
BBX 94 111 10 0
BITMAP
FFFFFFFFFFFFFFFFFFFFFFFC
FFFFFFFFFFFFFFFFFFFFFFFC
FFFFFFFFFFFFFFFFFFFFFFFC
FFFFFFFFFFFFFFFFFFFFFFFC
FFFFFFFFFFFFFFFFFFFFFFFC
FFFFFFFFFFFFFFFFFFFFFFFC
FFFFFFFFFFFFFFFFFFFFFFFC
FFFFFFFFFFFFFFFFFFFFFFFC
FFFFFFFFFFFFFFFFFFFFFFFC
FFFFFFFFFFFFFFFFFFFFFFFC
FFFFFFFFFFFFFFFFFFFFFFFC
FFFFFFFFFFFFFFFFFFFFFFFC
FFFFFFFFFFFFFFFFFFFFFFFC
FFFFFFFFFFFFFFFFFFFFFFFC
FFFFFFFFFFFFFFFFFFFFFFFC
FFFFFFFFFFFFFFFFFFFFFFFC
FFFFFFFFFFFFFFFFFFFFFFFC
FFFFFFFFFFFFFFFFFFFFFFFC
FFFFFFFFFFFFFFFFFFFFFFFC
FFFFE0000000000000000000
FFFFE0000000000000000000
FFFFE0000000000000000000
FFFFE0000000000000000000
FFFFE0000000000000000000
FFFFE0000000000000000000
FFFFE0000000000000000000
FFFFE0000000000000000000
FFFFE0000000000000000000
FFFFE0000000000000000000
FFFFE0000000000000000000
FFFFE0000000000000000000
FFFFE0000000000000000000
FFFFE0000000000000000000
FFFFE0000000000000000000
FFFFE0000000000000000000
FFFFE0000000000000000000
FFFFE0000000000000000000
FFFFE0000000000000000000
FFFFE0000000000000000000
FFFFE0000000000000000000
FFFFE0000000000000000000
FFFFE0000000000000000000
FFFFE0000000000000000000
FFFFE0000000000000000000
FFFFE0000000000000000000
FFFFE0000000000000000000
FFFFE0000000000000000000
FFFFE0000000000000000000
FFFFE0007FFFFFFFFFFFFF80
FFFFE0007FFFFFFFFFFFFF80
FFFFE0007FFFFFFFFFFFFF80
FFFFE0007FFFFFFFFFFFFF80
FFFFE0007FFFFFFFFFFFFF80
FFFFE0007FFFFFFFFFFFFF80
FFFFE0007FFFFFFFFFFFFF80
FFFFE0007FFFFFFFFFFFFF80
FFFFE0007FFFFFFFFFFFFF80
FFFFE0007FFFFFFFFFFFFF80
FFFFE0007FFFFFFFFFFFFF80
FFFFE0007FFFFFFFFFFFFF80
FFFFE0007FFFFFFFFFFFFF80
FFFFE0007FFFFFFFFFFFFF80
FFFFE0007FFFFFFFFFFFFF80
FFFFE0007FFFFFFFFFFFFF80
FFFFE0007FFFFFFFFFFFFF80
FFFFE0000000000000000000
FFFFE0000000000000000000
FFFFE0000000000000000000
FFFFE0000000000000000000
FFFFE0000000000000000000
FFFFE0000000000000000000
FFFFE0000000000000000000
FFFFE0000000000000000000
FFFFE0000000000000000000
FFFFE0000000000000000000
FFFFE0000000000000000000
FFFFE0000000000000000000
FFFFE0000000000000000000
FFFFE0000000000000000000
FFFFE0000000000000000000
FFFFE0000000000000000000
FFFFE0000000000000000000
FFFFE0000000000000000000
FFFFE0000000000000000000
FFFFE0000000000000000000
FFFFE0000000000000000000
FFFFE0000000000000000000
FFFFE0000000000000000000
FFFFE0000000000000000000
FFFFE0000000000000000000
FFFFE0000000000000000000
FFFFE0000000000000000000
FFFFE0000000000000000000
FFFFE0000000000000000000
FFFFE0000000000000000000
FFFFE0000000000000000000
FFFFE0000000000000000000
FFFFE0000000000000000000
FFFFE0000000000000000000
FFFFE0000000000000000000
FFFFE0000000000000000000
FFFFE0000000000000000000
FFFFE0000000000000000000
FFFFE0000000000000000000
FFFFE0000000000000000000
FFFFE0000000000000000000
FFFFE0000000000000000000
FFFFE0000000000000000000
FFFFE0000000000000000000
FFFFE0000000000000000000
FFFFE0000000000000000000
ENDCHAR
STARTCHAR g
ENCODING 103
SWIDTH 888 0
DWIDTH 136 0
BBX 122 111 6 0
BITMAP
000000000003FFFFFFFFFFFFFFFFE000
00000000007FFFFFFFFFFFFFFFFFE000
0000000007FFFFFFFFFFFFFFFFFFE000
000000003FFFFFFFFFFFFFFFFFFFE000
00000001FFFFFFFFFFFFFFFFFFFFE000
00000007FFFFFFFFFFFFFFFFFFFFE000
0000001FFFFFFFFFFFFFFFFFFFFFE000
0000007FFFFFFFFFFFFFFFFFFFFFE000
000000FFFFFFFFFFFFFFFFFFFFFFE000
000003FFFFFFFFFFFFFFFFFFFFFFE000
000007FFFFFFFFFFFFFFFFFFFFFFE000
00000FFFFFFFFFFFFFFFFFFFFFFFE000
00003FFFFFFFFFFFFFFFFFFFFFFFE000
00007FFFFFFFFFFFFFFFFFFFFFFFE000
0000FFFFFFFFFFFFFFFFFFFFFFFFE000
0001FFFFFFFFFFFFFFFFFFFFFFFFE000
0003FFFFFFFFFFFFFFFFFFFFFFFFE000
0007FFFFFFFFFFFFFFFFFFFFFFFFE000
000FFFFFFFFFFFFFFFFFFFFFFFFFE000
000FFFFFFFFFF0000000000000000000
001FFFFFFFF800000000000000000000
003FFFFFFFC000000000000000000000
007FFFFFFF0000000000000000000000
007FFFFFFC0000000000000000000000
00FFFFFFF00000000000000000000000
00FFFFFFC00000000000000000000000
01FFFFFF800000000000000000000000
01FFFFFF000000000000000000000000
03FFFFFE000000000000000000000000
03FFFFFC000000000000000000000000
07FFFFF8000000000000000000000000
07FFFFF0000000000000000000000000
0FFFFFE0000000000000000000000000
0FFFFFC0000000000000000000000000
0FFFFFC0000000000000000000000000
1FFFFF80000000000000000000000000
1FFFFF00000000000000000000000000
1FFFFF00000000000000000000000000
3FFFFE00000000000000000000000000
3FFFFE00000000000000000000000000
3FFFFE00000000000000000000000000
3FFFFC00000000000000000000000000
7FFFFC00000000000000000000000000
7FFFF800000000000000000000000000
7FFFF800000000000000000000000000
7FFFF800000000000000000000000000
7FFFF800000000000000000000000000
7FFFF80000000FFFFFFFFFFFFFFFFFC0
7FFFF00000000FFFFFFFFFFFFFFFFFC0
7FFFF00000000FFFFFFFFFFFFFFFFFC0
7FFFF00000000FFFFFFFFFFFFFFFFFC0
FFFFF00000000FFFFFFFFFFFFFFFFFC0
FFFFF00000000FFFFFFFFFFFFFFFFFC0
FFFFF00000000FFFFFFFFFFFFFFFFFC0
FFFFF00000000FFFFFFFFFFFFFFFFFC0
FFFFF00000000FFFFFFFFFFFFFFFFFC0
FFFFF00000000FFFFFFFFFFFFFFFFFC0
FFFFF00000000FFFFFFFFFFFFFFFFFC0
7FFFF00000000FFFFFFFFFFFFFFFFFC0
7FFFF00000000FFFFFFFFFFFFFFFFFC0
7FFFF00000000FFFFFFFFFFFFFFFFFC0
7FFFF00000000FFFFFFFFFFFFFFFFFC0
7FFFF00000000FFFFFFFFFFFFFFFFFC0
7FFFF800000000000000000003FFFFC0
7FFFF800000000000000000003FFFFC0
7FFFF800000000000000000003FFFFC0
3FFFF800000000000000000003FFFFC0
3FFFFC00000000000000000003FFFFC0
3FFFFC00000000000000000003FFFFC0
3FFFFC00000000000000000003FFFFC0
3FFFFE00000000000000000003FFFFC0
1FFFFE00000000000000000003FFFFC0
1FFFFF00000000000000000003FFFFC0
1FFFFF00000000000000000003FFFFC0
0FFFFF80000000000000000003FFFFC0
0FFFFF80000000000000000003FFFFC0
0FFFFFC0000000000000000003FFFFC0
07FFFFE0000000000000000003FFFFC0
07FFFFE0000000000000000003FFFFC0
03FFFFF0000000000000000003FFFFC0
03FFFFF8000000000000000003FFFFC0
01FFFFFC000000000000000003FFFFC0
01FFFFFE000000000000000003FFFFC0
00FFFFFF000000000000000003FFFFC0
00FFFFFF800000000000000003FFFFC0
007FFFFFE00000000000000003FFFFC0
007FFFFFF00000000000000003FFFFC0
003FFFFFFC0000000000000003FFFFC0
001FFFFFFF0000000000000003FFFFC0
001FFFFFFFC000000000000003FFFFC0
000FFFFFFFF800000000000003FFFFC0
0007FFFFFFFFF0000000000003FFFFC0
0003FFFFFFFFFFFFFFFFFFFFFFFFFFC0
0001FFFFFFFFFFFFFFFFFFFFFFFFFFC0
0000FFFFFFFFFFFFFFFFFFFFFFFFFFC0
00007FFFFFFFFFFFFFFFFFFFFFFFFFC0
00003FFFFFFFFFFFFFFFFFFFFFFFFFC0
00001FFFFFFFFFFFFFFFFFFFFFFFFFC0
00000FFFFFFFFFFFFFFFFFFFFFFFFFC0
000007FFFFFFFFFFFFFFFFFFFFFFFFC0
000003FFFFFFFFFFFFFFFFFFFFFFFFC0
000000FFFFFFFFFFFFFFFFFFFFFFFFC0
0000007FFFFFFFFFFFFFFFFFFFFFFFC0
0000001FFFFFFFFFFFFFFFFFFFFFFFC0
00000007FFFFFFFFFFFFFFFFFFFFFFC0
00000003FFFFFFFFFFFFFFFFFFFFFFC0
000000007FFFFFFFFFFFFFFFFFFFFFC0
000000001FFFFFFFFFFFFFFFFFFFFFC0
0000000003FFFFFFFFFFFFFFFFFFFFC0
00000000007FFFFFFFFFFFFFFFFFFFC0
000000000003FFFFFFFFFFFFFFFFFFC0
ENDCHAR
ENDFONT
